<svg width="734" height="537" fill="none" xmlns="http://www.w3.org/2000/svg"><g clip-path="url(#a)"><path fill-rule="evenodd" clip-rule="evenodd" d="M128.027 172.516c27.457-24.901 61.223-41.856 90.773-65.131 37.408-29.465 49.397-86.032 105.924-89.799 55.608-3.705 105.434 49.306 161.028 72.008 66.975 27.351 153.102 25.684 198.935 74.987 45.427 48.867 25.45 108.982 22.069 162.754-3.233 51.433 2.699 110.988-41.258 142.481-43.196 30.946-120.962 8.622-181.566 17.157-56.594 7.971-102.023 47.717-162.406 31.285-60.4-16.437-88.966-76.268-137.941-113.017-54.637-40.998-153.178-60.668-166.195-115.196-13.434-56.273 69.366-80.101 110.637-117.529Z" fill="url(#b)"/><path d="M310.484 411.421h-39.423v.287h39.423v-.287ZM329.817 411.421h-11.781v.287h11.781v-.287ZM387.942 405.795h-22.187v.286h22.187v-.286ZM673.479 417.782h-49.496v.286h49.496v-.286ZM690.944 417.782h-7.254v.286h7.254v-.286ZM636.509 407.72H529.152v.286h107.357v-.286Z" fill="#E6E6E6"/><path d="M660.197 246.042h-80.3V402.23h80.3V246.042Z" fill="#F5F5F5"/><path d="M660.197 246.042h-6.624V402.23h6.624V246.042Z" fill="#F0F0F0"/><path d="M401.201 284.238h184.884V250.5H401.201v33.738Z" fill="#E0E0E0"/><path d="M478.292 402.345h-79.268a1.148 1.148 0 0 1-.811-1.956c.215-.215.507-.336.811-.336h79.268c11.46 0 12.985-3.346 12.985-16.617V216.12a1.144 1.144 0 0 1 1.956-.81c.215.215.336.506.336.81v167.316c0 14.188-2.201 18.909-15.277 18.909Z" fill="#E0E0E0"/><path d="M408.306 258.362h250.08v-11.713h-250.08v11.713Z" fill="#F0F0F0"/><path d="M410.117 246.042h-80.3V402.23h80.3V246.042Z" fill="#F5F5F5"/><path d="M410.105 246.042h-6.624V402.23h6.624V246.042Z" fill="#F0F0F0"/><path d="M353.252 402.23V124.096h-68.909V402.23h68.909Z" fill="#FAFAFA"/><path d="M349.47 193.567v-61.346h-61.345v61.346h61.345Z" fill="#F5F5F5"/><path d="M305.212 131.396h27.206a6.361 6.361 0 0 1-6.36 6.361h-14.44a6.36 6.36 0 0 1-6.406-6.361Z" fill="#E0E0E0"/><path d="M349.459 260.413v-61.345h-61.345v61.345h61.345ZM349.47 327.259v-61.345h-61.345v61.345h61.345ZM349.47 394.117v-61.346h-61.345v61.346h61.345Z" fill="#F5F5F5"/><path d="M305.212 198.254h27.206a6.371 6.371 0 0 1-6.36 6.36h-14.44a6.377 6.377 0 0 1-5.914-3.917 6.363 6.363 0 0 1-.492-2.443ZM305.212 265.1h27.206a6.361 6.361 0 0 1-6.36 6.36h-14.44a6.36 6.36 0 0 1-6.406-6.36ZM305.212 331.946h27.206a6.361 6.361 0 0 1-6.36 6.361h-14.44a6.36 6.36 0 0 1-6.406-6.361Z" fill="#E0E0E0"/><path d="M284.343 402.23V124.096h-34.414V402.23h34.414ZM482.991 246.042h-17.316l4.206-33.715h17.327l-4.217 33.715Z" fill="#F0F0F0"/><path d="M486.83 246.042h-17.327l4.217-33.715h17.316l-4.206 33.715Z" fill="#F5F5F5"/><path d="M523.983 246.042h-12.525l-2.396-3.816h12.515l2.406 3.816Z" fill="#F0F0F0"/><path d="M591.093 246.042h-75.808l-2.395-3.816h67.981l10.222 3.816Z" fill="#FAFAFA"/><path d="M428.063 236.37h5.478a9.672 9.672 0 0 1 9.672 9.672h-24.845a9.667 9.667 0 0 1 5.987-8.942 9.665 9.665 0 0 1 3.708-.73ZM488.927 229.184h-17.316l2.109-16.857h17.316l-2.109 16.857Z" fill="#F0F0F0"/><path d="M425.244 225.151h122.622a1.707 1.707 0 0 0 1.276-.576 1.707 1.707 0 0 0 .409-1.338l-9.443-75.545a1.697 1.697 0 0 0-1.685-1.489H415.835a1.694 1.694 0 0 0-1.684 1.902l9.443 75.556a1.696 1.696 0 0 0 1.65 1.49Z" fill="#F0F0F0"/><path d="M427.101 225.151h122.541a1.704 1.704 0 0 0 1.276-.576 1.707 1.707 0 0 0 .409-1.338l-9.443-75.545a1.708 1.708 0 0 0-1.685-1.489H417.658a1.684 1.684 0 0 0-1.621 1.192c-.072.23-.093.472-.064.71l9.443 75.556a1.699 1.699 0 0 0 1.685 1.49Z" fill="#F5F5F5"/><path d="m547.373 220.968-8.835-70.709a.482.482 0 0 0-.482-.412h-117.66a.455.455 0 0 0-.469.527l8.835 70.72a.468.468 0 0 0 .47.412h117.671a.472.472 0 0 0 .452-.339.48.48 0 0 0 .018-.199Z" fill="#E0E0E0"/><path d="M502.588 246.042h-28.215v-.355a2.807 2.807 0 0 1 2.808-2.808h22.599a2.806 2.806 0 0 1 2.808 2.808v.355Z" fill="#FAFAFA"/><path d="M477.662 246.042h-19.138v-.355a2.807 2.807 0 0 1 2.808-2.808h13.522a2.808 2.808 0 0 1 2.808 2.808v.355Z" fill="#F0F0F0"/><path d="M313.463 92.684v-.057c.264-.882.516-1.776.734-2.67a4.644 4.644 0 0 0 3.598 2.166h.309c1.914-.184 3.748-2.04 4.905-4.962a.414.414 0 0 0 0-.333.445.445 0 0 0-.263-.217 10.075 10.075 0 0 0-8.102 1.41c.171-.849.32-1.708.446-2.556.303.058.61.089.917.091 3.117 0 5.409-2.784 5.524-2.922a.413.413 0 0 0-.172-.642 5.729 5.729 0 0 0-4.687-.183 4.156 4.156 0 0 0-1.845 1.868 10.25 10.25 0 0 0-8.125-6.945.378.378 0 0 0-.333.08.38.38 0 0 0-.16.298c-.16 2.83-.069 6.303 2.051 7.954a4.838 4.838 0 0 0 3.072.94 11.177 11.177 0 0 0 2.91-.46 46.137 46.137 0 0 1-1.317 6.063 16.046 16.046 0 0 0-8.378-5.89.425.425 0 0 0-.504.298c-.642 2.44-.309 4.423.951 5.73a6.42 6.42 0 0 0 4.745 1.627 14.206 14.206 0 0 0 2.75-.287c-.527 1.674-1.146 3.312-1.73 4.871-1.272-1.146-5.02-3.988-9.1-2.796a.438.438 0 0 0-.252.218.431.431 0 0 0 0 .332c1.146 2.704 2.372 4.206 3.954 4.721a4.11 4.11 0 0 0 1.306.207 7.452 7.452 0 0 0 3.438-1.009 83.094 83.094 0 0 1-2.681 5.73 8.324 8.324 0 0 0-8.217-2.177.4.4 0 0 0-.321.435 4.97 4.97 0 0 0 2.968 3.988 4.79 4.79 0 0 0 1.914.39 5.653 5.653 0 0 0 2.613-.676 87.034 87.034 0 0 1-2.361 4.102h-7.793a101.683 101.683 0 0 1-4.068-7.712 7.446 7.446 0 0 0 2.006.309 5.43 5.43 0 0 0 4.347-2.079 5.437 5.437 0 0 0 .993-4.716.403.403 0 0 0-.447-.287 9.966 9.966 0 0 0-7.701 5.008 81.704 81.704 0 0 1-2.59-6.51 7.241 7.241 0 0 0 3.243.94c.452.006.902-.068 1.329-.217 2.292-.757 3.61-3.519 4.733-6.383a.369.369 0 0 0 0-.333.421.421 0 0 0-.263-.218c-4.584-1.283-8.355 3.129-9.523 4.71a56.245 56.245 0 0 1-1.525-5.81c.963.189 1.942.288 2.923.298a7.13 7.13 0 0 0 5.363-1.88c1.387-1.466 1.719-3.666.974-6.348a.396.396 0 0 0-.191-.251.4.4 0 0 0-.313-.035 17.556 17.556 0 0 0-9.065 6.566l-.172-1.043a.432.432 0 0 0-.115-.24 5.031 5.031 0 0 0-2.601-3.152 6.282 6.282 0 0 0-5.134.275.437.437 0 0 0-.252.287.401.401 0 0 0 .092.355c.114.149 2.635 3.128 6.027 3.128a5.954 5.954 0 0 0 1.089-.114c.149.974.333 1.948.539 2.91a11.074 11.074 0 0 0-8.962-1.443.45.45 0 0 0-.264.217.46.46 0 0 0 0 .344c1.318 3.186 3.358 5.203 5.467 5.375h.286c1.066 0 2.51-.493 3.977-2.453a64.704 64.704 0 0 0 2.086 6.579c-1.983-.94-6.441-2.556-9.627-.092a.412.412 0 0 0-.162.27.412.412 0 0 0 .082.303c2.063 2.808 3.965 4.171 5.833 4.171 1.547 0 3.026-.974 4.504-2.899a92.163 92.163 0 0 0 2.67 5.982c-1.982-1.226-4.16-1.031-6.727.585a.398.398 0 0 0-.195.343.39.39 0 0 0 .039.196c.031.06.077.111.133.148a10.155 10.155 0 0 0 5.215 1.891c.969.019 1.92-.27 2.716-.825.733 1.41 1.455 2.704 2.12 3.862h-3.541v2.017h1.283l1.066 10.681h15.689l1.054-10.681h1.295v-2.017h-7.048a101.223 101.223 0 0 0 2.842-5.054.394.394 0 0 0 .069-.137c.275-.516.538-1.043.814-1.593a5.3 5.3 0 0 0 4.24 2.372c.175.011.351.011.527 0a5.09 5.09 0 0 0 4.194-3.278.403.403 0 0 0-.183-.492 8.702 8.702 0 0 0-7.93-.321c.595-1.25 1.146-2.59 1.741-3.977a.338.338 0 0 0 .081-.183c.16-.39.309-.78.47-1.146 1.363 1.719 2.716 2.567 4.125 2.567 1.708 0 3.438-1.26 5.295-3.862a.415.415 0 0 0-.081-.573c-2.922-2.19-6.876-.688-8.732.183a56.206 56.206 0 0 0 1.043-3.14l.034-.115ZM641.231 87.848h-58.607v64.348h58.607V87.848Z" fill="#E0E0E0"/><path d="M633.999 90.484a.32.32 0 0 1-.149 0c-.137-.092-13.981-8.32-18.336-8.32-4.354 0-17.591 8.228-17.728 8.309a.284.284 0 0 1-.215.038.278.278 0 0 1-.175-.13.287.287 0 0 1 .092-.39c.55-.344 13.465-8.4 18.026-8.4s18.107 8.022 18.68 8.4a.265.265 0 0 1 .083.074c.023.03.039.065.047.101a.26.26 0 0 1 .003.112.26.26 0 0 1-.041.103.274.274 0 0 1-.287.103Z" fill="#EBEBEB"/><path d="M647.568 87.848h-60.532v64.348h60.532V87.848Z" fill="#F5F5F5"/><path d="M642.503 147.119V92.914h-50.39v54.205h50.39Z" fill="#fff"/><path d="M627.067 129.782c5.393-5.393 5.393-14.137 0-19.529-5.393-5.393-14.136-5.393-19.529 0-5.393 5.392-5.393 14.136 0 19.529 5.393 5.393 14.136 5.393 19.529 0Z" fill="#E0E0E0"/><path d="M616.133 324.131h51.364a17.993 17.993 0 0 0 18.004-17.637l1.925-94.041a13.123 13.123 0 0 0-13.122-13.385h-32.202a13.11 13.11 0 0 0-13.03 11.632l-12.939 113.431Z" fill="#E6E6E6"/><path d="M644.164 324.131h-54.733a2.571 2.571 0 0 1-2.567-2.567v-.241c0-1.866.742-3.656 2.061-4.976a7.041 7.041 0 0 1 4.976-2.061h50.263v9.845Z" fill="#E6E6E6"/><path d="M639.844 403.514a1.146 1.146 0 0 1-1.146-.905l-16.044-77.332h-27.962l-16.044 77.332a1.172 1.172 0 0 1-2.123.409 1.165 1.165 0 0 1-.169-.879l16.25-78.238c.053-.262.197-.498.407-.665a1.14 1.14 0 0 1 .739-.251h29.796a1.141 1.141 0 0 1 1.146.916l16.239 78.238a1.15 1.15 0 0 1-.883 1.352.84.84 0 0 1-.206.023Z" fill="#E6E6E6"/><path d="M622.413 403.514a.799.799 0 0 1-.229 0 1.145 1.145 0 0 1-.894-1.352l16.25-78.238c.054-.262.198-.498.407-.666.21-.167.471-.256.739-.251h29.796a1.148 1.148 0 0 1 1.146.917l16.239 78.238a1.166 1.166 0 0 1-.911 1.381 1.186 1.186 0 0 1-.879-.17 1.173 1.173 0 0 1-.502-.741l-16.044-77.333h-27.985l-16.044 77.333a1.149 1.149 0 0 1-1.089.882Z" fill="#E6E6E6"/><path d="M466.5 453.984c122.717 0 222.198-5.808 222.198-12.973 0-7.165-99.481-12.973-222.198-12.973-122.717 0-222.198 5.808-222.198 12.973 0 7.165 99.481 12.973 222.198 12.973Z" fill="#F5F5F5"/><path d="M486.108 430.422a1.56 1.56 0 0 1-1.524-1.249l-21.774-107.22h-37.921l-21.774 107.22a1.56 1.56 0 0 1-3.049-.619l22.026-108.469a1.574 1.574 0 0 1 1.525-1.249h40.453a1.563 1.563 0 0 1 1.525 1.249l22.037 108.469a1.56 1.56 0 0 1-1.215 1.834l-.309.034Z" fill="#407BFF"/><path d="M425.244 430.422a1.566 1.566 0 0 1-.982-.356 1.563 1.563 0 0 1-.542-.893l-21.774-107.22h-37.921l-21.774 107.22a1.561 1.561 0 0 1-2.871.608 1.552 1.552 0 0 1-.178-1.227l22.038-108.469a1.557 1.557 0 0 1 1.524-1.249h40.454a1.545 1.545 0 0 1 1.513 1.249l22.037 108.469a1.56 1.56 0 0 1-1.215 1.834l-.309.034Z" fill="#407BFF"/><path d="M433.759 320.406h-69.677a24.435 24.435 0 0 1-24.433-23.94l-2.59-105.89a17.81 17.81 0 0 1 5.078-12.819 17.801 17.801 0 0 1 12.708-5.345h43.686a17.812 17.812 0 0 1 17.683 15.791l17.545 132.203Z" fill="#407BFF"/><path d="M395.757 306.998h68.187a9.55 9.55 0 0 1 9.547 9.546v.332a3.44 3.44 0 0 1-3.438 3.438h-74.296v-13.316Z" fill="#407BFF"/><g opacity=".3" fill="#191919"><path d="M486.108 430.422a1.56 1.56 0 0 1-1.524-1.249l-21.774-107.22h-37.921l-21.774 107.22a1.56 1.56 0 0 1-3.049-.619l22.026-108.469a1.574 1.574 0 0 1 1.525-1.249h40.453a1.563 1.563 0 0 1 1.525 1.249l22.037 108.469a1.56 1.56 0 0 1-1.215 1.834l-.309.034Z"/><path d="M425.244 430.422a1.566 1.566 0 0 1-.982-.356 1.563 1.563 0 0 1-.542-.893l-21.774-107.22h-37.921l-21.774 107.22a1.561 1.561 0 0 1-2.871.608 1.552 1.552 0 0 1-.178-1.227l22.038-108.469a1.557 1.557 0 0 1 1.524-1.249h40.454a1.545 1.545 0 0 1 1.513 1.249l22.037 108.469a1.56 1.56 0 0 1-1.215 1.834l-.309.034Z"/><path d="M433.759 320.406h-69.677a24.435 24.435 0 0 1-24.433-23.94l-2.59-105.89a17.81 17.81 0 0 1 5.078-12.819 17.801 17.801 0 0 1 12.708-5.345h43.686a17.812 17.812 0 0 1 17.683 15.791l17.545 132.203Z"/><path d="M395.757 306.998h68.187a9.55 9.55 0 0 1 9.547 9.546v.332a3.44 3.44 0 0 1-3.438 3.438h-74.296v-13.316Z"/></g><path d="M414.368 166.567s9.741 12.721 3.438 38.047c-6.303 25.327-38.826 11.575-40.797-11.254-2.292-26.908 27.916-8.354 33.234-32.282l4.125 5.489Z" fill="#263238"/><path d="M407.298 159.015c-4.229 2.979-5.902 7.311-1.227 11.552 4.676 4.24 11.346 4.102 13.363 2.36 2.017-1.742 1.616-10.589 1.616-10.589l-13.752-3.323Z" fill="#407BFF"/><path opacity=".8" d="M407.298 159.015c-4.229 2.979-5.902 7.311-1.227 11.552 4.676 4.24 11.346 4.102 13.363 2.36 2.017-1.742 1.616-10.589 1.616-10.589l-13.752-3.323Z" fill="#fff"/><path d="M460.701 215.387c.115.515.31 1.318.493 1.994l.55 2.154c.39 1.444.814 2.888 1.261 4.332.848 2.911 1.787 5.81 2.773 8.71.986 2.899 1.994 5.73 3.094 8.663.539 1.433 1.077 2.877 1.65 4.309l.665 1.719c.133.294.307.568.516.814a15.196 15.196 0 0 0 5.81 3.667 53.4 53.4 0 0 0 8.251 2.567c2.911.676 5.902 1.238 8.928 1.708 3.025.47 6.131.848 9.11 1.146l.103 6.165a95.597 95.597 0 0 1-19.665 0 57.88 57.88 0 0 1-10.096-1.959 33.966 33.966 0 0 1-5.203-2.052 19.946 19.946 0 0 1-5.226-3.678 14.488 14.488 0 0 1-2.292-2.969c-.172-.275-.321-.584-.481-.871l-.298-.618-.527-1.146c-.711-1.456-1.421-2.911-2.074-4.39-1.33-2.956-2.625-5.936-3.782-8.973-1.158-3.037-2.292-6.096-3.255-9.168-.47-1.581-.928-3.151-1.352-4.767l-.631-2.418c-.183-.871-.355-1.593-.538-2.624l12.216-2.315Z" fill="#E58A7B"/><path d="M456.805 202.368c4.916 1.249 8.343 21.465 8.343 21.465l-13.535 9.168s-12.984-20.399-9.168-25.797c3.908-5.546 7.186-6.624 14.36-4.836Z" fill="#407BFF"/><path opacity=".5" d="M456.805 202.368c4.916 1.249 8.343 21.465 8.343 21.465l-13.535 9.168s-12.984-20.399-9.168-25.797c3.908-5.546 7.186-6.624 14.36-4.836Z" fill="#fff"/><path opacity=".2" d="m455.04 207.456-11.769 9.329a103.88 103.88 0 0 0 8.331 16.296l9.386-6.383-5.948-19.242Z" fill="#407BFF"/><path d="M456.805 202.368s5.73 1.994-5.73 71.934h-48.384c.813-19.699.836-31.847-8.572-72.289a143.426 143.426 0 0 1 20.547-2.705 154.617 154.617 0 0 1 21.992 0c9.443.906 20.147 3.06 20.147 3.06Z" fill="#407BFF"/><path opacity=".5" d="M456.805 202.368s5.73 1.994-5.73 71.934h-48.384c.813-19.699.836-31.847-8.572-72.289a143.426 143.426 0 0 1 20.547-2.705 154.617 154.617 0 0 1 21.992 0c9.443.906 20.147 3.06 20.147 3.06Z" fill="#fff"/><path d="m502.026 257.112 8.446-8.572 1.146 12.079s-6.337 4.286-10.715 1.983l1.123-5.49Z" fill="#E58A7B"/><path d="m520.442 247.268.378 10.154-9.213 3.197-1.112-12.079 9.947-1.272ZM505.991 419.306h11.919l1.833-27.607h-11.918l-1.834 27.607ZM459.865 419.306h11.918l3.828-27.607h-11.919l-3.827 27.607Z" fill="#E58A7B"/><path d="M472.528 417.919h-13.397a.936.936 0 0 0-.951.814l-1.524 10.6a1.923 1.923 0 0 0 1.914 2.12c4.664-.08 6.876-.355 12.801-.355 3.621 0 12.915.378 17.923.378 5.008 0 5.272-4.95 3.186-5.397-9.34-2.017-14.818-4.779-17.969-7.426a3.057 3.057 0 0 0-1.983-.734ZM518.838 417.919h-13.374a.952.952 0 0 0-.951.814l-1.524 10.6a1.923 1.923 0 0 0 1.913 2.12c4.665-.08 6.876-.355 12.801-.355 3.633 0 11.116.378 16.124.378 5.009 0 5.272-4.95 3.186-5.397-9.34-2.017-13.018-4.779-16.158-7.426a3.104 3.104 0 0 0-2.017-.734ZM447.304 150.477c4.287.275 6.464 21.774-6.108 20.525-12.571-1.249 6.108-20.525 6.108-20.525Z" fill="#263238"/><path d="m519.743 391.699-.951 14.233h-11.918l.939-14.233h11.93ZM463.692 391.699h11.93l-1.982 14.233h-11.93l1.982-14.233Z" fill="#CF6F64"/><path opacity=".2" d="M398.955 224.497a268.229 268.229 0 0 1 2.578 15.494l2.831-21.9-5.409 6.406Z" fill="#407BFF"/><path d="M416.844 174.6c1.386 7.071 2.773 20.033-2.178 24.754 0 0 1.937 7.174 15.082 7.174 14.451 0 6.876-7.174 6.876-7.174-7.896-1.879-7.69-7.735-6.315-13.225L416.844 174.6Z" fill="#E58A7B"/><path d="m427.135 208.064 4.401-1.582-.585-1.203-3.816 2.785ZM435.673 207.147l-4.137-.665.893-1.341 3.244 2.006Z" fill="#263238"/><path d="m416.271 196.019-2.991 2.911a.49.49 0 0 0 0 .688l12.606 14.359a14.185 14.185 0 0 1 5.134-8.641c-10.429-3.942-13.145-8.022-14.073-9.168a.405.405 0 0 0-.295-.268.404.404 0 0 0-.381.119ZM434.286 198.22l3.713 1.008a.655.655 0 0 1 .458.47 27.738 27.738 0 0 1-.573 14.222c-.527-1.948-2.292-6.613-5.455-8.779 3.438-2.372 2.052-5.432 1.559-6.589a.249.249 0 0 1 .049-.256.247.247 0 0 1 .249-.076Z" fill="#407BFF"/><path d="m422.356 179.299 8.022 6.819a23.824 23.824 0 0 0-.676 3.896c-3.014-.435-7.151-3.736-7.472-6.876a10.416 10.416 0 0 1 .126-3.839Z" fill="#CF6F64"/><path d="M416.076 155.966c-1.364 11.747-2.2 16.698 2.613 23.711 7.22 10.555 21.957 9.661 26.805-1.444 4.366-9.993 5.856-27.504-4.687-34.196a16.133 16.133 0 0 0-24.731 11.929Z" fill="#E58A7B"/><path d="M442.938 136.565c-19.424-7.667-34.013.985-37.027 13.282-4.733 19.092 10.383 20.433 10.383 20.433l1.891-4.882c2.716 1.639 10.314.917 8.022-13.259-1.353-8.022 8.801 3.151 21.682 1.902 3.426-.332 8.114-12.319-4.951-17.476Z" fill="#263238"/><path d="M449.551 141.286c-2.556-3.931-7.782-7.3-18.611-8.893 0 0 5.626 1.272 7.449 5.387 1.822 4.114 14.244 8.239 11.162 3.506Z" fill="#263238"/><path d="M412.34 166.132a8.609 8.609 0 0 0 2.097 6.257c2.006 2.292 4.642.882 5.467-1.868.733-2.487.584-6.659-2.098-7.919-2.681-1.261-5.248.733-5.466 3.53Z" fill="#E58A7B"/><path d="M451.109 274.348s79.922 7.438 79.143 43.777c-.814 37.818-8.904 85.057-8.904 85.057h-16.514s-1.41-39.973-1.891-77.206c-.241-19.391-77.47-23.276-77.47-23.276l-9.97-28.352h35.606Z" fill="#263238"/><path d="M438.32 274.348s51.65 17.133 52.957 38.334c2.395 39.033-14.761 90.534-14.761 90.534h-16.262s.929-34.151 2.865-69.516c2.453-44.442-75.957-.619-60.428-59.317l35.629-.035ZM433.071 162.373c-.172.939.195 1.799.814 1.913.619.115 1.249-.573 1.421-1.512.172-.94-.195-1.811-.814-1.914-.619-.103-1.226.561-1.421 1.513ZM443.763 164.286c-.172.94.195 1.8.814 1.914.619.115 1.261-.573 1.433-1.512.171-.94-.195-1.811-.814-1.914-.619-.103-1.261.561-1.433 1.512Z" fill="#263238"/><path d="m444.909 162.774 2.395-.252s-1.432 1.57-2.395.252Z" fill="#263238"/><path d="M440.646 165.398a25.954 25.954 0 0 0 2.292 6.647 4.146 4.146 0 0 1-3.438 0l1.146-6.647Z" fill="#DF5753"/><path d="M435.558 175.105a8.103 8.103 0 0 1-5.936-4.298.181.181 0 0 1 .091-.24.196.196 0 0 1 .241.103 7.706 7.706 0 0 0 5.604 4.079.197.197 0 0 1 .149.218.18.18 0 0 1-.054.091.178.178 0 0 1-.095.047ZM430.561 158.144a.325.325 0 0 1-.263-.115.345.345 0 0 1 0-.504 5.38 5.38 0 0 1 4.744-1.444.368.368 0 0 1 .194.564.35.35 0 0 1-.104.095.344.344 0 0 1-.273.04 4.664 4.664 0 0 0-4.08 1.272.381.381 0 0 1-.218.092ZM449.608 160.023a.342.342 0 0 1-.332-.217 4.707 4.707 0 0 0-3.232-2.797.366.366 0 0 1-.298-.412.365.365 0 0 1 .424-.298 5.353 5.353 0 0 1 3.759 3.22.367.367 0 0 1-.184.481l-.137.023Z" fill="#263238"/><path d="M401.35 219.306c-1.043 3.438-2.166 6.876-3.163 10.406-.997 3.529-2.051 6.967-2.957 10.463-.905 3.495-1.765 6.956-2.406 10.314-.31 1.696-.596 3.38-.757 4.962-.091.79-.137 1.535-.149 2.223 0 .16 0 0-.114-.264a2.887 2.887 0 0 0-.573-.836c-.585-.504-.802-.413-.539-.333.48.117.974.167 1.467.149a25.004 25.004 0 0 0 4.584-.584 85.624 85.624 0 0 0 10.073-2.876c6.773-2.292 13.649-5.089 20.342-7.942l2.957 5.397a160.631 160.631 0 0 1-19.861 11.094 84.424 84.424 0 0 1-10.99 4.274 33.91 33.91 0 0 1-6.417 1.295c-1.359.14-2.73.105-4.08-.103a10.386 10.386 0 0 1-2.602-.745 8.995 8.995 0 0 1-2.865-1.971 9.314 9.314 0 0 1-2.555-6.188c-.057-1.146-.069-2.292 0-3.324.08-2.12.275-4.125.538-6.085a131.774 131.774 0 0 1 2.132-11.46 250.259 250.259 0 0 1 2.819-11.036c1.02-3.644 2.12-7.22 3.438-10.864l11.678 4.034Z" fill="#E58A7B"/><path d="M476.608 419.925a13.891 13.891 0 0 1-3.129-.436.198.198 0 0 1-.101-.053.208.208 0 0 1-.054-.101.194.194 0 0 1 .013-.114.194.194 0 0 1 .073-.087c.401-.264 3.977-2.579 5.341-1.971a.856.856 0 0 1 .504.733c.057.255.047.519-.03.768-.076.25-.216.475-.406.653a3.344 3.344 0 0 1-2.211.608Zm-2.579-.711c2.212.459 3.874.401 4.515-.195a1.134 1.134 0 0 0 .321-1.065.486.486 0 0 0-.286-.424c-.871-.39-3.289.905-4.55 1.684Z" fill="#407BFF"/><path d="M473.525 419.501h-.103a.206.206 0 0 1-.103-.184c0-.137 0-3.529 1.283-4.652a1.335 1.335 0 0 1 1.146-.356.893.893 0 0 1 .883.711c.24 1.238-1.754 3.77-3.003 4.481h-.103Zm2.017-4.836a.982.982 0 0 0-.676.275c-.906.802-1.089 3.071-1.146 3.976 1.146-.825 2.681-2.911 2.487-3.839 0-.149-.115-.344-.528-.401l-.137-.011ZM523.319 419.925a20.89 20.89 0 0 1-3.748-.424.219.219 0 0 1-.16-.172.203.203 0 0 1 .022-.123.203.203 0 0 1 .092-.084c.528-.275 5.238-2.681 6.67-1.902a.846.846 0 0 1 .436.688 1.467 1.467 0 0 1-.482 1.295 4.396 4.396 0 0 1-2.83.722Zm-3.083-.711c1.536.264 4.584.642 5.638-.298.132-.123.233-.275.294-.444.062-.17.083-.351.062-.53a.436.436 0 0 0-.23-.378c-.939-.504-4.102.837-5.764 1.65Z" fill="#407BFF"/><path d="M519.617 419.501a.201.201 0 0 1-.114 0 .242.242 0 0 1-.092-.184c0-.137.286-3.312 1.753-4.584a1.982 1.982 0 0 1 1.501-.458c.734.069.94.435.997.722.207 1.318-2.567 3.839-3.965 4.469l-.08.035Zm2.831-4.836a1.51 1.51 0 0 0-1.02.389c-1.077.894-1.456 3.037-1.57 3.897 1.501-.837 3.552-2.991 3.438-3.874 0-.092 0-.344-.631-.401l-.217-.011Z" fill="#407BFF"/><path d="m426.883 245.171 11.299-2.865-5.386 10.853s-7.644.332-10.165-3.931l4.252-4.057Z" fill="#E58A7B"/><path d="m447.316 246.42-4.997 8.847-9.523-2.108 5.386-10.853 9.134 4.114Z" fill="#E58A7B"/><path d="m434.206 160.86 2.395-.252s-1.478 1.57-2.395.252Z" fill="#263238"/><path d="m401.969 271.506-.39 4.332c-.16.344.229.688.791.688h48.98c.435 0 .791-.218.825-.493l.435-4.332c0-.298-.355-.55-.825-.55h-49.026a.89.89 0 0 0-.79.355Z" fill="#407BFF"/><path d="M408.558 276.996h-1.318c-.263 0-.458-.138-.447-.298l.619-5.639c0-.16.252-.298.516-.298h1.272c.264 0 .458.138.447.298l-.619 5.639c.012.16-.218.298-.47.298ZM447.66 276.996h-1.318c-.264 0-.459-.138-.447-.298l.619-5.639c0-.16.252-.298.515-.298h1.307c.263 0 .458.138.447.298l-.619 5.639c0 .16-.252.298-.504.298ZM428.109 276.996h-1.318c-.263 0-.458-.138-.447-.298l.619-5.639c0-.16.252-.298.516-.298h1.306c.264 0 .459.138.447.298l-.619 5.639c-.023.16-.24.298-.504.298Z" fill="#263238"/><path d="M394.119 202.059c-4.859 1.478-10.681 18.175-10.681 18.175l15.643 15.276s10.039-15.757 8.022-22.026c-2.143-6.532-7.449-13.099-12.984-11.425Z" fill="#407BFF"/><path opacity=".5" d="M394.119 202.059c-4.859 1.478-10.681 18.175-10.681 18.175l15.643 15.276s10.039-15.757 8.022-22.026c-2.143-6.532-7.449-13.099-12.984-11.425Z" fill="#fff"/><path d="M654.054 262.441h-91.175v177.344h91.175V262.441Z" fill="#407BFF"/><path opacity=".6" d="M654.054 262.441h-91.175v177.344h91.175V262.441Z" fill="#fff"/><path d="M477.421 262.441h-91.175v177.344h91.175V262.441Z" fill="#407BFF"/><path opacity=".6" d="M477.421 262.441h-91.175v177.344h91.175V262.441Z" fill="#fff"/><path d="M657.469 262.441h-7.517v177.344h7.517V262.441Z" fill="#407BFF"/><path opacity=".3" d="M657.469 262.441h-7.517v177.344h7.517V262.441Z" fill="#191919"/><path d="M478.51 275.746h181.286v-13.305H478.51v13.305Z" fill="#407BFF"/><path opacity=".3" d="M478.51 275.746h181.286v-13.305H478.51v13.305Z" fill="#191919"/><path d="M480.848 262.441h-7.518v177.344h7.518V262.441Z" fill="#407BFF"/><path opacity=".3" d="M480.848 262.441h-7.518v177.344h7.518V262.441Z" fill="#191919"/><path d="M478.075 304.866h175.636v-38.311H478.075v38.311Z" fill="#407BFF"/><path opacity=".3" d="M478.075 304.866h175.636v-38.311H478.075v38.311Z" fill="#191919"/><path d="M654.1 444.942h-50.619a12.973 12.973 0 0 1-12.961-12.961V272.274a11.46 11.46 0 0 0-11.46-11.46h-15.15v-1.146h15.139a12.605 12.605 0 0 1 12.606 12.606v159.707a11.827 11.827 0 0 0 11.815 11.815h50.63a4.096 4.096 0 0 0 3.892-2.807 4.092 4.092 0 0 0-1.451-4.573l.676-.917a5.234 5.234 0 0 1-.051 8.449 5.241 5.241 0 0 1-3.066.994Z" fill="#407BFF"/><path opacity=".3" d="M654.1 444.942h-50.619a12.973 12.973 0 0 1-12.961-12.961V272.274a11.46 11.46 0 0 0-11.46-11.46h-15.15v-1.146h15.139a12.605 12.605 0 0 1 12.606 12.606v159.707a11.827 11.827 0 0 0 11.815 11.815h50.63a4.096 4.096 0 0 0 3.892-2.807 4.092 4.092 0 0 0-1.451-4.573l.676-.917a5.234 5.234 0 0 1-.051 8.449 5.241 5.241 0 0 1-3.066.994Z" fill="#191919"/><path d="M661.48 314.768h-1.146v22.152h1.146v-22.152Z" fill="#407BFF"/><path opacity=".3" d="M661.48 314.768h-1.146v22.152h1.146v-22.152Z" fill="#191919"/><path d="M661.48 301.692h-1.146v5.821h1.146v-5.821Z" fill="#407BFF"/><path opacity=".3" d="M661.48 301.692h-1.146v5.821h1.146v-5.821Z" fill="#191919"/><path d="M577.547 209.496h-84.964l-12.308 50.172h84.953l12.319-50.172Z" fill="#407BFF"/><path opacity=".4" d="M577.547 209.496h-84.964l-12.308 50.172h84.953l12.319-50.172Z" fill="#fff"/><path d="m482.876 259.668-.343 2.773h-33.338l.344-2.773h33.337Z" fill="#407BFF"/><path opacity=".4" d="m482.876 259.668-.343 2.773h-33.338l.344-2.773h33.337Z" fill="#fff"/><path d="m567.841 259.668-.344 2.773h-84.964l.343-2.773h84.965Z" fill="#407BFF"/><path opacity=".5" d="m567.841 259.668-.344 2.773h-84.964l.343-2.773h84.965Z" fill="#191919"/><path d="M580.16 209.496h-84.964l-12.308 50.172h84.953l12.319-50.172Z" fill="#407BFF"/><path opacity=".5" d="M580.16 209.496h-84.964l-12.308 50.172h84.953l12.319-50.172Z" fill="#191919"/><path d="M612.97 249.801s-12.503-21.556 4.802-38.712c0 0 4.527 2.957 4.458 6.876-.069 3.919-4.848 4.974-3.828 8.274 1.02 3.301 5.547 6.567 2.579 9.306-2.968 2.739.481 5.168.275 8.515-.206 3.346-8.286 5.741-8.286 5.741Z" fill="#407BFF"/><path d="M613.921 251.772s5.066-24.398-16.8-35.205c0 0-3.369 4.229-2.051 8.022s6.165 3.186 6.234 6.658c.069 3.473-3.186 7.965.493 9.627 3.678 1.661 1.146 5.065 2.418 8.182 1.272 3.117 9.706 2.716 9.706 2.716Z" fill="#407BFF"/><path opacity=".5" d="M613.921 251.772s5.066-24.398-16.8-35.205c0 0-3.369 4.229-2.051 8.022s6.165 3.186 6.234 6.658c.069 3.473-3.186 7.965.493 9.627 3.678 1.661 1.146 5.065 2.418 8.182 1.272 3.117 9.706 2.716 9.706 2.716Z" fill="#191919"/><path d="M594.76 246.363s.424 16.044 16.365 16.044c15.941 0 16.354-16.044 16.354-16.044H594.76Z" fill="#407BFF"/><path opacity=".5" d="M594.76 246.363s.424 16.044 16.365 16.044c15.941 0 16.354-16.044 16.354-16.044H594.76Z" fill="#191919"/><path d="m509.074 147.24-13.615-17.591-13.614 17.591h6.406v22.771h14.417V147.24h6.406ZM549.012 167.926a32.09 32.09 0 0 1 32.088-32.088v8.354a23.698 23.698 0 0 0-16.773 6.941 23.709 23.709 0 0 0-6.949 16.77l-8.366.023Z" fill="#407BFF"/><path d="M549.012 167.926h8.366a23.722 23.722 0 0 0 23.722 23.722 23.477 23.477 0 0 0 11.85-3.186l4.194 7.3a32.093 32.093 0 0 1-32.089 0 32.093 32.093 0 0 1-16.043-27.791v-.045Z" fill="#407BFF"/><path opacity=".5" d="M549.012 167.926h8.366a23.722 23.722 0 0 0 23.722 23.722 23.477 23.477 0 0 0 11.85-3.186l4.194 7.3a32.093 32.093 0 0 1-32.089 0 32.093 32.093 0 0 1-16.043-27.791v-.045Z" fill="#fff"/><path d="M581.1 144.192v-8.377a32.09 32.09 0 0 1 31.12 23.792 32.09 32.09 0 0 1-15.076 36.155l-4.183-7.254a23.713 23.713 0 0 0 2.654-39.454 23.708 23.708 0 0 0-14.515-4.862Z" fill="#407BFF"/><path opacity=".7" d="M581.1 144.192v-8.377a32.09 32.09 0 0 1 31.12 23.792 32.09 32.09 0 0 1-15.076 36.155l-4.183-7.254a23.713 23.713 0 0 0 2.654-39.454 23.708 23.708 0 0 0-14.515-4.862Z" fill="#191919"/><path d="M550.972 89.184h-29.235a3.93 3.93 0 0 0-3.931 3.93v54.058a3.933 3.933 0 0 0 3.931 3.896h37.417a3.933 3.933 0 0 0 3.919-3.931v-45.84l-12.101-12.113Z" fill="#263238"/><path d="M549.253 145.693h-24.307c-.456 0-.893-.181-1.216-.503a1.722 1.722 0 0 1-.503-1.216 1.715 1.715 0 0 1 1.719-1.707h24.318a1.72 1.72 0 0 1 1.719 1.707 1.73 1.73 0 0 1-1.73 1.719ZM537.793 98.043h-12.847a1.718 1.718 0 0 1-1.719-1.708 1.72 1.72 0 0 1 1.719-1.719h12.858a1.721 1.721 0 0 1 1.719 1.719 1.705 1.705 0 0 1-.511 1.212 1.715 1.715 0 0 1-1.219.496ZM546.193 104.85h-21.247a1.718 1.718 0 0 1-1.719-1.708 1.718 1.718 0 0 1 1.719-1.719h21.258a1.718 1.718 0 0 1 1.204 2.931 1.724 1.724 0 0 1-1.215.496ZM555.957 111.657h-31.011a1.721 1.721 0 0 1-1.719-1.708 1.72 1.72 0 0 1 1.719-1.719h31.022a1.723 1.723 0 0 1 1.719 1.719 1.705 1.705 0 0 1-.135.657 1.726 1.726 0 0 1-1.595 1.051ZM555.957 118.464h-18.038a1.72 1.72 0 0 1-1.719-1.707c0-.456.181-.893.503-1.216.323-.322.76-.503 1.216-.503h18.038a1.718 1.718 0 0 1 1.719 1.719 1.72 1.72 0 0 1-1.719 1.707ZM529.645 118.464h-4.699a1.717 1.717 0 0 1-1.719-1.707c0-.456.181-.893.503-1.216.323-.322.76-.503 1.216-.503h4.71c.456 0 .893.181 1.216.503.322.323.503.76.503 1.216a1.708 1.708 0 0 1-.512 1.212 1.722 1.722 0 0 1-1.218.495ZM555.957 125.272h-31.011a1.723 1.723 0 0 1-1.719-1.719 1.717 1.717 0 0 1 1.719-1.708h31.022a1.72 1.72 0 0 1 1.719 1.708 1.72 1.72 0 0 1-1.73 1.719ZM543.981 132.079h-19.035a1.719 1.719 0 0 1-1.719-1.719 1.718 1.718 0 0 1 1.719-1.708h19.047a1.72 1.72 0 0 1 1.719 1.708 1.72 1.72 0 0 1-1.731 1.719ZM555.957 132.079h-5.088a1.722 1.722 0 0 1-1.708-1.719 1.71 1.71 0 0 1 1.708-1.708h5.088a1.718 1.718 0 0 1 1.719 1.708c0 .456-.181.893-.504 1.215a1.715 1.715 0 0 1-1.215.504ZM555.957 138.886h-31.011c-.456 0-.893-.181-1.216-.503a1.722 1.722 0 0 1-.503-1.216 1.718 1.718 0 0 1 1.719-1.708h31.022a1.72 1.72 0 0 1 1.719 1.708 1.725 1.725 0 0 1-.507 1.22 1.72 1.72 0 0 1-1.223.499Z" fill="#407BFF"/><path d="M549.253 145.693h-24.307c-.456 0-.893-.181-1.216-.503a1.722 1.722 0 0 1-.503-1.216 1.715 1.715 0 0 1 1.719-1.707h24.318a1.72 1.72 0 0 1 1.719 1.707 1.73 1.73 0 0 1-1.73 1.719ZM537.793 98.043h-12.847a1.718 1.718 0 0 1-1.719-1.708 1.72 1.72 0 0 1 1.719-1.719h12.858a1.721 1.721 0 0 1 1.719 1.719 1.705 1.705 0 0 1-.511 1.212 1.715 1.715 0 0 1-1.219.496ZM546.193 104.85h-21.247a1.718 1.718 0 0 1-1.719-1.708 1.718 1.718 0 0 1 1.719-1.719h21.258a1.718 1.718 0 0 1 1.204 2.931 1.724 1.724 0 0 1-1.215.496ZM555.957 111.657h-31.011a1.721 1.721 0 0 1-1.719-1.708 1.72 1.72 0 0 1 1.719-1.719h31.022a1.723 1.723 0 0 1 1.719 1.719 1.705 1.705 0 0 1-.135.657 1.726 1.726 0 0 1-1.595 1.051ZM555.957 118.464h-18.038a1.72 1.72 0 0 1-1.719-1.707c0-.456.181-.893.503-1.216.323-.322.76-.503 1.216-.503h18.038a1.718 1.718 0 0 1 1.719 1.719 1.72 1.72 0 0 1-1.719 1.707ZM529.645 118.464h-4.699a1.717 1.717 0 0 1-1.719-1.707c0-.456.181-.893.503-1.216.323-.322.76-.503 1.216-.503h4.71c.456 0 .893.181 1.216.503.322.323.503.76.503 1.216a1.708 1.708 0 0 1-.512 1.212 1.722 1.722 0 0 1-1.218.495ZM555.957 125.272h-31.011a1.723 1.723 0 0 1-1.719-1.719 1.717 1.717 0 0 1 1.719-1.708h31.022a1.72 1.72 0 0 1 1.719 1.708 1.72 1.72 0 0 1-1.73 1.719ZM543.981 132.079h-19.035a1.719 1.719 0 0 1-1.719-1.719 1.718 1.718 0 0 1 1.719-1.708h19.047a1.72 1.72 0 0 1 1.719 1.708 1.72 1.72 0 0 1-1.731 1.719ZM555.957 132.079h-5.088a1.722 1.722 0 0 1-1.708-1.719 1.71 1.71 0 0 1 1.708-1.708h5.088a1.718 1.718 0 0 1 1.719 1.708c0 .456-.181.893-.504 1.215a1.715 1.715 0 0 1-1.215.504ZM555.957 138.886h-31.011c-.456 0-.893-.181-1.216-.503a1.722 1.722 0 0 1-.503-1.216 1.718 1.718 0 0 1 1.719-1.708h31.022a1.72 1.72 0 0 1 1.719 1.708 1.725 1.725 0 0 1-.507 1.22 1.72 1.72 0 0 1-1.223.499Z" fill="#fff" opacity=".5"/><path d="M550.972 89.184v8.182a3.91 3.91 0 0 0 1.148 2.783 3.908 3.908 0 0 0 2.782 1.148h8.171l-12.101-12.113Z" fill="#407BFF"/><path opacity=".5" d="M550.972 89.184v8.182a3.91 3.91 0 0 0 1.148 2.783 3.908 3.908 0 0 0 2.782 1.148h8.171l-12.101-12.113Z" fill="#fff"/></g><defs><linearGradient id="b" x1="60.756" y1="157.808" x2="701.117" y2="415.207" gradientUnits="userSpaceOnUse"><stop stop-color="#E1ECFD"/><stop offset="1" stop-color="#F5F7FF"/></linearGradient><clipPath id="a"><path fill="#fff" d="M0 0h734v537H0z"/></clipPath></defs></svg>