<svg width="80" height="80" viewBox="0 0 80 80" fill="none" xmlns="http://www.w3.org/2000/svg">
<circle cx="40" cy="40" r="40" fill="#FBEBDE"/>
<path d="M33.75 36.75L38.75 25.5C39.7446 25.5 40.6984 25.8951 41.4017 26.5983C42.1049 27.3016 42.5 28.2554 42.5 29.25V34.25H49.575C49.9374 34.2459 50.2963 34.3206 50.627 34.469C50.9576 34.6174 51.252 34.8359 51.4898 35.1094C51.7276 35.3829 51.9031 35.7048 52.0042 36.0528C52.1052 36.4009 52.1294 36.7667 52.075 37.125L50.35 48.375C50.2596 48.9711 49.9568 49.5145 49.4974 49.905C49.038 50.2955 48.4529 50.5068 47.85 50.5H33.75M33.75 36.75V50.5M33.75 36.75H30C29.337 36.75 28.7011 37.0134 28.2322 37.4822C27.7634 37.9511 27.5 38.587 27.5 39.25V48C27.5 48.663 27.7634 49.2989 28.2322 49.7678C28.7011 50.2366 29.337 50.5 30 50.5H33.75" stroke="#797979" stroke-width="2" stroke-linecap="round" stroke-linejoin="round"/>
</svg>
