<svg width="53" height="53" viewBox="0 0 53 53" fill="none" xmlns="http://www.w3.org/2000/svg">
<circle cx="26.5" cy="26.5" r="26.5" fill="#FBEBDE"/>
<path d="M36 25.5C36.0034 26.8199 35.6951 28.1219 35.1 29.3C34.3944 30.7118 33.3098 31.8992 31.9674 32.7293C30.6251 33.5594 29.0782 33.9994 27.5 34C26.1801 34.0035 24.8781 33.6951 23.7 33.1L18 35L19.9 29.3C19.3049 28.1219 18.9966 26.8199 19 25.5C19.0006 23.9218 19.4406 22.3749 20.2707 21.0326C21.1008 19.6903 22.2883 18.6056 23.7 17.9C24.8781 17.305 26.1801 16.9966 27.5 17H28C30.0843 17.115 32.053 17.9948 33.5291 19.4709C35.0052 20.947 35.885 22.9157 36 25V25.5Z" stroke="#797979" stroke-width="2" stroke-linecap="round" stroke-linejoin="round"/>
</svg>
