<svg width="53" height="53" viewBox="0 0 53 53" fill="none" xmlns="http://www.w3.org/2000/svg">
<circle cx="26.5" cy="26.5" r="26.5" fill="#FBEBDE"/>
<path d="M37 26.08V27C36.9988 29.1564 36.3005 31.2547 35.0093 32.9818C33.7182 34.709 31.9033 35.9725 29.8354 36.5839C27.7674 37.1953 25.5573 37.1219 23.5345 36.3746C21.5117 35.6273 19.7847 34.2461 18.611 32.4371C17.4373 30.628 16.8798 28.4881 17.0217 26.3363C17.1636 24.1846 17.9972 22.1363 19.3983 20.4971C20.7994 18.8578 22.6928 17.7154 24.7962 17.2401C26.8996 16.7649 29.1003 16.9823 31.07 17.86" stroke="#797979" stroke-width="2" stroke-linecap="round" stroke-linejoin="round"/>
<path d="M37 19L27 29.01L24 26.01" stroke="#797979" stroke-width="2" stroke-linecap="round" stroke-linejoin="round"/>
</svg>
