<svg width="796" height="706" fill="none" xmlns="http://www.w3.org/2000/svg"><g clip-path="url(#a)"><g clip-path="url(#b)"><path fill-rule="evenodd" clip-rule="evenodd" d="M568.787 30.065C656.106 59.798 763.856 105.14 776.52 196.52c12.577 90.751-113.091 132.742-154.975 214.233-45.504 88.534-.912 237.507-94.552 271.257-92.304 33.268-157.18-97.609-239.603-150.82-72.959-47.1-168.221-61.838-208.767-138.638-48.546-91.953-87.13-217.849-22.416-299.253 63.994-80.496 191.687-29.446 293.736-42.035 75.616-9.328 146.725-45.757 218.844-21.2Z" fill="#F5F7FF"/><path d="M608.625 422.19h-39.733v.3h39.733v-.3ZM466.248 425.453h-10.425v.3h10.425v-.3ZM567.692 411.057H544.67v.3h23.022v-.3ZM183.64 413.072h-51.814v.3h51.814v-.3ZM201.923 413.072h-7.594v.3h7.594v-.3ZM338.997 418.135H226.612v.3h112.385v-.3ZM668.728 402.887H68.892v.3h599.836v-.3Z" fill="#EBEBEB"/><path d="M544.322 340.672h30.292a9.848 9.848 0 0 0 9.861-9.85v-44.279a1.798 1.798 0 0 0-3.072-1.273 1.802 1.802 0 0 0-.527 1.273v44.279a6.263 6.263 0 0 1-6.262 6.251h-30.292v3.599Z" fill="#E0E0E0"/><path d="M535.661 383.128v-41.244l-2.4-.768a6.541 6.541 0 0 1-4.582-6.238h22.841a6.532 6.532 0 0 1-4.582 6.238l-2.4.768v41.244l18.979 8.482v3.599l-23.429-8.182-23.418 8.182v-3.599l18.991-8.482Z" fill="#E0E0E0"/><path d="M510.216 337.073h59.756a6.49 6.49 0 0 0 6.49-6.478 6.493 6.493 0 0 0-6.49-6.491h-59.756a6.49 6.49 0 0 0-6.49 6.491 6.487 6.487 0 0 0 6.49 6.478Z" fill="#F0F0F0"/><path d="m580.516 302.126 3.227-46.079a6.49 6.49 0 0 0-5.998-6.922 6.478 6.478 0 0 0-6.91 5.998l-3.227 46.116a6.48 6.48 0 0 0 5.998 6.922 6.49 6.49 0 0 0 6.91-6.035Z" fill="#EBEBEB"/><path d="M559.426 397.788a4.1 4.1 0 0 0 2.536 3.792 4.106 4.106 0 0 0 4.473-.895 4.105 4.105 0 0 0-.635-6.314 4.1 4.1 0 0 0-5.176.52 4.105 4.105 0 0 0-1.198 2.897ZM512.567 397.788a4.105 4.105 0 0 0 8.127.801 4.103 4.103 0 1 0-8.127-.801ZM189.171 340.672h-30.304a9.844 9.844 0 0 1-6.972-2.881 9.855 9.855 0 0 1-2.889-6.969v-44.279a1.798 1.798 0 0 1 3.072-1.273c.337.338.527.795.527 1.273v44.279a6.263 6.263 0 0 0 6.262 6.251h30.292l.012 3.599Z" fill="#E0E0E0"/><path d="M197.832 383.128v-41.244l2.4-.768a6.548 6.548 0 0 0 3.314-2.368 6.546 6.546 0 0 0 1.269-3.87h-22.794a6.532 6.532 0 0 0 4.583 6.238l2.399.768v41.244l-19.027 8.482v3.599l23.43-8.182 23.429 8.182v-3.599l-19.003-8.482Z" fill="#E0E0E0"/><path d="M223.277 337.073h-59.755a6.492 6.492 0 0 1-6.491-6.478 6.493 6.493 0 0 1 6.491-6.491h59.755a6.491 6.491 0 0 1 6.491 6.491 6.492 6.492 0 0 1-6.491 6.478Z" fill="#F0F0F0"/><path d="m152.977 302.126-3.228-46.079a6.492 6.492 0 0 1 5.999-6.922 6.478 6.478 0 0 1 6.91 5.998l3.227 46.116a6.48 6.48 0 0 1-5.998 6.922 6.492 6.492 0 0 1-6.91-6.035Z" fill="#EBEBEB"/><path d="M174.067 397.788a4.1 4.1 0 0 1-2.536 3.792 4.106 4.106 0 0 1-4.473-.895 4.105 4.105 0 0 1 .635-6.314 4.1 4.1 0 0 1 5.176.52 4.105 4.105 0 0 1 1.198 2.897ZM220.925 397.788a4.099 4.099 0 0 1-2.535 3.792 4.106 4.106 0 0 1-4.473-.895 4.105 4.105 0 0 1 .635-6.314 4.1 4.1 0 0 1 5.176.52 4.104 4.104 0 0 1 1.197 2.897Z" fill="#E0E0E0"/><path d="M317.907 403.235h-23.406l-2.399-44.364h28.204l-2.399 44.364Z" fill="#EBEBEB"/><path d="M299.9 403.235h-9.597v-1.967l9.597-1.2v3.167ZM295.629 355.272h21.066a3.598 3.598 0 0 1 3.599 3.599h-28.192a3.598 3.598 0 0 1 3.599-3.599h-.072ZM269.908 288.186h-37.442v-4.487l37.442-2.399v6.886Z" fill="#E0E0E0"/><path d="M325.297 292.757H214.531v15.332h110.766v-15.332Z" fill="#F0F0F0"/><path d="M348.259 288.186H191.965v9.142h156.294v-9.142Z" fill="#FAFAFA"/><path d="M333.743 403.235h7.054l-12.213-105.907h-8.278l13.437 105.907ZM219.918 297.328h-8.278l-12.225 105.907h7.066l13.437-105.907Z" fill="#E6E6E6"/><path d="m307.842 285.907-9.598-47.675c-.468-2.28-3.935-1.308-3.479.948l9.142 45.407h-19.795a1.8 1.8 0 0 0 0 3.599h21.99a1.83 1.83 0 0 0 1.418-.721 1.841 1.841 0 0 0 .322-1.558Z" fill="#E0E0E0"/><path d="m285.432 273.118 6.166-88.164a16.38 16.38 0 0 1 6.802 14.468l-4.211 60.32a16.399 16.399 0 0 1-8.757 13.376Z" fill="#FAFAFA"/><path d="M333.479 262.561H323.45a3.48 3.48 0 0 0-3.48 3.479v18.667a3.48 3.48 0 0 0 3.48 3.479h10.029a3.479 3.479 0 0 0 3.479-3.479V266.04a3.48 3.48 0 0 0-3.479-3.479Z" fill="#F5F5F5"/><path d="M326.689 253.012c-2.652 0-4.799.659-4.799 1.475 0 .816 2.159-.288 4.799-.288h1.019v5.819h1.512v-5.591c1.368.264 2.267.528 2.267 0 0-.78-2.147-1.415-4.798-1.415Z" fill="#E0E0E0"/><path d="M331.163 258.17h-5.41v5.411h5.41v-5.411ZM408.195 308.089h110.766v-15.332H408.195v15.332Z" fill="#F0F0F0"/><path d="M385.246 297.328h156.293v-9.142H385.246v9.142Z" fill="#FAFAFA"/><path d="M399.749 403.235h-7.054l12.212-105.907h8.278l-13.436 105.907ZM513.587 297.328h8.265l12.225 105.907h-7.066l-13.424-105.907Z" fill="#E6E6E6"/><path d="M487.002 288.186h37.442v-4.487l-37.442-2.399v6.886Z" fill="#E0E0E0"/><path d="M411.674 207.712v80.474h5.194l1.2-7.198a5.447 5.447 0 0 1 5.362-4.511h48.431a5.449 5.449 0 0 1 5.363 4.511l1.199 7.198h5.195v-80.474h-71.944Z" fill="#F5F5F5"/><path d="m434.948 285.907 9.597-47.675c.468-2.28 3.935-1.308 3.479.948l-9.141 45.407h19.794a1.802 1.802 0 0 1 1.8 1.8 1.8 1.8 0 0 1-1.8 1.799h-21.99a1.834 1.834 0 0 1-1.739-2.279Z" fill="#E0E0E0"/><path d="m457.358 273.118-6.166-88.164a16.38 16.38 0 0 0-6.802 14.468l4.211 60.32a16.381 16.381 0 0 0 8.757 13.376Z" fill="#E0E0E0"/><path d="M330.012 121.612H133.47v119.763h196.542V121.612Z" fill="#EBEBEB"/><path d="M331.476 121.564h-1.44v119.763h1.44V121.564ZM140.608 126.806h-1.188v107.767h1.188V126.806Z" fill="#E0E0E0"/><path d="M323.606 126.806H139.3v107.767h184.306V126.806Z" fill="#fff"/><path d="M204.586 174.277v5.135h11.973v-5.135h-11.973ZM206.925 212.919v3.995h11.973v-3.995h-11.973Z" fill="#F5F5F5"/><path d="M208.869 172.598h-38.893v54.657h38.893v-54.657Z" fill="#F0F0F0"/><path d="M204.238 221.748v3.995h11.973v-3.995h-11.973ZM206.229 185.206v3.995h11.973v-3.995h-11.973ZM203.602 195.127v3.995h11.973v-3.995h-11.973Z" fill="#F5F5F5"/><path d="M201.071 179.316h-26.513v4.703h26.513v-4.703ZM201.491 199.411h-26.513l-.42-2.136h26.501l.432 2.136ZM183.964 188.721h-9.406v4.703h9.406v-4.703Z" fill="#E6E6E6"/><path d="M264.066 162.724h-15.188v21.81h15.188v-21.81ZM163.366 197.287h-15.188v21.81h15.188v-21.81ZM165.429 134.616h-15.188v15.188h15.188v-15.188ZM237.433 204.245h-15.188v15.188h15.188v-15.188ZM312.029 164.608h-38.894v54.657h38.894v-54.657Z" fill="#F5F5F5"/><path d="M306.402 172.514h-27.94v.599h27.94v-.599Z" fill="#E0E0E0"/><path d="M292.726 173.102h-.6v40.477h.6v-40.477ZM305.562 173.102h-.599v40.477h.599v-40.477ZM281.329 173.102h-.6v40.477h.6v-40.477ZM279.325 173.102h-.599v40.477h.599v-40.477Z" fill="#E0E0E0"/><path d="M304.963 175.237h-25.937v.6h25.937v-.6Z" fill="#E0E0E0"/></g><path d="M363.027 452.445c128.464 0 232.604-6.08 232.604-13.58s-104.14-13.58-232.604-13.58-232.605 6.08-232.605 13.58 104.141 13.58 232.605 13.58Z" fill="#F5F5F5"/><path d="M399.041 190.149a26.672 26.672 0 0 1-26.633 26.669h-9.693v25.409h-26.297v10.425a26.671 26.671 0 0 1-26.663 26.103 26.67 26.67 0 0 1-26.662-26.103v-10.425h-24.558v-25.409h-11.157a26.665 26.665 0 0 1-18.857-7.812 26.668 26.668 0 0 1 18.857-45.526h11.157v-25.409h25.409v11.205a26.676 26.676 0 0 0 7.607 19.222 26.664 26.664 0 0 0 38.113 0 26.663 26.663 0 0 0 7.606-19.222v-11.157h25.409v25.409h9.729a26.67 26.67 0 0 1 26.633 26.621Z" fill="#407BFF"/><path d="M399.041 190.149a26.672 26.672 0 0 1-26.633 26.669h-9.693v25.409h-26.297v10.425a26.671 26.671 0 0 1-26.663 26.103 26.67 26.67 0 0 1-26.662-26.103v-10.425h-24.558v-25.409h-11.157a26.665 26.665 0 0 1-18.857-7.812 26.668 26.668 0 0 1 18.857-45.526h11.157v-25.409h25.409v11.205a26.676 26.676 0 0 0 7.607 19.222 26.664 26.664 0 0 0 38.113 0 26.663 26.663 0 0 0 7.606-19.222v-11.157h25.409v25.409h9.729a26.67 26.67 0 0 1 26.633 26.621Z" fill="#fff" opacity=".5"/><path d="M372.504 216.685h-11.157v25.41h104.156v-25.41h9.681a26.666 26.666 0 0 0 26.669-26.668 26.67 26.67 0 0 0-26.669-26.669h-9.681v-25.409h-25.409v-11.157a26.672 26.672 0 0 0-26.669-26.669 26.668 26.668 0 0 0-26.669 26.669v11.157h-25.409v25.409h11.157a26.67 26.67 0 0 1 26.669 26.669 26.668 26.668 0 0 1-26.669 26.668Z" fill="#407BFF"/><path d="M372.504 216.685h-11.157v25.41h104.156v-25.41h9.681a26.666 26.666 0 0 0 26.669-26.668 26.67 26.67 0 0 0-26.669-26.669h-9.681v-25.409h-25.409v-11.157a26.672 26.672 0 0 0-26.669-26.669 26.668 26.668 0 0 0-26.669 26.669v11.157h-25.409v25.409h11.157a26.67 26.67 0 0 1 26.669 26.669 26.668 26.668 0 0 1-26.669 26.668Z" fill="#fff" opacity=".3"/><path d="m378.863 126.158-2.243-.564a33.676 33.676 0 0 1-7.019-2.267l-.3-.144c-2.207-1.068-4.966-2.399-5.554-7.042a1.261 1.261 0 0 0-1.068-1.2c-20.562-.995-27.724-11.876-27.736-23.993 0-11.877 7.81-23.094 29.992-23.358 20.562-.252 30.855 12.405 30.231 25.445-.407 8.326-6.934 19.735-19.35 22.326-1.524.516-4.235.612-5.183 1.98a2.064 2.064 0 0 0 0 2.219 8.128 8.128 0 0 0 1.62 1.812c2.207 1.895 6.61 4.786 6.61 4.786Z" fill="#fff"/><path d="M378.863 126.758h-.144l-2.243-.552a34.64 34.64 0 0 1-7.139-2.315l-.287-.144c-2.22-1.068-5.267-2.531-5.891-7.51 0-.108-.108-.696-.516-.72-24.605-1.199-28.288-15.895-28.3-24.545 0-7.09 2.963-23.622 30.592-23.993 13.04-.132 20.394 4.654 24.329 8.733a23.15 23.15 0 0 1 6.514 17.347 25.433 25.433 0 0 1-19.77 22.89c-.503.162-1.016.29-1.536.384-1.284.264-2.735.564-3.275 1.356a1.44 1.44 0 0 0 0 1.547c.414.631.92 1.197 1.5 1.68 2.147 1.847 6.502 4.702 6.55 4.738a.592.592 0 0 1 .216.732.6.6 0 0 1-.6.372Zm-13.305-58.58h-.611c-26.561.324-29.416 16.016-29.404 22.794 0 8.23 3.539 22.206 27.16 23.346a1.835 1.835 0 0 1 1.644 1.775c.552 4.319 3.023 5.519 5.218 6.574l.3.144a29.188 29.188 0 0 0 5.903 1.98c-1.332-.924-2.856-2.04-3.899-2.939a8.597 8.597 0 0 1-1.728-1.956 2.594 2.594 0 0 1 0-2.867c.804-1.2 2.508-1.536 4.019-1.848.54-.12 1.068-.228 1.464-.36a24.224 24.224 0 0 0 18.943-21.786 21.956 21.956 0 0 0-6.179-16.46c-3.695-3.862-10.653-8.397-22.83-8.397Z" fill="#407BFF"/><path d="M354.413 121.12c1.428-1.62 2.1-3.239 1.74-4.727-.744-3.131-3.515-3.083-5.303-3.683-12.416-2.603-18.942-11.601-19.35-19.927-.624-13.04 9.669-25.709 30.231-25.457 22.194.276 29.992 11.493 29.992 23.358 0 12.081-7.198 22.962-27.736 23.993-.684 0-.996.66-1.08 1.2-.576 4.643-3.335 5.998-5.542 7.042l-.3.144a34.428 34.428 0 0 1-7.018 2.267l-2.244.552s4.655-2.579 6.61-4.762Z" fill="#fff"/><path d="M347.767 126.482a.594.594 0 0 1-.3-1.115s4.631-2.58 6.455-4.655c1.355-1.56 1.895-2.963 1.607-4.187-.516-2.171-2.087-2.543-3.743-2.939-.408-.096-.816-.192-1.2-.312-13.076-2.735-19.362-12.261-19.758-20.466a23.182 23.182 0 0 1 6.514-17.36c3.935-4.067 11.289-8.901 24.329-8.733 27.593.347 30.604 16.867 30.592 23.993 0 8.65-3.695 23.358-28.3 24.545-.408 0-.504.6-.516.72-.624 4.967-3.671 6.442-5.89 7.51l-.288.144a35.34 35.34 0 0 1-7.198 2.315l-2.256.552-.048-.012Zm13.305-58.568c-12.189 0-19.195 4.535-22.794 8.398a21.938 21.938 0 0 0-6.179 16.46c.372 7.749 6.359 16.795 18.871 19.362.396.132.768.216 1.2.312 1.656.396 3.935.936 4.619 3.815.384 1.632-.24 3.395-1.872 5.267a19.745 19.745 0 0 1-3.503 2.891 28.71 28.71 0 0 0 5.447-1.872l.3-.144c2.183-1.055 4.666-2.255 5.218-6.574a1.814 1.814 0 0 1 1.644-1.775c23.609-1.14 27.148-15.116 27.16-23.358 0-6.73-2.843-22.422-29.416-22.794l-.695.012Z" fill="#407BFF"/><path d="m354.881 91.872 5.231 5.23 11.817-9.573" fill="#fff"/><path d="M360.112 98.302a1.201 1.201 0 0 1-.852-.348l-5.231-5.23a1.206 1.206 0 0 1-.336-1.35 1.207 1.207 0 0 1 .679-.679 1.202 1.202 0 0 1 1.349.337l4.475 4.463 10.977-8.89a1.197 1.197 0 0 1 1.733.136c.102.126.178.271.223.428a1.198 1.198 0 0 1-.445 1.296l-11.816 9.597a1.201 1.201 0 0 1-.756.24ZM512.914 63.415a1.523 1.523 0 0 0 1.752-.54l9.093-12.692a1.49 1.49 0 0 0-.348-2.1 1.511 1.511 0 0 0-2.099.349l-9.094 12.692a1.49 1.49 0 0 0 .348 2.1c.106.08.224.144.348.191ZM523.663 80.127c.245.09.51.115.768.072l15.08-2.495a1.508 1.508 0 0 0 1.139-1.717 1.509 1.509 0 0 0-1.631-1.259l-15.08 2.496a1.515 1.515 0 0 0-1.246 1.346 1.51 1.51 0 0 0 .97 1.557ZM477.332 69.63a1.51 1.51 0 0 0 1.403-2.64l-13.076-9.369a1.5 1.5 0 0 0-1.752 2.4l13.077 9.369c.103.097.22.178.348.24ZM531.533 108.487a1.514 1.514 0 0 0 1.858-.703 1.51 1.51 0 0 0-.443-1.936l-12.296-8.818a1.515 1.515 0 0 0-2.356.886 1.522 1.522 0 0 0 .189 1.142c.105.17.242.316.403.431l12.297 8.806c.108.078.225.142.348.192ZM493.755 59.3a1.514 1.514 0 0 0 1.936-.881c.094-.247.121-.514.08-.774l-2.603-15.728a1.526 1.526 0 0 0-.582-1.056 1.514 1.514 0 0 0-2.183.36 1.504 1.504 0 0 0-.211 1.188l2.604 15.692a1.499 1.499 0 0 0 .959 1.2Z" fill="#407BFF"/><g opacity=".5" fill="#fff"><path d="M512.914 63.415a1.523 1.523 0 0 0 1.752-.54l9.093-12.692a1.49 1.49 0 0 0-.348-2.1 1.511 1.511 0 0 0-2.099.349l-9.094 12.692a1.49 1.49 0 0 0 .348 2.1c.106.08.224.144.348.191ZM523.663 80.127c.245.09.51.115.768.072l15.08-2.496a1.508 1.508 0 0 0 1.139-1.716 1.509 1.509 0 0 0-1.631-1.259l-15.08 2.496a1.514 1.514 0 0 0-1.246 1.346 1.51 1.51 0 0 0 .97 1.557ZM477.332 69.63a1.51 1.51 0 0 0 1.403-2.64l-13.076-9.369a1.5 1.5 0 0 0-1.752 2.4l13.077 9.369c.103.097.22.178.348.24ZM531.533 108.487a1.514 1.514 0 0 0 1.858-.703 1.51 1.51 0 0 0-.443-1.936l-12.296-8.818a1.515 1.515 0 0 0-2.356.886 1.522 1.522 0 0 0 .189 1.142c.105.17.242.316.403.431l12.297 8.806c.108.078.225.142.348.192ZM493.755 59.3a1.512 1.512 0 0 0 2.016-1.655l-2.604-15.728a1.509 1.509 0 0 0-1.751-1.35 1.51 1.51 0 0 0-1.224 1.842l2.603 15.692a1.5 1.5 0 0 0 .96 1.2Z"/></g><path d="M480.655 73.924a20.392 20.392 0 0 1 35.896 9.067 20.39 20.39 0 0 1-2.905 14.819c-4.799 6.61-13.281 7.27-20.395 10.101-2.207.876-6.478 7.018-6.478 7.018l-13.988-10.137s4.499-5.998 4.643-8.338c.468-7.642-1.56-15.92 3.227-22.53Z" fill="#407BFF"/><path opacity=".4" d="M480.655 73.924a20.392 20.392 0 0 1 35.896 9.067 20.39 20.39 0 0 1-2.905 14.819c-4.799 6.61-13.281 7.27-20.395 10.101-2.207.876-6.478 7.018-6.478 7.018l-13.988-10.137s4.499-5.998 4.643-8.338c.468-7.642-1.56-15.92 3.227-22.53Z" fill="#fff"/><path d="m473.181 112.65 5.998 4.319a4.953 4.953 0 0 0 6.922-1.104l-14-10.125a4.97 4.97 0 0 0 1.08 6.91ZM473.181 119.02a4.045 4.045 0 0 0 5.638-.9l-6.538-4.738a4.045 4.045 0 0 0 .9 5.638Z" fill="#263238"/><path opacity=".5" d="M473.181 119.02a4.045 4.045 0 0 0 5.638-.9l-6.538-4.738a4.045 4.045 0 0 0 .9 5.638Z" fill="#fff"/><path d="m473.181 112.65 5.998 4.319a4.953 4.953 0 0 0 6.922-1.104l-14-10.125a4.97 4.97 0 0 0 1.08 6.91Z" fill="#fff" opacity=".7"/><path opacity=".3" d="M484.818 72.269c-7.474 10.425-9.406 26.908-1.356 32.667 8.05 5.758 23.994-2.759 30.496-11.781 3.983-5.555.696-14.744-7.354-20.502-8.05-5.759-17.827-5.939-21.786-.384Z" fill="#fff"/><path opacity=".4" d="M482.67 86.09a11.555 11.555 0 0 0 4.608 17.259 11.551 11.551 0 0 0 15.588-14.589 11.552 11.552 0 0 0-20.196-2.67Z" fill="#fff"/><path opacity=".4" d="M483.846 90.492c-2.615 3.6-.456 6.862 3.191 9.477 3.647 2.616 7.378 3.599 9.993 0 2.616-3.599.408-6.814-3.227-9.429s-7.354-3.647-9.957-.048Z" fill="#fff"/><path d="m196.848 115.985 4.091 3.407 23.658-20.214 30.207 6.106 23.022-21.714 2.063 2.831 5.459-12.308-13.388 1.427 2.063 2.832-20.202 22.373-30.244-5.878-26.729 21.138Z" fill="#407BFF"/><path d="m196.848 115.985 4.091 3.407 23.658-20.214 30.207 6.106 23.022-21.714 2.063 2.831 5.459-12.308-13.388 1.427 2.063 2.832-20.202 22.373-30.244-5.878-26.729 21.138Z" fill="#fff" opacity=".3"/><path d="M420.515 292.901c.696 10.869-1.991 24.857-4.559 35.282-2.123 8.614-3.599 10.989-4.163 14.804-.611 4.343.708 10.797.372 16.256-1.283 21.594-10.065 65.262-10.065 65.262l-7.366-.468.192-84.541 4.799-81.914 29.068 7.75c2.903 15.908-8.278 27.569-8.278 27.569Z" fill="#DD8C6A"/><path d="m457.921 426.005-6.694-.192-18.583-82.538-18.787-79.862 30.124-.9c7.198 14.396-.108 28.792-.108 28.792 3.755 10.234 5.182 24.402 5.698 35.139.432 8.853-.348 11.565.228 15.368.672 4.342 2.783 10.113 4.043 15.475 4.943 21.282 4.079 68.718 4.079 68.718ZM359.812 189.573l3.503 4.607c3.491 1.079 3.419 6.274 3.419 6.274.756.588 7.858 5.075 9.513 6.526l-4.186 4.511c-1.812-2.771-8.11-7.462-8.11-7.462s-8.566-5.242-9.97-7.114c-1.403-1.871.936-7.438.936-7.438l4.895.096Z" fill="#DD8C6A"/><path d="M369.505 200.922c5.747 4.187 14.228 10.605 14.228 10.605a201.16 201.16 0 0 1 14.276-14.264 40.417 40.417 0 0 1 10.497-7.198l-1.475 17.263c-4.547 3.911-18.799 15.74-24.366 15.26-4.594-.396-13.124-10.245-17.995-16.339l4.835-5.327Z" fill="#263238"/><path opacity=".2" d="M392.983 218.029c3.035-5.122 11.361-18.571 11.361-18.571l1.991 4.523-1.344 4.967c-2.111 1.775-8.961 6.862-12.008 9.081Z" fill="#000"/><path d="M447.64 198.799a358.322 358.322 0 0 1-6.79 47.027s17.575 14.396 11.876 73.528c0 0-17.779 7.869-59.743-1.488l7.977-72.304s-1.847-46.991 3.144-52.234c4.414-4.655 23.669-10.797 38.389-3.503a9.276 9.276 0 0 1 5.147 8.974Z" fill="#407BFF"/><path opacity=".4" d="M447.64 198.799a358.322 358.322 0 0 1-6.79 47.027s17.575 14.396 11.876 73.528c0 0-17.779 7.869-59.743-1.488l7.977-72.304s-1.847-46.991 3.144-52.234c4.414-4.655 23.669-10.797 38.389-3.503a9.276 9.276 0 0 1 5.147 8.974Z" fill="#000"/><path opacity=".3" d="M427.209 244.242s-12.872 2.231-21.918 0v5.519s6.73.971 21.918 0v-5.519Z" fill="#000"/><path d="M434.695 169.671c-1.703 4.798-3.923 13.376-2.099 18.307a2.686 2.686 0 0 1-1.044 3.203c-3.707 2.675-9.741 4.798-14.276 4.354-5.818-.635-4.307-4.798-2.819-7.018.396-.599 1.02-1.451 1.727-1.583 5.723-.972 6.814-5.267 6.371-9.598l12.14-7.665Z" fill="#DD8C6A"/><path opacity=".3" d="m429.752 172.802-7.198 4.498c.096 1.062.096 2.13 0 3.191a8.843 8.843 0 0 0 7.198-4.09c.84-1.524.588-3.324 0-3.599Z" fill="#000"/><path d="m415.8 172.13-3.251 5.842c1.008.084 1.92.42 2.927.504.504-.792 1.104-1.571 1.608-2.399-.192.816-.852 1.691-1.056 2.495a31.32 31.32 0 0 0 5.423.516 2.076 2.076 0 0 0-.132-1.644 10.07 10.07 0 0 0-4.799-4.966l-.72-.348Z" fill="#263238"/><path d="M436.963 161.789c-2.1 7.474-2.952 11.996-7.618 15.02-7.018 4.606-15.596-.9-15.8-8.842-.156-7.198 3.311-18.187 11.373-19.591a10.593 10.593 0 0 1 12.273 8.53c.298 1.624.22 3.294-.228 4.883Z" fill="#DD8C6A"/><path d="M419.436 161.789a18.55 18.55 0 0 1-3.239 3.803 2.993 2.993 0 0 0 2.303.923l.936-4.726Z" fill="#FF5652"/><path d="M427.653 159.041a.455.455 0 0 0 .18 0 .382.382 0 0 0 .18-.492 3.713 3.713 0 0 0-2.627-2.135.368.368 0 0 0-.274.07.369.369 0 0 0-.076.516.37.37 0 0 0 .242.146 2.976 2.976 0 0 1 2.063 1.715.356.356 0 0 0 .312.18ZM415.86 155.514a.345.345 0 0 0 .36 0 2.918 2.918 0 0 1 2.652-.204.37.37 0 0 0 .491-.168.36.36 0 0 0 .026-.278.348.348 0 0 0-.182-.213 3.707 3.707 0 0 0-3.383.216.35.35 0 0 0-.174.215.355.355 0 0 0 .03.276.438.438 0 0 0 .18.156Z" fill="#263238"/><path d="m432.32 185.53-8.398 6.502a2.945 2.945 0 0 1-2.559.522 2.938 2.938 0 0 1-1.963-1.721l-1.908-4.367-2.231.576a1.396 1.396 0 0 0-1.044 1.055c-.444 2.052-2.076 7.066-1.98 11.565 0 0 5.147-6.886 8.05-1.931 0 0 3.791-4.475 6.85 3.263a64.99 64.99 0 0 0 5.183-8.866c1.572-3.671 2.627-5.662 2.627-5.662l-2.627-.936Z" fill="#fff"/><path d="M433.328 185.902a332.84 332.84 0 0 0-7.498 48.275c-1.692 24.329-2.04 31.683 7.582 30.628 9.621-1.056 17.503-2.268 16.099-5.771-1.403-3.503-6.646-11.385-6.322-15.404.324-4.019 3.671-35.342 4.055-40.081.384-4.738 3.239-14.684-13.916-17.647Z" fill="#263238"/><path d="M434.971 252.16c-.12-.648 2.183-2.987 4.799-4.619a28.21 28.21 0 0 1 5.518-2.531s5.375-6.322 6.862-8.038l4.151 3.599a107.879 107.879 0 0 0-7.714 7.87l-2.231 4.715a8.255 8.255 0 0 1-3.131 2.663 24.634 24.634 0 0 1-4.379 1.548 1.406 1.406 0 0 1-1.548-.612 17.231 17.231 0 0 1-2.327-4.595Z" fill="#DD8C6A"/><path d="M416.448 186.718s-7.882 14.828-8.397 39.589c-.516 24.761.563 37.886-4.019 38.641-4.583.756-5.603-2.399-5.603-2.399s1.356-13.436 1.356-16.711c0-3.275-1.44-23.106 0-37.274 1.439-14.168 0-13.305 2.399-14.888 2.4-1.584 7.834-5.651 14.264-6.958Z" fill="#263238"/><path opacity=".2" d="m444.569 230.242-4.727-27.125s3.899 3.971 6.79 7.019c-.552 5.542-1.367 13.364-2.063 20.106Z" fill="#000"/><path d="M442.421 189.009s-3.203 8.17-2.579 14.108c.264 2.52 18.163 21.714 18.163 21.714l-13.496 17.899 6.958 5.999s19.194-19.003 19.35-24.15c.156-5.146-21.186-33.398-28.396-35.57ZM424.93 160.901c-.12.624-.552 1.056-.96.984-.408-.072-.648-.648-.516-1.284s.552-1.056.96-.984c.408.072.636.648.516 1.284ZM417.864 159.509c-.12.624-.552 1.068-.96.984-.408-.084-.636-.648-.516-1.272.12-.623.552-1.067.96-.983.408.084.648.635.516 1.271Z" fill="#263238"/><path d="m417.516 158.298-1.415-.72s.551 1.296 1.415.72ZM424.582 159.689l-1.415-.72s.551 1.32 1.415.72ZM420.551 169.995c-.399.031-.8.031-1.2 0a.197.197 0 0 1-.145-.065.183.183 0 0 1-.039-.071.181.181 0 0 1-.008-.08.202.202 0 0 1 .204-.192 5.569 5.569 0 0 0 4.631-1.836.193.193 0 0 1 .223-.048.193.193 0 0 1 .065.048.204.204 0 0 1 0 .288 5.75 5.75 0 0 1-3.731 1.956ZM432.5 147.177a43.317 43.317 0 0 1-1.464 32.235c1.044-.312 2.16-.552 3.192-.852.503-1.332.899-2.699 1.403-4.019-.168 1.2-.492 2.687-.66 3.947l2.82-.516c.491-1.283.899-2.723 1.391-4.007-.216 1.14-.456 2.736-.684 3.875a15.726 15.726 0 0 0 6.467-9.465c.907-4.269.349-8.72-1.584-12.633-2.327-4.067-6.394-5.734-10.881-8.565Z" fill="#263238"/><path d="M439.59 167.907a7.451 7.451 0 0 1-3.599 4.367c-2.291 1.199-3.983-.696-3.803-3.143.144-2.196 1.524-5.483 4.043-5.699a3.32 3.32 0 0 1 2.911 1.313 3.316 3.316 0 0 1 .448 3.162Z" fill="#DD8C6A"/><path d="M416.496 205.469a2.402 2.402 0 0 1-1.055-.252 2.666 2.666 0 0 1-1.44-1.932 3.602 3.602 0 0 1 1.823-3.503 9.597 9.597 0 0 1 3.503-1.199H420.443a.61.61 0 0 1 .576.612.598.598 0 0 1-.588.587c-.588 0-1.295 1.2-1.439 2.172v.144a3.826 3.826 0 0 1-1.524 3.059 2.037 2.037 0 0 1-.972.312Zm2.004-5.447a6.103 6.103 0 0 0-2.028.768 2.57 2.57 0 0 0-1.295 2.316 1.47 1.47 0 0 0 .803 1.031.932.932 0 0 0 .888 0c.624-.324.768-1.271.912-2.183v-.144a4.984 4.984 0 0 1 .72-1.788Z" fill="#fff"/><path d="M423.826 205.865c-.406 0-.803-.121-1.139-.348a3.75 3.75 0 0 1-1.2-3.203v-.144c0-.948-.624-2.232-1.2-2.316a.586.586 0 0 1-.516-.648.59.59 0 0 1 .624-.539H421.511a9.775 9.775 0 0 1 3.371 1.535 3.6 3.6 0 0 1 1.428 3.671 2.628 2.628 0 0 1-1.644 1.764 2.339 2.339 0 0 1-.84.228Zm-1.631-5.651c.284.594.451 1.238.492 1.896v.156c0 .911.095 1.859.671 2.267a.982.982 0 0 0 .888.06 1.48 1.48 0 0 0 .566-.368 1.48 1.48 0 0 0 .346-.58 2.533 2.533 0 0 0-1.032-2.399 6.54 6.54 0 0 0-1.931-1.032ZM416.796 211.947a.477.477 0 0 1-.192 0 .598.598 0 0 1-.384-.756 56.06 56.06 0 0 0 2.399-11.409.602.602 0 0 1 .66-.54.604.604 0 0 1 .54.66 57.923 57.923 0 0 1-2.399 11.661.597.597 0 0 1-.624.384Z" fill="#fff"/><path d="M421.595 214.934a.596.596 0 0 1-.552-.372 11.655 11.655 0 0 1-.78-3.767c-.002-1.31.107-2.618.324-3.911a35.72 35.72 0 0 0 .252-1.943 7.876 7.876 0 0 0-.924-5.219.597.597 0 0 1-.091-.45.606.606 0 0 1 .704-.475.597.597 0 0 1 .383.254 8.973 8.973 0 0 1 1.116 5.998c-.06.672-.156 1.344-.252 2.003a21.794 21.794 0 0 0-.312 3.695c.044 1.155.279 2.294.696 3.371a.61.61 0 0 1-.336.78.684.684 0 0 1-.228.036Z" fill="#fff"/><path d="M431.924 160.937c-.648-.588-1.56-1.32-2.207-1.92.306-1.304.411-2.647.312-3.982-.3 1.055-.396 2.135-.696 3.191l-2.208-1.464a3.32 3.32 0 0 0-1.847-.744c.12-1.091.168-2.207.3-3.299-.252.972-.54 2.052-.78 3.023-.864-.12-1.86-.324-2.711-.444.096-1.199.24-2.303.348-3.467-.372.912-.636 2.472-1.008 3.383l-.252-.347a20.508 20.508 0 0 0-7.51-.42c-.84-3.299.168-7.966 3.407-9.034 10.977-3.659 19.963 4.907 20.215 5.615 1.643 4.522-1.392 7.522-5.363 9.909Z" fill="#263238"/><path d="M435.991 170.151a1.047 1.047 0 0 1-1.247 1.023 1.04 1.04 0 0 1-.761-1.423 1.04 1.04 0 0 1 .964-.644 1.041 1.041 0 0 1 1.044 1.044Z" fill="#407BFF"/><path d="M392.227 422.537c-5.795 3.18-6.442 3.24-12.837 4.451-1.403.264-.911 3.599 2.4 3.671 5.41.168 4.954 0 9.597.096 3.935.096 8.674.432 11.805.564h.108a1.3 1.3 0 0 0 .885-.442c.224-.259.338-.596.315-.938l-.684-7.126a.65.65 0 0 0-.612-.564l-8.926-.251a3.969 3.969 0 0 0-2.051.539Z" fill="#263238"/><path d="M392.263 423.077a.19.19 0 0 0 0-.192.185.185 0 0 0-.204 0c-.384.132-3.719 1.452-3.971 2.52a.638.638 0 0 0 .156.576c.117.125.261.222.421.283.16.06.332.082.503.065 1.2-.132 2.459-2.04 3.119-3.168l-.024-.084Zm-3.827 2.292c.24-.588 1.908-1.428 3.191-1.98-.948 1.512-1.895 2.4-2.543 2.508a.649.649 0 0 1-.6-.24.201.201 0 0 1-.072-.216l.024-.072Z" fill="#407BFF"/><path d="M392.263 423.077a.174.174 0 0 0-.007-.101.173.173 0 0 0-.065-.079 5.364 5.364 0 0 0-3.107-1.139 1.386 1.386 0 0 0-.948.564c-.3.42-.216.707-.072.875.588.732 3.131.444 4.091 0a.17.17 0 0 0 .108-.12Zm-3.911-.395.132-.144a.99.99 0 0 1 .684-.42 4.497 4.497 0 0 1 2.543.863c-1.104.336-2.975.396-3.323 0 0 0-.084-.095 0-.239l-.036-.06Z" fill="#407BFF"/><path d="M448.12 423.101a27.862 27.862 0 0 1-11.229 5.555c-1.704.48-.636 3.599 3.443 3.599 6.754-.108 4.067-.216 9.837-.348 4.931-.096 6.239-.132 10.149-.156h.132a1.475 1.475 0 0 0 1.44-1.559l-1.308-7.654a.756.756 0 0 0-.791-.576l-10.306.276c-.899-.108-.671.372-1.367.863Z" fill="#263238"/><path d="M448.072 423.701a.182.182 0 0 0 0-.216.232.232 0 0 0-.192-.144c-.516 0-4.991.144-5.698 1.2a.588.588 0 0 0 0 .636 1.344 1.344 0 0 0 .947.683c1.416.288 3.719-1.199 4.991-2.123l-.048-.036Zm-5.471.96c.516-.528 2.832-.792 4.571-.876-1.751 1.2-3.251 1.788-4.031 1.656a.852.852 0 0 1-.612-.456.22.22 0 0 1 0-.252l.072-.072Z" fill="#407BFF"/><path d="M448.072 423.701a.183.183 0 0 0 0-.204c-.084-.06-1.584-2.015-3.192-2.267a1.914 1.914 0 0 0-1.343.24c-.54.324-.552.648-.456.863.384.936 3.503 1.572 4.799 1.488a.257.257 0 0 0 .192-.12Zm-4.451-1.811.156-.156c.296-.175.646-.235.983-.168a5.45 5.45 0 0 1 2.64 1.775c-1.452-.06-3.671-.648-3.899-1.199 0 0 0-.132.156-.264l-.036.012Z" fill="#407BFF"/><path d="M342.513 233.601c-1.692 3.335 3.935 7.426 3.935 7.426l2.663 2.723a2.616 2.616 0 0 0 3.479.336l2.627-1.871.084-.06a2.618 2.618 0 0 0 .54-3.599l-1.763-2.4a8.523 8.523 0 0 0-2.688-2.399l-5.05-2.903-3.827 2.747Z" fill="#FFC3BD"/><path d="M320.57 160.529a7.882 7.882 0 0 1 2.981-3.416 7.863 7.863 0 0 1 8.68.202 7.869 7.869 0 0 1 2.82 3.55l.167.42a22.162 22.162 0 0 1 1.2 9.153c-.072 3.059-.168 6.166-.12 9.13.048 2.963 0 13.664.096 16.567.096 2.687 5.531 14.84 10.797 32.391.107.338.24.666.396.984l.972 1.931s-1.452.924-2.939 1.812a17.063 17.063 0 0 1-3.923 2.207 8.689 8.689 0 0 1-1.908-2.495c-4.199-6.622-17.911-31.191-18.631-34.791-.707-3.335-1.199-14.396-1.511-17.755-.312-3.359-.552-6.634-.648-9.945a30.017 30.017 0 0 1 .192-4.979 17.585 17.585 0 0 1 1.379-4.978v.012Z" fill="#263238"/><path opacity=".3" d="M320.57 160.529a7.882 7.882 0 0 1 2.981-3.416 7.863 7.863 0 0 1 8.68.202 7.869 7.869 0 0 1 2.82 3.55l.167.42a22.162 22.162 0 0 1 1.2 9.153c-.072 3.059-.168 6.166-.12 9.13.048 2.963 0 13.664.096 16.567.096 2.687 5.531 14.84 10.797 32.391.107.338.24.666.396.984l.972 1.931s-1.452.924-2.939 1.812a17.063 17.063 0 0 1-3.923 2.207 8.689 8.689 0 0 1-1.908-2.495c-4.199-6.622-17.911-31.191-18.631-34.791-.707-3.335-1.199-14.396-1.511-17.755-.312-3.359-.552-6.634-.648-9.945a30.017 30.017 0 0 1 .192-4.979 17.585 17.585 0 0 1 1.379-4.978v.012Z" fill="#000"/><path d="M277.49 164.667c2.052 23.634 9.897 36.95 8.842 55.833 0 0 42.588.84 44.052.84.623-34.791 5.59-32.139 4.067-54.165.263-7.198-3.851-11.697-8.014-12.417l-18.139-3.755-23.382 4.019a8.975 8.975 0 0 0-7.426 9.645Z" fill="#407BFF"/><path d="m310.937 381.053 5.519 43.608 10.749-.768-2.904-42.84h-13.364Z" fill="#FFC3BD"/><path d="M329.82 334.877c.972 41.125-1.404 76.371-1.404 76.371l-14.504.984s-8.169-53.361-4.87-75.159c-.156-4.583-5.459-61.892-7.282-72.725-3.299-19.446-6.826-32.787-6.826-32.787l34.13-1.907s.156 79.334.756 105.223Z" fill="#407BFF"/><path d="M310.349 246.509s-1.104 45.048-3.071 69.749c-1.02-13.352-3.695-41.076-5.518-51.909l8.589-17.84Z" fill="#000" opacity=".2"/><path d="m265.53 381.856-4.427 41.329 10.713-1.164 7.774-40.681-14.06.516Z" fill="#FFC3BD"/><path d="m259.759 411.104 16.448-.599s14.012-50.495 19.926-77.175c5.735-29.74 16.436-103.964 16.436-103.964l-27.341-2.111c-14.564 26.308-9.321 89.291-11.901 106.926-12.356 22.038-13.568 76.923-13.568 76.923Z" fill="#407BFF"/><path d="M328.788 216.458h-40.033s-6.574 23.165-6.514 22.937c.06-.228 46.979 2.256 46.979 2.256l-.432-25.193Z" fill="#407BFF"/><path d="M329.22 420.402c7.102 3.599 7.882 3.671 15.596 4.894 1.703.276 1.199 4.307-2.723 4.523-6.515.396-5.999.132-11.529.444-4.739.264-11.601.828-15.38 1.104h-.12a1.56 1.56 0 0 1-1.098-.494 1.578 1.578 0 0 1-.426-1.126l.576-8.625a.77.77 0 0 1 .72-.696l11.913-.612a4.487 4.487 0 0 1 2.471.588Z" fill="#263238"/><path d="M329.22 421.026c.84 1.343 2.471 3.599 3.875 3.707a1.303 1.303 0 0 0 1.104-.456.74.74 0 0 0 .168-.696c-.348-1.284-4.415-2.747-4.871-2.891a.24.24 0 0 0-.264.06.251.251 0 0 0 0 .24l-.012.036Zm4.715 2.675a.28.28 0 0 1-.072.264.77.77 0 0 1-.72.3c-.792-.06-1.955-1.2-3.167-2.927 1.583.611 3.599 1.571 3.935 2.267l.024.096Z" fill="#407BFF"/><path d="M329.22 421.122c1.2.48 4.259.732 4.943-.168.156-.204.264-.564-.12-1.056a1.74 1.74 0 0 0-1.2-.648c-1.571-.192-3.599 1.416-3.707 1.476a.276.276 0 0 0-.067.098.28.28 0 0 0-.017.118.182.182 0 0 0 .168.18Zm4.583-.732a.266.266 0 0 1 0 .3c-.408.528-2.663.528-4.007.156a5.469 5.469 0 0 1 3.035-1.128 1.192 1.192 0 0 1 .84.48l.168.168-.036.024Z" fill="#407BFF"/><path d="M274.455 419.958c2.903 2.543 7.066 4.871 13.568 6.694 2.052.576.756 4.391-4.163 4.283-8.145-.12-4.906-.264-11.864-.408-5.999-.12-7.522-.168-12.249-.204h-.108a1.759 1.759 0 0 1-1.271-.562 1.765 1.765 0 0 1-.468-1.309l1.571-9.238a.924.924 0 0 1 .972-.696l12.428.336c1.032-.072.768.504 1.584 1.104Z" fill="#263238"/><path d="M274.491 420.714c1.524 1.116 4.295 2.891 5.998 2.555a1.592 1.592 0 0 0 1.2-.828.682.682 0 0 0 0-.767c-.852-1.26-6.262-1.428-6.874-1.428a.238.238 0 0 0-.24.18.205.205 0 0 0-.044.126c0 .046.016.09.044.126l-.084.036Zm6.718 1.2a.25.25 0 0 1 0 .299 1.045 1.045 0 0 1-.744.552c-.935.156-2.759-.564-4.87-2.003 2.099.108 4.894.432 5.518 1.068l.096.084Z" fill="#407BFF"/><path d="M274.707 420.774c1.584.108 5.351-.66 5.806-1.788.132-.264.108-.66-.539-1.044a2.403 2.403 0 0 0-1.62-.3c-1.943.312-3.755 2.664-3.851 2.748a.207.207 0 0 0-.039.12c0 .043.014.085.039.12.047.072.12.124.204.144Zm5.147-2.316c.168.168.12.276.192.324-.276.672-2.952 1.38-4.703 1.464a6.558 6.558 0 0 1 3.179-2.148 1.66 1.66 0 0 1 1.2.204l.192.192-.06-.036Z" fill="#407BFF"/><path opacity=".8" d="M277.49 164.667c2.052 23.634 9.897 36.95 8.842 55.833 0 0 42.588.84 44.052.84.623-34.791 5.59-32.139 4.067-54.165.263-7.198-4.043-11.745-8.206-12.465l-17.995-3.707-23.382 4.019a8.973 8.973 0 0 0-7.378 9.645Z" fill="#fff"/><path d="m321.722 199.83-4.799 8.542-8.685-9.25c0-.228 3.719-39.049 3.719-39.049l2.243-.168c-.216 4.715 7.522 39.925 7.522 39.925Z" fill="#407BFF"/><path d="M320.283 158.429a111.647 111.647 0 0 1-4.967 49.283l3.599 38.797c.708 5.627 4.319 6.731 7.546 7.03l6.622-.527-2.399-37.022s5.41-40.789 4.163-50.027c-.828-6.094-2.844-8.469-4.283-9.705a4.804 4.804 0 0 0-2.148-1.032c-2.519-.528-9.933-2.531-9.597-2.399.336.132 1.464 5.602 1.464 5.602Z" fill="#263238"/><path d="M316.767 141.43c-.911 4.331-2.315 10.233 2.4 12.249 2.051.887 3.023 3.767 1.055 4.69-1.967.924-14.708 0-15.823-.528-2.76-1.415-4.703-2.399-3.215-5.158 2.591-4.715.947-14.576.599-19.315l14.984 8.062Z" fill="#FFC3BD"/><path d="m315.472 157.913-.588 1.86a1.094 1.094 0 0 1-.864.864l-2.243.168a.85.85 0 0 1-.816-.588l-1.092-1.656 2.795-1.643 2.808.995Z" fill="#407BFF"/><path opacity=".2" d="M304.759 140.218a14.978 14.978 0 0 0 2.879 4.511c1.74 1.991 5.015 2.867 8.182 2.867.107-2.097.421-4.178.936-6.214l-.66-.348-11.337-.816Z" fill="#000"/><path d="M299.228 253.395c10.797.732 13.796-.384 15.296-8.805 0 0 2.855-30.196 2.291-36.878 0 0-7.198-14.036-8.613-23.79-1.536-10.905-8.23-32.739-10.162-32.595-3.707.252-17.539 5.099-19.782 8.062-2.975 3.947-1.044 8.506-.336 13.4 2.255 15.68 3.947 21.079 4.799 36.89 0 0-7.198 40.789-6.095 40.933.84.084 13.988 2.196 22.602 2.783Z" fill="#263238"/><path opacity=".2" d="M286.332 220.5h18.427v.828a4.415 4.415 0 0 1-4.415 4.415h-9.597a4.415 4.415 0 0 1-4.415-4.415v-.828ZM331.104 225.947h-2.592a4.434 4.434 0 0 1-3.176-1.168 4.434 4.434 0 0 1-1.43-3.067v-.816l7.126-.3.072 5.351Z" fill="#fff"/><path d="M324.026 135.36c-1.2 8.577-11.145 13.52-18.128 7.737-4.042-3.335-4.798-7.486-5.854-13.976-.156-.983-.312-2.015-.492-3.119a11.602 11.602 0 0 1 .288-5.134c.19-.697.451-1.373.78-2.016a11.574 11.574 0 0 1 13.556-5.998c8.554 2.495 10.917 14.828 9.85 22.506Z" fill="#FFC3BD"/><path d="M303.487 119.548a35.91 35.91 0 0 1 2.939 5.998 7.973 7.973 0 0 0-2.183.852c-.624.396 0 2.267.324 2.963a34.025 34.025 0 0 0 2.027 4.079 15.211 15.211 0 0 1-3.467 1.008 6.213 6.213 0 0 0-1.559-2.399 3.197 3.197 0 0 0-1.565-1.041 3.197 3.197 0 0 0-1.878.021c-.216-1.068-6.491-5.891-1.26-9.118a11.096 11.096 0 0 1 2.507-1.499l1.2-.444a8.736 8.736 0 0 1 2.915-.42Z" fill="#263238"/><path d="M298.413 128.881c2.675-.611 5.158 2.328 5.998 4.559.984 2.471-.192 5.003-2.951 4.511a7.91 7.91 0 0 1-5.087-3.359 3.6 3.6 0 0 1 2.04-5.711Z" fill="#FFC3BD"/><path d="M314.464 125.282c.444 0 .864.468.936 1.2.072.732-.18 1.272-.684 1.32-.504.048-.912-.468-.984-1.2-.072-.732.288-1.224.732-1.32ZM322.154 124.779c.444 0 .864.467.936 1.199.072.732-.228 1.272-.684 1.32-.456.048-.864-.468-.936-1.14-.072-.672.24-1.319.684-1.379Z" fill="#263238"/><path d="M320.211 133.332a3.926 3.926 0 0 0 3.083-1.307 24.076 24.076 0 0 1-4.379-5.051l1.296 6.358Z" fill="#F98C8C"/><path d="M312.629 124.154a3.218 3.218 0 0 1 1.008-1.093 3.209 3.209 0 0 1 1.391-.526h.132a.408.408 0 0 0 .336-.468.42.42 0 0 0-.468-.336 4.02 4.02 0 0 0-3.095 1.98.415.415 0 0 0-.041.301.415.415 0 0 0 .173.25.392.392 0 0 0 .204 0 .5.5 0 0 0 .36-.108ZM323.678 123.459a.412.412 0 0 0 .072-.564 4 4 0 0 0-3.312-1.584.388.388 0 0 0-.336.279.377.377 0 0 0-.011.153.399.399 0 0 0 .148.255.4.4 0 0 0 .283.081 3.183 3.183 0 0 1 2.604 1.284c.04.053.093.095.154.122a.392.392 0 0 0 .194.034.585.585 0 0 0 .204-.06ZM310.289 201.054c-1.499-5.279-3.227-10.605-6.358-15.104-1.128-1.632-2.399-3.131-3.599-4.799a66.015 66.015 0 0 1-4.427-6.646c1.32-1.2 3.059-2.399 4.475-3.503l-5.35-4.427a55.702 55.702 0 0 0 1.835-15.596 2.763 2.763 0 0 1 2.027-.48 41.563 41.563 0 0 1 5.507 12.945 214.8 214.8 0 0 1 5.89 37.61Z" fill="#263238"/><path opacity=".2" d="M316.18 206.392c-.084-.108-.156-.24-.24-.372-3.407-5.302-18.907-29.512-19.987-31.527 1.332-1.2 3.071-2.399 4.487-3.503l-5.351-4.427a56.154 56.154 0 0 0 1.836-15.596 2.751 2.751 0 0 1 2.015-.48 41.973 41.973 0 0 1 4.007 7.966 40.223 40.223 0 0 1 1.5 4.979c3.035 11.925 6.202 31.359 11.541 42.432l.192.528Z" fill="#fff"/><path d="M323.906 203.609c-.084-5.494 0-11.085 1.715-16.304.612-1.883 1.428-3.694 2.064-5.578.815-2.399 3.299-5.375 3.803-7.894-1.608-.732-3.599-1.475-5.303-2.063l3.851-5.783c-2.759-4.474-6.97-8.121-8.398-13.196a2.768 2.768 0 0 0-2.075.12c-.852 2.819.492 11.025.564 12.752.6 12.753.971 25.505 3.779 37.946Z" fill="#263238"/><path opacity=".2" d="M331.488 173.833c-2.988 8.182-9.214 25.193-15.308 32.559-.192.228-.372.444-.564.648l.324-1.02a1.177 1.177 0 0 1 0-.168c5.554-17.995 4.799-27.772 4.211-40.237-.072-1.727-1.416-10.161-.564-12.968a2.692 2.692 0 0 1 2.075-.12c1.404 5.062 5.615 8.925 8.398 13.4-1.272 1.932-2.555 3.851-3.839 5.782 1.62.648 3.659 1.392 5.267 2.124Z" fill="#fff"/><path opacity=".3" d="M276.987 168.135s3.683 8.277 12.572 20.502c9.034 12.417 14.108 12.417 14.108 12.417l6.622 1.991s-1.703-31.311-20.946-35.99c-5.71-1.428-13.58 1.116-12.356 1.08Z" fill="#000"/><path d="m352.254 188.517-9.897.456v5.446l9.897-1.391v-4.511Z" fill="#FFC3BD"/><path d="M349.41 192.104c-.203 4.799 5.651 5.89 5.651 5.89l3.047 2.496a2.688 2.688 0 0 0 3.503 0l2.519-2.148.072-.06a2.69 2.69 0 0 0 .168-3.791l-2.051-2.267a8.654 8.654 0 0 0-2.987-2.159l-7.078-1.548-2.844 3.587Z" fill="#FFC3BD"/><path d="M277.958 161.536c-2.04 3.983-1.128 8.59 1.32 12.333 5.566 8.47 23.921 19.723 27.592 22.206 8.302 5.663 41.989-.936 41.989-.936l.491-8.313-35.99-1.8s-12.08-20.118-20.394-26.261c-4.187-3.071-12.153-2.807-15.008 2.771ZM304.603 111.762a3.96 3.96 0 0 0-3.107.996 12.556 12.556 0 0 0-4.703 7.294 3.585 3.585 0 0 0 0 1.811 1.546 1.546 0 0 0 1.259 1.2 7.19 7.19 0 0 1 3.06-1.895 41.282 41.282 0 0 1 7.198-1.668 90.986 90.986 0 0 0 13.112-2.999c.852-.252 1.824-.636 2.052-1.488.228-.852-1.608-2.243-1.308-2.519.468-.456 1.116-.864 1.116-1.512a1.563 1.563 0 0 0-.204-.731 3.478 3.478 0 0 0-1.896-1.86 1.74 1.74 0 0 0-2.195 1.044 20.705 20.705 0 0 0-.528-2.304 1.628 1.628 0 0 0-.936-.719 3.796 3.796 0 0 0-3.491.743 11.308 11.308 0 0 0-2.399 2.844c-1.248 1.823-4.847 2.267-7.03 1.763ZM315.808 134.64a.193.193 0 0 1 0-.276.18.18 0 0 1 .252 0 5.06 5.06 0 0 0 4.319 1.536.2.2 0 0 1 .215.18.192.192 0 0 1-.167.204 5.384 5.384 0 0 1-4.619-1.644Z" fill="#263238"/><path d="m298.88 150.884 3.048-.96a29.573 29.573 0 0 0 11.277 7.714 11.464 11.464 0 0 0-4.463 4.966c-10.197-4.031-9.862-11.72-9.862-11.72Z" fill="#fff"/><path d="m319.191 151.411-2.771-.732s-1.416 5.771-4.331 6.455c4.931 2.195 5.638 4.714 5.638 4.714 7.342-1.979 1.464-10.437 1.464-10.437Z" fill="#fff"/><path opacity=".3" d="M313.432 209.14a1.117 1.117 0 0 1-1.95.651 1.117 1.117 0 0 1 .895-1.851 1.144 1.144 0 0 1 .777.38 1.14 1.14 0 0 1 .278.82Z" fill="#fff"/></g><defs><clipPath id="a"><path fill="#fff" d="M0 0h796v706H0z"/></clipPath><clipPath id="b"><path fill="#fff" d="M0 0h796v706H0z"/></clipPath></defs></svg>