<svg width="53" height="53" viewBox="0 0 53 53" fill="none" xmlns="http://www.w3.org/2000/svg">
<circle cx="26.5" cy="26.5" r="26.5" fill="#FBEBDE"/>
<path d="M32 34V32C32 30.9391 31.5786 29.9217 30.8284 29.1716C30.0783 28.4214 29.0609 28 28 28H21C19.9391 28 18.9217 28.4214 18.1716 29.1716C17.4214 29.9217 17 30.9391 17 32V34" stroke="#797979" stroke-width="2" stroke-linecap="round" stroke-linejoin="round"/>
<path d="M24.5 24C26.7091 24 28.5 22.2091 28.5 20C28.5 17.7909 26.7091 16 24.5 16C22.2909 16 20.5 17.7909 20.5 20C20.5 22.2091 22.2909 24 24.5 24Z" stroke="#797979" stroke-width="2" stroke-linecap="round" stroke-linejoin="round"/>
<path d="M33 24L35 26L39 22" stroke="#797979" stroke-width="2" stroke-linecap="round" stroke-linejoin="round"/>
</svg>
