<svg width="535" height="535" fill="none" xmlns="http://www.w3.org/2000/svg"><path fill-rule="evenodd" clip-rule="evenodd" d="M333.433 57.994c61.964 7.125 133.543 10.423 169.1 61.667 33.452 48.211-6.87 110.459-8.978 169.1-1.959 54.504 28.865 112.929-2.756 157.366-34.414 48.361-98.044 65.634-157.366 67.651-61.538 2.093-118.635-20.373-168.445-56.572-61.609-44.774-132.334-92.8-141.178-168.445-9.412-80.508 31.588-164.606 96.579-213.045 59.397-44.27 139.45-26.185 213.044-17.722Z" fill="url(#a)"/><path d="M535 409.168H0v.267h535v-.267ZM481.393 426.384h-35.438v.268h35.438v-.268ZM354.405 429.295h-9.298v.267h9.298v-.267ZM444.885 416.455h-20.534v.267h20.534v-.267ZM102.346 418.252H56.132v.268h46.214v-.268ZM118.652 418.252h-6.773v.268h6.773v-.268ZM240.91 422.768H140.673v.267H240.91v-.267ZM485.042 361.446H278.425a6.117 6.117 0 0 1-4.317-1.793 6.117 6.117 0 0 1-1.793-4.317V64.906a6.124 6.124 0 0 1 6.11-6.056h206.617a6.108 6.108 0 0 1 6.088 6.056v290.43a6.11 6.11 0 0 1-6.088 6.11ZM278.425 59.064a5.852 5.852 0 0 0-5.842 5.842v290.43a5.849 5.849 0 0 0 5.842 5.842h206.617a5.85 5.85 0 0 0 5.842-5.842V64.906a5.853 5.853 0 0 0-5.842-5.842H278.425Z" fill="#EBEBEB"/><path d="M131.995 138.244c12.351 0 22.363-10.012 22.363-22.363 0-12.351-10.012-22.363-22.363-22.363-12.351 0-22.363 10.012-22.363 22.363 0 12.351 10.012 22.363 22.363 22.363Z" fill="#F0F0F0"/><path d="M136.521 110.296a4.526 4.526 0 1 1-9.052.001 4.526 4.526 0 0 1 9.052-.001Z" fill="#fff"/><path d="M140.801 126.003c0-6.42-3.959-11.588-8.806-11.588-4.847 0-8.784 5.179-8.806 11.588h17.612Z" fill="#fff"/><path d="M153.256 93.518h-6.666a2.76 2.76 0 0 0-2.761 2.76v6.667a2.76 2.76 0 0 0 2.761 2.76h6.666a2.76 2.76 0 0 0 2.761-2.76v-6.666a2.76 2.76 0 0 0-2.761-2.761Z" fill="#E0E0E0"/><path d="M150.988 95.444h-2.14v8.335h2.14v-8.335Z" fill="#fff"/><path d="M154.091 98.547h-8.336v2.14h8.336v-2.14Z" fill="#fff"/><path d="M421.569 404.321c12.351 0 22.363-10.012 22.363-22.363 0-12.351-10.012-22.363-22.363-22.363-12.35 0-22.363 10.012-22.363 22.363 0 12.351 10.013 22.363 22.363 22.363Z" fill="#E0E0E0"/><path d="M421.569 380.899a4.526 4.526 0 1 0 0-9.053 4.526 4.526 0 0 0 0 9.053Z" fill="#fff"/><path d="M430.375 392.08c0-6.42-3.959-11.588-8.806-11.588-4.847 0-8.784 5.179-8.816 11.588h17.622Z" fill="#fff"/><path d="m108.423 373.89-4.697-2.14-1.327 2.322a13.748 13.748 0 0 0-5.157-.16l-1.167-2.408-4.825 1.819.706 2.579a14.042 14.042 0 0 0-3.777 3.52l-2.515-.867-2.14 4.698 2.311 1.326a13.687 13.687 0 0 0-.16 5.147l-2.408 1.177 1.82 4.826 2.578-.706a13.918 13.918 0 0 0 3.52 3.766l-.866 2.525 4.697 2.14 1.327-2.322c1.69.382 3.435.44 5.146.172l1.177 2.396 4.826-1.808-.706-2.589a13.65 13.65 0 0 0 3.766-3.51l2.526.867 2.14-4.698-2.322-1.326c.382-1.693.44-3.443.171-5.158l2.397-1.166-1.809-4.826-2.589.706a13.728 13.728 0 0 0-3.52-3.777l.877-2.525Zm-2.696 16.596a6.976 6.976 0 1 1-1.251-7.658 6.957 6.957 0 0 1 1.877 5.005 6.976 6.976 0 0 1-.626 2.653ZM91.004 356.428l-1.723.845 1.294 3.467 1.862-.503a9.793 9.793 0 0 0 2.526 2.707l-.621 1.808 3.37 1.53.953-1.658c1.216.268 2.471.308 3.702.118l.845 1.722 3.467-1.305-.503-1.851a10.11 10.11 0 0 0 2.707-2.525l1.808.62 1.531-3.37-1.67-.953a9.812 9.812 0 0 0 .118-3.702l1.733-.845-1.305-3.467-1.862.503a9.783 9.783 0 0 0-2.525-2.707l.621-1.808-3.371-1.531-.952 1.659a10.067 10.067 0 0 0-3.702-.118l-.867-1.722-3.467 1.305.514 1.851a9.8 9.8 0 0 0-2.707 2.525l-1.82-.62-1.53 3.37 1.67.953a9.821 9.821 0 0 0-.096 3.702Zm11.909-6.089a5.007 5.007 0 1 1-6.613 2.494 5.017 5.017 0 0 1 6.613-2.494ZM61.354 361.072a11.77 11.77 0 0 0-.14 4.408l-2.054 1.006 1.552 4.119 2.204-.599a11.781 11.781 0 0 0 3.017 3.21l-.749 2.14 4.024 1.819 1.134-1.979c1.447.323 2.943.37 4.408.139l.995 2.054 4.13-1.551-.599-2.205a11.753 11.753 0 0 0 3.21-3.017l2.14.749 1.82-4.023-1.98-1.07c.324-1.448.37-2.944.139-4.409l2.054-1.005-1.551-4.131-2.204.6a11.753 11.753 0 0 0-3.018-3.21l.75-2.14-4.024-1.819-1.134 1.979a11.761 11.761 0 0 0-4.409-.139l-.963-2.108-4.13 1.552.6 2.214a11.778 11.778 0 0 0-3.21 3.007l-2.14-.738-1.82 4.012 1.948 1.135Zm14.038-2.857a5.969 5.969 0 0 1-.365 11.025 5.977 5.977 0 0 1-6.46-1.507 5.968 5.968 0 0 1 2.257-9.666 5.984 5.984 0 0 1 4.568.148ZM344.112 322.434a8.556 8.556 0 0 1-7.875-5.527 8.555 8.555 0 0 1 2.236-9.357 2.06 2.06 0 0 0 .567-2.288 2.071 2.071 0 0 0-1.947-1.329h-30.367v-26.386l1.445.525c1.4.52 2.882.785 4.376.781a12.661 12.661 0 0 0 5.349-1.192 12.661 12.661 0 0 0 6.863-8.208 12.64 12.64 0 0 0-1.885-10.533 12.642 12.642 0 0 0-9.284-5.318 12.641 12.641 0 0 0-5.43.737l-1.444.535V228.98h30.334a2.076 2.076 0 0 0 1.38-3.617 8.552 8.552 0 0 1-2.857-6.42 8.496 8.496 0 0 1 16.992 0 8.568 8.568 0 0 1-2.857 6.42 2.078 2.078 0 0 0 1.38 3.617h30.549v25.915l-1.434-.535a12.646 12.646 0 0 0-17.066 11.851 12.652 12.652 0 0 0 5.434 10.388 12.646 12.646 0 0 0 11.632 1.462l1.434-.535v26.407h-30.506a2.065 2.065 0 0 0-1.38 3.617 8.578 8.578 0 0 1 2.118 2.903 8.574 8.574 0 0 1 .739 3.517 8.56 8.56 0 0 1-8.496 8.464Z" fill="#E0E0E0"/><path d="m276.124 303.933.535-1.444a12.638 12.638 0 0 0-19.948-14.1 12.626 12.626 0 0 0-4.533 9.692 12.493 12.493 0 0 0 .781 4.408l.535 1.444h-25.905v-30.698a2.078 2.078 0 0 0-3.617-1.391 8.505 8.505 0 0 1-14.88-5.633c0-1.727.526-3.414 1.507-4.835a8.514 8.514 0 0 1 9.043-3.423 8.505 8.505 0 0 1 4.33 2.624 2.147 2.147 0 0 0 1.541.685 1.94 1.94 0 0 0 .738-.139 2.08 2.08 0 0 0 1.338-1.937V228.98h25.905l-.535 1.445a12.627 12.627 0 0 0 1.478 11.587 12.628 12.628 0 0 0 10.345 5.426 12.667 12.667 0 0 0 10.371-5.413 12.664 12.664 0 0 0 1.506-11.6l-.535-1.445h26.461v30.206a2.137 2.137 0 0 0 1.338 1.948c.236.085.486.129.738.128a2.073 2.073 0 0 0 1.552-.706 8.5 8.5 0 0 1 9.38-2.296 8.507 8.507 0 1 1-9.38 13.606 2.076 2.076 0 0 0-3.628 1.369v30.698h-26.461ZM355.433 383.06l.535-1.445a12.64 12.64 0 0 0-1.472-11.624 12.642 12.642 0 0 0-10.384-5.428 12.654 12.654 0 0 0-10.384 5.428 12.653 12.653 0 0 0-1.472 11.624l.514 1.445h-26.044v-30.57a2.076 2.076 0 0 0-2.065-2.076 2.137 2.137 0 0 0-1.551.685 8.57 8.57 0 0 1-6.42 2.9 8.506 8.506 0 0 1-7.142-3.883 8.494 8.494 0 0 1-.61-8.106 8.5 8.5 0 0 1 6.481-4.908 8.49 8.49 0 0 1 7.637 2.783 2.077 2.077 0 0 0 1.562.707c.242 0 .481-.044.707-.129a2.139 2.139 0 0 0 1.358-1.947v-30.431h26.087l-.546 1.445a12.64 12.64 0 0 0 1.472 11.624 12.642 12.642 0 0 0 10.384 5.428 12.654 12.654 0 0 0 10.384-5.428 12.653 12.653 0 0 0 1.472-11.624l-.535-1.445h26.247v30.431a2.137 2.137 0 0 0 1.348 1.947c.233.085.479.128.727.129a2.059 2.059 0 0 0 1.552-.696 8.497 8.497 0 1 1 6.42 14.103 8.555 8.555 0 0 1-6.42-2.9 2.137 2.137 0 0 0-1.552-.685 2.002 2.002 0 0 0-.749.139 2.138 2.138 0 0 0-1.326 1.937v30.57h-26.215Z" fill="#E0E0E0"/><path d="M264.782 243.297a8.475 8.475 0 0 1-8.464-8.464 8.614 8.614 0 0 1 2.879-6.42 2.081 2.081 0 0 0 .532-2.282 2.077 2.077 0 0 0-1.934-1.324h-30.206v-26.6l1.444.524a12.637 12.637 0 0 0 14.091-3.739 12.636 12.636 0 0 0 2.736-10.335 12.622 12.622 0 0 0-11.403-10.345 12.636 12.636 0 0 0-5.424.751l-1.444.535V149.8h30.206a2.072 2.072 0 0 0 1.946-1.326 2.076 2.076 0 0 0-.544-2.291 8.67 8.67 0 0 1-2.879-6.42 8.486 8.486 0 1 1 14.103 6.42 2.08 2.08 0 0 0-.552 2.272 2.071 2.071 0 0 0 1.911 1.345h30.773v25.755l-1.444-.535a12.62 12.62 0 0 0-10.655.866 12.634 12.634 0 0 0-6.172 8.729 12.633 12.633 0 0 0 2.736 10.334 12.632 12.632 0 0 0 9.682 4.531 12.479 12.479 0 0 0 4.409-.792l1.444-.524v26.622H271.78a2.136 2.136 0 0 0-1.947 1.337 2.134 2.134 0 0 0 .556 2.29 8.487 8.487 0 0 1 2.31 9.369 8.48 8.48 0 0 1-7.949 5.472l.032.043ZM337.125 156.092a2.14 2.14 0 0 0-1.744-1.563h-.3a2.065 2.065 0 0 0-1.787 1.07 8.678 8.678 0 0 1-2.317 2.721 8.68 8.68 0 0 1-3.215 1.559 8.845 8.845 0 0 1-2.043.247 8.477 8.477 0 0 1-8.589-7.462 8.477 8.477 0 0 1 6.577-9.284 8.57 8.57 0 0 1 6.923 1.284c.348.234.758.361 1.177.364a2.02 2.02 0 0 0 1.177-.375 2.075 2.075 0 0 0 .835-2.193l-7.18-29.19 25.263-6.27-.172 1.53a12.634 12.634 0 0 0 18.084 12.825A12.654 12.654 0 0 0 376.576 107a12.62 12.62 0 0 0-1.83-4.098l-.856-1.273 25.488-6.27 7.222 29.2a2.139 2.139 0 0 0 1.755 1.562h.289a2.041 2.041 0 0 0 1.797-1.07 8.57 8.57 0 0 1 7.555-4.526 8.47 8.47 0 0 1 8.441 7.462 8.475 8.475 0 0 1-6.43 9.251 8.663 8.663 0 0 1-6.88-1.23 2.13 2.13 0 0 0-1.156-.353 2.072 2.072 0 0 0-1.636.791 2.08 2.08 0 0 0-.386 1.777l7.383 29.96-25.498 6.27.182-1.53a12.655 12.655 0 0 0-4.204-10.937 12.651 12.651 0 0 0-20.168 4.958 12.64 12.64 0 0 0 1.346 11.639l.866 1.273-25.316 6.238-7.415-30.002Z" fill="#E0E0E0"/><path d="m196.88 224.828.546-1.444c.531-1.409.802-2.903.802-4.408a12.648 12.648 0 1 0-25.295 0c-.002 1.505.27 2.999.803 4.408l.535 1.444h-25.819v-30.89a2.072 2.072 0 0 0-1.327-1.926 1.986 1.986 0 0 0-.749-.15 2.13 2.13 0 0 0-1.53.685 8.56 8.56 0 0 1-6.42 2.835 8.485 8.485 0 1 1 6.42-14.103 2.062 2.062 0 0 0 1.541.696c.252-.003.502-.05.738-.139a2.144 2.144 0 0 0 1.337-1.937V149.8h25.766l-.535 1.445a12.382 12.382 0 0 0-.802 4.408 12.647 12.647 0 1 0 25.294 0 12.475 12.475 0 0 0-.802-4.408l-.503-1.445h26.611v30.056a2.141 2.141 0 0 0 1.337 1.937c.236.09.486.137.739.139a2.132 2.132 0 0 0 1.551-.695 8.494 8.494 0 0 1 7.626-2.798 8.492 8.492 0 0 1 7.231 9.009 8.497 8.497 0 0 1-8.437 7.891 8.724 8.724 0 0 1-6.42-2.835 2.065 2.065 0 0 0-1.53-.674 2.071 2.071 0 0 0-2.076 2.065v30.891l-26.632.042Z" fill="#E0E0E0"/><path d="M185.527 322.434a8.495 8.495 0 0 1-5.607-14.873c.315-.28.537-.649.638-1.058a2.08 2.08 0 0 0-2.018-2.569h-30.088v-26.408l1.444.535a12.646 12.646 0 0 0 15.626-5.988 12.64 12.64 0 0 0 0-11.724 12.642 12.642 0 0 0-9.63-6.687 12.646 12.646 0 0 0-5.996.698l-1.444.535V228.98h30.088a2.078 2.078 0 0 0 1.38-3.627 8.501 8.501 0 0 1-1.167-11.487 8.496 8.496 0 0 1 15.281 5.067 8.628 8.628 0 0 1-2.9 6.42 2.062 2.062 0 0 0 .199 3.257c.348.238.76.363 1.181.359h30.923v25.916l-1.433-.535a12.648 12.648 0 1 0 0 23.7l1.433-.535v26.408h-30.923a2.078 2.078 0 0 0-1.928 1.335 2.072 2.072 0 0 0 .548 2.281 8.607 8.607 0 0 1 2.9 6.42 8.562 8.562 0 0 1-8.507 8.475Z" fill="#E0E0E0"/><path d="m196.88 383.06.546-1.445c.531-1.409.802-2.902.802-4.408a12.647 12.647 0 1 0-25.295 0c-.002 1.506.27 3 .803 4.408l.535 1.445h-25.819v-30.57a2.077 2.077 0 0 0-3.617-1.391 8.478 8.478 0 0 1-11.471 1.172 8.478 8.478 0 0 1-3.361-7.377 8.48 8.48 0 0 1 8.412-7.887 8.396 8.396 0 0 1 6.42 2.878 2.077 2.077 0 0 0 1.562.707c.253.002.504-.045.739-.139a2.077 2.077 0 0 0 1.337-1.937v-30.431h25.766l-.535 1.445a12.405 12.405 0 0 0-.803 4.408 12.648 12.648 0 0 0 25.295 0 12.52 12.52 0 0 0-.802-4.408l-.546-1.445h26.611v30.431a2.137 2.137 0 0 0 1.348 1.947c.233.085.479.128.728.129a2.057 2.057 0 0 0 1.551-.696 8.513 8.513 0 0 1 9.394-2.361 8.499 8.499 0 0 1 4.001 3.12 8.503 8.503 0 0 1-9.067 13.092 8.506 8.506 0 0 1-4.328-2.648 2.137 2.137 0 0 0-1.551-.685 1.995 1.995 0 0 0-.749.139 2.141 2.141 0 0 0-1.327 1.937v30.57H196.88Z" fill="#E0E0E0"/><path d="M264.782 401.571a8.488 8.488 0 0 1-8.464-8.496 8.703 8.703 0 0 1 .763-3.513 8.695 8.695 0 0 1 2.116-2.907 2.058 2.058 0 0 0 .535-2.279 2.077 2.077 0 0 0-1.937-1.327h-30.206v-26.247l1.444.535a12.51 12.51 0 0 0 4.409.813 12.651 12.651 0 0 0 9.7-4.536 12.659 12.659 0 0 0 2.744-10.35 12.65 12.65 0 0 0-16.853-9.617l-1.444.546v-26.108h30.206a2.072 2.072 0 0 0 1.946-1.326 2.076 2.076 0 0 0-.544-2.291 8.554 8.554 0 0 1-2.879-6.42 8.492 8.492 0 0 1 3.919-7.09 8.486 8.486 0 0 1 10.184 13.51 2.143 2.143 0 0 0-.546 2.29 2.065 2.065 0 0 0 1.937 1.338h30.773v26.108l-1.444-.546a12.657 12.657 0 0 0-14.734 4.557 12.642 12.642 0 0 0 4.972 18.755 12.633 12.633 0 0 0 5.353 1.191 12.45 12.45 0 0 0 4.398-.813l1.455-.535v26.247H271.78a2.07 2.07 0 0 0-1.941 1.338c-.15.393-.177.823-.076 1.232.1.409.322.778.637 1.057a8.563 8.563 0 0 1-.866 13.323 8.558 8.558 0 0 1-4.784 1.55l.032.011ZM85.598 211.331l-13.577 2.167a5.693 5.693 0 0 0-4.724 6.519l2.168 13.578a5.692 5.692 0 0 0 6.518 4.723l13.578-2.167a5.693 5.693 0 0 0 4.723-6.519l-2.167-13.577a5.692 5.692 0 0 0-6.519-4.724Z" fill="#E0E0E0"/><path d="m81.617 215.986-4.353.695 2.709 16.97 4.353-.695-2.709-16.97Z" fill="#fff"/><path d="m88.911 221.298-16.97 2.709.696 4.353 16.969-2.709-.695-4.353Z" fill="#fff"/><path d="m423.87 244.227-4.698-2.14-1.326 2.312a13.752 13.752 0 0 0-5.158-.161l-1.166-2.418-4.826 1.819.706 2.579a13.728 13.728 0 0 0-3.777 3.52l-2.514-.867-2.14 4.698 2.311 1.316a13.745 13.745 0 0 0-.16 5.157l-2.408 1.177 1.819 4.826 2.579-.706a13.908 13.908 0 0 0 3.52 3.766l-.867 2.525 4.698 2.14 1.326-2.322c1.69.382 3.436.44 5.147.171l1.177 2.397 4.826-1.819-.706-2.578a13.546 13.546 0 0 0 3.766-3.521l2.525.878 2.14-4.698-2.322-1.326c.382-1.693.441-3.443.172-5.158l2.396-1.166-1.84-4.815-2.589.706a13.559 13.559 0 0 0-3.521-3.777l.91-2.515Zm-2.697 16.585a6.974 6.974 0 0 1-10.42 2.785 6.966 6.966 0 0 1-2.725-7.257 6.976 6.976 0 0 1 11.891-3.176 6.951 6.951 0 0 1 1.877 4.999 6.953 6.953 0 0 1-.623 2.649Z" fill="#E0E0E0"/><path d="M267.5 457.489c114.578 0 207.462-5.423 207.462-12.112 0-6.69-92.884-12.113-207.462-12.113-114.578 0-207.462 5.423-207.462 12.113 0 6.689 92.884 12.112 207.462 12.112Z" fill="#F5F5F5"/><path d="M364.71 413.694c0-.342-1.177-34.925-6.784-40.371-5.404-5.254-11.642-.193-11.899 0l-.685-.813c.065-.064 7.234-5.907 13.333 0 5.906 5.746 7.062 39.665 7.105 41.109l-1.07.075Z" fill="#407BFF"/><path d="M365.191 420.51c-.161-1.691-3.852-41.591 11.203-58.85l.802.706c-14.744 16.928-10.978 57.652-10.935 58.069l-1.07.075Z" fill="#407BFF"/><path d="m364.87 416.144-1.07-.064c0-.471 2.943-46.727-8.046-56.838l.727-.781c11.31 10.443 8.475 55.757 8.389 57.683Z" fill="#407BFF"/><path d="M366.261 416.112h-1.07c0-1.284.364-31.34 8.935-36.241a6.137 6.137 0 0 1 5.596-.545c5.2 2.14 7.757 11.363 7.864 11.77l-1.07.289c0-.097-2.536-9.106-7.244-11.053a5.045 5.045 0 0 0-4.654.481c-8.004 4.59-8.357 35-8.357 35.299ZM362.944 416.144l-1.07-.064c0-.235 1.284-23.668-5.029-31.918-1.519-1.969-3.157-2.9-4.879-2.793-4.098.289-7.554 6.313-7.586 6.42l-.931-.524c.149-.267 3.766-6.591 8.442-6.923 2.14-.15 4.055.942 5.799 3.21 6.559 8.517 5.308 31.608 5.254 32.592Z" fill="#407BFF"/><path d="M364.142 419.344c-.171-2.279-4.141-55.908 2.857-65.388l.867.642c-6.773 9.148-2.696 64.104-2.654 64.66l-1.07.086ZM381.583 384.847s-4.183 1.541-2.942 5.189c1.241 3.649 14.488 9.63 14.488 9.63s5.553-5.082.46-13.353-11.888-4.077-12.006-1.466Z" fill="#407BFF"/><path opacity=".2" d="M381.583 384.847s-4.183 1.541-2.942 5.189c1.241 3.649 14.488 9.63 14.488 9.63s5.553-5.082.46-13.353-11.888-4.077-12.006-1.466Z" fill="#191919"/><path d="M363.372 377.903s4.462-.193 4.719 3.659c.257 3.852-9.63 14.477-9.63 14.477s-7.084-2.557-5.564-12.155c1.519-9.598 9.373-8.314 10.475-5.981Z" fill="#407BFF"/><path opacity=".2" d="M363.372 377.903s4.462-.193 4.719 3.659c.257 3.852-9.63 14.477-9.63 14.477s-7.084-2.557-5.564-12.155c1.519-9.598 9.373-8.314 10.475-5.981Z" fill="#191919"/><path d="M359.595 359.52s2.975-.321 2.739-2.14c-.235-1.819-11.567-6.473-18.243 1.07 0 0 4.28 7.34 10.464 7.437 6.185.096 5.04-6.367 5.04-6.367Z" fill="#407BFF"/><path opacity=".2" d="M359.595 359.52s2.975-.321 2.739-2.14c-.235-1.819-11.567-6.473-18.243 1.07 0 0 4.28 7.34 10.464 7.437 6.185.096 5.04-6.367 5.04-6.367Z" fill="#191919"/><path d="M365.137 355.101s-2.685 1.305-3.445-.364c-.76-1.669 6.42-11.609 16.05-8.742 0 0 .257 8.496-4.933 11.845-5.189 3.349-7.672-2.739-7.672-2.739Z" fill="#407BFF"/><path opacity=".2" d="M365.137 355.101s-2.685 1.305-3.445-.364c-.76-1.669 6.42-11.609 16.05-8.742 0 0 .257 8.496-4.933 11.845-5.189 3.349-7.672-2.739-7.672-2.739Z" fill="#191919"/><path d="M351.056 383.381s2.055-1.659-.16-2.472c-2.215-.813-13.086-.577-13.193 10.187 0 0 12.658 2.14 14.22-1.991 1.562-4.13-.867-5.724-.867-5.724Z" fill="#407BFF"/><path opacity=".2" d="M351.056 383.381s2.055-1.659-.16-2.472c-2.215-.813-13.086-.577-13.193 10.187 0 0 12.658 2.14 14.22-1.991 1.562-4.13-.867-5.724-.867-5.724Z" fill="#191919"/><path d="M376.875 359.231s-2.054-1.658.161-2.472c2.215-.813 13.086-.577 13.193 10.187 0 0-12.658 2.14-14.22-1.99-1.563-4.131.866-5.725.866-5.725Z" fill="#407BFF"/><path opacity=".2" d="M376.875 359.231s-2.054-1.658.161-2.472c2.215-.813 13.086-.577 13.193 10.187 0 0-12.658 2.14-14.22-1.99-1.563-4.131.866-5.725.866-5.725Z" fill="#191919"/><path d="M370.22 367.898s-.182-2.011 1.445-1.22c1.626.792 7.297 6.902 1.423 12.701 0 0-7.908-5.853-6.485-8.902 1.424-3.05 3.617-2.579 3.617-2.579Z" fill="#407BFF"/><path opacity=".2" d="M370.22 367.898s-.182-2.011 1.445-1.22c1.626.792 7.297 6.902 1.423 12.701 0 0-7.908-5.853-6.485-8.902 1.424-3.05 3.617-2.579 3.617-2.579Z" fill="#191919"/><path d="M349.227 370.776s1.219-1.615-.568-1.808c-1.786-.193-9.854 1.948-7.982 9.983 0 0 9.812-.738 10.229-4.076.418-3.339-1.679-4.099-1.679-4.099Z" fill="#407BFF"/><path opacity=".2" d="M349.227 370.776s1.219-1.615-.568-1.808c-1.786-.193-9.854 1.948-7.982 9.983 0 0 9.812-.738 10.229-4.076.418-3.339-1.679-4.099-1.679-4.099Z" fill="#191919"/><path d="M382.365 445.955h-33.663l-3.627-36.851h40.927l-3.637 36.851Z" fill="#263238"/><path opacity=".5" d="M382.365 445.955h-33.663l-3.627-36.851h40.927l-3.637 36.851Z" fill="#fff"/><path d="M387.8 405.038h-44.523v8.132H387.8v-8.132Z" fill="#263238"/><path opacity=".2" d="M387.8 405.038h-44.523v8.132H387.8v-8.132Z" fill="#fff"/><path d="M195.799 429.776v1.199l4.141 1.658h-4.141v2.825h3.574l3.777 2.472h-2.835l3.777 2.193h-3.777v5.618l-66.747.032v-3.135l-2.514-2.515h3.07v-7.019h-5.478v-2.365h-2.718v-.963h69.871Z" fill="#407BFF"/><path opacity=".7" d="M195.799 429.776v1.199l4.141 1.658h-4.141v2.825h3.574l3.777 2.472h-2.835l3.777 2.193h-3.777v5.618l-66.747.032v-3.135l-2.514-2.515h3.07v-7.019h-5.478v-2.365h-2.718v-.963h69.871Z" fill="#fff"/><path opacity=".1" d="M195.799 429.776v1.199l4.141 1.658h-4.141v2.825h3.574l3.777 2.472h-2.835l3.777 2.193h-3.777v5.618l-36.338.032v-3.135l-2.503-2.515h3.06v-7.019h-5.468v-2.365h-2.728v-.963h39.461Z" fill="#191919"/><path opacity=".1" d="M134.124 433.104h30.41l.139 2.118-30.549-2.118ZM128.646 430.739h30.42l-30.42 1.07v-1.07ZM134.124 440.123h30.41L134.124 439v1.123ZM133.568 442.638h30.409v1.155l-30.409-1.155ZM195.799 430.975l-31.265-.236 31.265-.706v.942ZM195.799 432.633h-31.821l31.821 1.059v-1.059ZM200.315 437.93h-35.31V439l35.31-1.07ZM200.315 440.123h-25.584l25.584.706v-.706Z" fill="#191919"/><path d="M202.048 414.047v1.199l4.141 1.647h-4.141v2.836h3.574l3.777 2.461h-2.835l3.777 2.193h-3.777v5.629l-66.747.021v-3.135l-2.515-2.515h3.071v-7.019h-5.478v-2.354h-2.718v-.963h69.871Z" fill="#407BFF"/><path opacity=".7" d="M202.048 414.047v1.199l4.141 1.647h-4.141v2.836h3.574l3.777 2.461h-2.835l3.777 2.193h-3.777v5.629l-66.747.021v-3.135l-2.515-2.515h3.071v-7.019h-5.478v-2.354h-2.718v-.963h69.871Z" fill="#fff"/><path opacity=".1" d="M202.048 414.047v1.199l4.141 1.647h-4.141v2.836h3.574l3.777 2.461h-2.835l3.777 2.193h-3.777v5.629l-36.338.021v-3.135l-2.503-2.515h3.06v-7.019h-5.468v-2.354h-2.729v-.963h39.462Z" fill="#191919"/><path opacity=".1" d="M140.373 417.364h30.41l.139 2.129-30.549-2.129ZM134.895 415.01h30.42l-30.42 1.06v-1.06ZM140.373 424.383h30.41l-30.41-1.123v1.123ZM139.817 426.898h30.409v1.155l-30.409-1.155ZM202.048 415.246l-31.265-.236 31.265-.706v.942ZM202.048 416.893h-31.822l31.822 1.06v-1.06ZM206.564 422.19h-35.31v1.07l35.31-1.07ZM206.564 424.383H180.98l25.584.707v-.707Z" fill="#191919"/><path d="m201.633 399.819-4.877.745 5.662 37.084 4.876-.744-5.661-37.085Z" fill="#407BFF"/><path d="m201.633 399.819-4.877.745 5.662 37.084 4.876-.744-5.661-37.085Z" fill="#fff" opacity=".7"/><g opacity=".2" fill="#191919"><path d="m198.281 401.219-1.386.211.059.381 1.385-.212-.058-.38ZM198.479 402.321l-1.385.212.058.38 1.385-.212-.058-.38ZM198.667 403.416l-1.386.212.06.392 1.386-.212-.06-.392ZM198.79 404.559l-1.386.211.058.381 1.386-.211-.058-.381ZM198.968 405.686l-1.386.212.059.381 1.385-.212-.058-.381ZM199.155 406.793l-1.385.211.06.392 1.385-.212-.06-.391ZM199.311 407.91l-1.386.211.058.381 1.386-.211-.058-.381ZM199.531 408.992l-1.385.212.058.381 1.386-.212-.059-.381ZM199.568 410.903l-1.388.21.06.392 1.387-.21-.059-.392Z"/><path d="m199.835 411.236-1.386.212.058.381 1.386-.212-.058-.381ZM199.987 412.369l-1.386.211.059.381 1.385-.212-.058-.38ZM200.164 413.475l-1.386.212.06.391 1.385-.212-.059-.391ZM200.319 414.603l-1.386.211.059.381 1.385-.212-.058-.38ZM200.496 415.709l-1.386.212.058.38 1.386-.211-.058-.381ZM200.683 416.815l-1.386.212.06.391 1.386-.211-.06-.392ZM200.84 417.943l-1.386.211.058.381 1.386-.211-.058-.381ZM200.807 419.928l-1.387.21.057.382 1.388-.21-.058-.382Z"/><path d="m201.193 420.166-1.385.212.059.391 1.386-.211-.06-.392ZM201.349 421.283l-1.386.212.058.381 1.386-.212-.058-.381ZM201.525 422.4l-1.385.212.058.381 1.385-.212-.058-.381ZM201.598 424.309l-1.387.21.059.392 1.388-.211-.06-.391Z"/><path d="m201.848 424.636-1.385.211.058.381 1.385-.211-.058-.381ZM202.025 425.753l-1.386.211.058.381 1.386-.211-.058-.381ZM202.242 426.831l-1.386.212.06.391 1.386-.212-.06-.391Z"/></g><path d="M208.682 405.755h-1.883v24.974h1.883v-24.974ZM208.522 402.919h-1.573l-.161 2.836h1.894l-.16-2.836Z" fill="#407BFF"/><path d="M208.522 402.919h-1.573l-.161 2.836h1.894l-.16-2.836Z" fill="#fff" opacity=".8"/><path d="M208.682 405.755h-1.883v24.974h1.883v-24.974Z" fill="#191919" opacity=".3"/><path d="m218.34 408.561-1.646-.21-3.195 25.049 1.645.21 3.196-25.049Z" fill="#263238"/><path d="m219.147 406.536-.492-.567.106-3.371-1.07-.128-1.305 5.842.086 1.263 1.648.203.235-.663-.353 4.44h.214c.484-2.313.795-4.66.931-7.019Z" fill="#263238"/><path d="m219.147 406.536-.492-.567.106-3.371-1.07-.128-1.305 5.842.086 1.263 1.648.203.235-.663-.353 4.44h.214c.484-2.313.795-4.66.931-7.019Z" fill="#fff" opacity=".1"/><path d="m215.477 414.411-5.158.267.193-5.189 4.237-.214.728 5.136Z" fill="#263238"/><path d="m215.477 414.411-5.158.267 1.199 14.007 4.237-.214-.278-14.06Z" fill="#407BFF"/><path d="M217.424 421.537h-19.132l1.531 24.418h16.071l1.53-24.418Z" fill="#263238"/><path d="M217.702 420.606h-19.688v2.493h19.688v-2.493Z" fill="#263238"/><path d="M217.702 420.606h-19.688v2.493h19.688v-2.493Z" fill="#fff" opacity=".2"/><path d="M346.273 313.553h102.646V210.908H346.273v102.645Z" fill="#407BFF"/><path opacity=".7" d="M448.908 210.918H346.263v102.646h102.645V210.918Z" fill="#fff"/><path opacity=".7" d="M443.761 216.065h-92.352v92.341h92.352v-92.341Z" fill="#fff"/><path d="M388.485 278.575c-.61.663-1.07 1.134-1.616 1.669a50.325 50.325 0 0 1-1.605 1.498 53.868 53.868 0 0 1-3.317 2.846 61.753 61.753 0 0 1-7.233 5.029 47.126 47.126 0 0 1-8.175 3.905 32.228 32.228 0 0 1-9.352 1.991h-1.284a10.563 10.563 0 0 1-2-.182 10.306 10.306 0 0 1-3.596-1.477 13.919 13.919 0 0 1-4.109-4.494 30.776 30.776 0 0 1-3.21-8.817 69.565 69.565 0 0 1-1.401-16.959l5.446-.343a105.72 105.72 0 0 0 3.98 14.98 24.935 24.935 0 0 0 3.029 6.078 3.974 3.974 0 0 0 1.444 1.327h.161l.727-.096c4.195-.568 8.56-2.601 12.637-5.222a65.891 65.891 0 0 0 5.981-4.366 55.244 55.244 0 0 0 2.846-2.429l1.37-1.251 1.252-1.199 8.025 7.512Z" fill="#EBC0BB"/><path d="m363.725 281.624 5.896 13.054s.62-.203 1.669-.588l2.921-1.124c6.527-2.6 17.045-8.121 19.442-12.337 3.584-6.302-2.482-10.882-13.45-8.485-4.74 1.07-8.977 4.751-12.187 6.73-1.07.653-1.969 1.231-2.675 1.691-1.017.652-1.616 1.059-1.616 1.059Z" fill="#263238"/><path opacity=".3" d="M393.321 281.41c-1.444-2.75-5.253.214-11.556 1.006-2.803.364-12.476 7.49-13.278 9.769l1.134 2.514s20.255-6.965 23.7-13.289Z" fill="#191919"/><path d="m347.172 265.499 1.477-8.25-7.95 1.22s-.15 7.95 2.279 8.496l4.194-1.466ZM343.994 251.375l-5.307 2.29 2.012 4.804 7.95-1.22-4.655-5.874Z" fill="#EEC1BB"/><path d="M423.72 274.53c-.246.76-.471 1.519-.706 2.29a183.214 183.214 0 0 0-6.196 31.34v.268h-41.451c1.455-24.215 7.993-36.584 7.993-36.584s1.519-.331 4.076-.642c2.001-.235 4.516-.471 7.062-.513 5.508.103 11.006.518 16.468 1.241 2.867.353 5.767.931 8.078 1.444 2.782.6 4.676 1.156 4.676 1.156Z" fill="#263238"/><path opacity=".3" d="M416.819 308.16a184.13 184.13 0 0 1 6.227-31.319c-2.568-.417-7.019-.492-8.068 3.627-1.123 4.42-.888 15.066 1.841 27.692Z" fill="#191919"/><path d="M425.657 279.324a68.494 68.494 0 0 1 1.797 3.52c.557 1.177 1.07 2.343 1.616 3.52 1.07 2.365 1.99 4.762 2.846 7.212a71.524 71.524 0 0 1 3.702 15.44l.065.514v.941a7.086 7.086 0 0 1-.129 1.552c0 .16-.053.289-.096.46-.043.171-.118.374-.182.556a4.232 4.232 0 0 1-.225.535c-.096.193-.224.407-.342.61-.266.39-.574.749-.92 1.07a5.875 5.875 0 0 1-1.167.845 6.871 6.871 0 0 1-1.134.493c-.32.089-.645.161-.973.214a7.393 7.393 0 0 1-2.504-.107 12.779 12.779 0 0 1-2.729-.931 20.8 20.8 0 0 1-2.001-1.07 59.607 59.607 0 0 1-6.527-4.558 117.405 117.405 0 0 1-11.235-10.23l3.456-4.28c4.152 2.558 8.346 5.168 12.477 7.565a63.532 63.532 0 0 0 6.088 3.21c.443.2.897.375 1.359.525.254.107.526.169.802.181 0 0-.107-.085-.652 0a2.362 2.362 0 0 0-.525.118 3.749 3.749 0 0 0-.727.3c-.286.156-.548.35-.781.578a4.458 4.458 0 0 0-.642.749 3.552 3.552 0 0 0-.6 1.926v.107-.097l-.085-.406a63.192 63.192 0 0 0-1.723-6.549c-.706-2.193-1.509-4.387-2.354-6.58-.845-2.194-1.787-4.355-2.75-6.517a212.116 212.116 0 0 0-2.974-6.334l9.769-5.082Z" fill="#EBC0BB"/><path d="M413.148 286.995c1.274 4.965 8.421 16.168 8.421 16.168l14.178-2.846s-.139-.621-.396-1.691c-.193-.791-.449-1.851-.77-3.06-1.916-7.158-5.971-19.966-10.818-21.047-7.244-1.615-12.883 3.467-10.615 12.476Z" fill="#263238"/><path d="m412.003 253.408-4.686 3.328-6.42 4.526c.12.815.188 1.637.203 2.461.075 3.274-.984 6.174-5.863 6.944 0 0-5.96 3.339 2.418 4.655-.038.918.033 1.838.214 2.739a10.68 10.68 0 0 1 2.91-2.418c9.234.535 10.775-3.649 10.775-3.649-3.274-3.809-1.177-13.364.449-18.586Z" fill="#EEC1BB"/><path opacity=".2" d="M400.94 261.262c.12.815.188 1.637.203 2.461 2.268-.289 5.446-2.45 5.928-4.708a9.989 9.989 0 0 0 .246-2.279l-6.377 4.526Z" fill="#191919"/><path d="M398.917 233.806c-3.691 1.348-6.42 11.256-2.054 13.76 4.366 2.504 9.052-16.307 2.054-13.76Z" fill="#263238"/><path d="M414.39 245.918c-2.055 6.923-2.911 11.075-7.319 13.974a9.391 9.391 0 0 1-9.708.484 9.4 9.4 0 0 1-4.941-8.37c-.053-6.601 3.328-16.831 10.882-18.265a9.51 9.51 0 0 1 9.054 2.892 9.52 9.52 0 0 1 2.032 9.285Z" fill="#EEC1BB"/><path d="M411.362 241.167c-2.001 3.692-1.07 9.802.898 10.989 2.14 2.14 6.784-1.391 7.983-3.574 1.07-1.947 1.99-6.644 1.23-8.816l-10.111 1.401Z" fill="#263238"/><path d="M415.46 253.387a7.698 7.698 0 0 1-4.666 2.322c-2.247.214-2.6-1.884-1.316-3.788 1.145-1.712 3.702-3.884 5.65-3.21 1.947.674 1.904 3.06.332 4.676Z" fill="#EEC1BB"/><path d="M403.23 245.779c-.14.567-.546.974-.931.899-.386-.075-.567-.599-.439-1.166.128-.568.546-.974.92-.899.375.075.61.588.45 1.166ZM396.724 244.506c-.129.567-.546.973-.92.899-.375-.075-.578-.6-.439-1.167.139-.567.546-.973.92-.899.375.075.567.621.439 1.167Z" fill="#263238"/><path d="M398.725 245.191a21.96 21.96 0 0 1-3.884 4.344 3.35 3.35 0 0 0 2.632 1.07l1.252-5.414Z" fill="#D4827D"/><path d="M405.723 244.088h.171a.338.338 0 0 0 .195-.33.35.35 0 0 0-.035-.13 3.205 3.205 0 0 0-2.429-1.926.347.347 0 0 0-.136.006.335.335 0 0 0-.249.294.333.333 0 0 0 .172.336c.04.022.083.034.128.038a2.656 2.656 0 0 1 1.894 1.541.337.337 0 0 0 .289.171ZM394.445 241.734a.327.327 0 0 0 .166-.026.333.333 0 0 0 .133-.102 2.832 2.832 0 0 1 2.258-1.145.35.35 0 0 0 .39-.171.355.355 0 0 0-.187-.504.36.36 0 0 0-.149-.02 3.573 3.573 0 0 0-2.857 1.412.34.34 0 0 0 0 .482c.07.054.157.08.246.074ZM396.232 251.921s2.076-.546 7.907-.417c-.717 2.14-2.012 3.926-4.997 3.83-2.985-.096-2.91-3.413-2.91-3.413Z" fill="#263238"/><path d="M400.555 253.644a4.619 4.619 0 0 0-3.275.984 2.773 2.773 0 0 0 1.862.706 4.576 4.576 0 0 0 3.21-.995 2.778 2.778 0 0 0-1.797-.695Z" fill="#A02724"/><path d="M396.488 251.867c.161.471.322.942.899 1.07a24.678 24.678 0 0 0 5.168-.428 1.614 1.614 0 0 0 1.327-1.07 37.889 37.889 0 0 0-7.394.428Z" fill="#fff"/><path d="M356.738 277.601a1.424 1.424 0 0 0 1.637-1.156l.193-1.145 41.302 7.18-.193 1.145a1.41 1.41 0 0 0 1.156 1.637 4.275 4.275 0 0 1 2.625 1.52 4.272 4.272 0 0 1 .959 2.878 4.148 4.148 0 0 1-1.581 2.949 4.148 4.148 0 0 1-3.245.817h-.171a1.41 1.41 0 0 0-1.637 1.156l-.203 1.134-41.302-7.169.192-1.145a1.405 1.405 0 0 0-.629-1.44 1.406 1.406 0 0 0-.515-.197h-.182a4.129 4.129 0 0 1-3.264-5.168 4.283 4.283 0 0 1 4.858-2.996Z" fill="#407BFF"/><path opacity=".2" d="M354.833 280.34a1.5 1.5 0 0 0-.56 2.113 1.49 1.49 0 0 0 .98.676 1.498 1.498 0 1 0-.42-2.789Z" fill="#191919"/><path opacity=".2" d="m354.56 281.982.272.435 1.934-1.206-.272-.436-1.934 1.207ZM399.859 290.73a1.497 1.497 0 0 0 2.006-1.796 1.496 1.496 0 0 0-2.394-.748c-.159.132-.29.295-.384.48a1.5 1.5 0 0 0 .772 2.064Z" fill="#191919"/><path opacity=".2" d="m401.438 290.16.231-.458-2.036-1.026-.231.459 2.036 1.025Z" fill="#191919"/><path d="M370.841 290.056a.696.696 0 0 1-.632-.45c-.535-1.23.214-3.927 1.552-5.564.331-.419.728-.78 1.177-1.07.226-.809.356-1.642.385-2.482a13.687 13.687 0 0 0-2.279 2.215c-1.434 1.583-2.911 3.21-4.28 3.285a1.395 1.395 0 0 1-1.391-.771 2.148 2.148 0 0 1-.236-1.07 16.273 16.273 0 0 1-4.28-.62l.289-.985c1.325.386 2.698.58 4.077.578a4.042 4.042 0 0 1 .664-1.455 1.314 1.314 0 0 1 1.337-.631l.321.074c.524.107.931.193 1.07.61.139.418-.235.835-1.134 1.691-.38.329-.842.547-1.338.631-.018.228.023.456.118.664.064.128.139.235.439.224.931 0 2.386-1.658 3.552-2.953a9.71 9.71 0 0 1 2.943-2.611.76.76 0 0 1 .646-.006.77.77 0 0 1 .424.488c.141.885.09 1.79-.15 2.653.353-.07.717-.07 1.07 0 .921.189 1.854.317 2.792.386 1.584.139 2.847.256 3.414 1.348.389-.09.788-.134 1.187-.129 1.712.065 1.937 1.595 2.066 2.419a3.1 3.1 0 0 0 .117.61 8.57 8.57 0 0 0 2.675-1.552l.824-.653v2.376h6.335v1.07h-7.362v-1.295a5.188 5.188 0 0 1-2.686 1.156c-.727-.097-.834-.867-.931-1.477-.149-1.07-.299-1.509-1.07-1.53a3.436 3.436 0 0 0-.92.096 4.036 4.036 0 0 1-1.99 3.028 1.073 1.073 0 0 1-1.225-.049 1.093 1.093 0 0 1-.284-.325 1.517 1.517 0 0 1 .129-1.573 5.007 5.007 0 0 1 2.14-1.744c-.353-.45-1.07-.535-2.515-.664a21.137 21.137 0 0 1-2.921-.406 1.913 1.913 0 0 0-1.134.096c-.696 2.771-1.947 5.992-2.729 6.313a.703.703 0 0 1-.256.054Zm1.583-5.19a7.254 7.254 0 0 0-1.359 3.649 21.776 21.776 0 0 0 1.359-3.649Zm8.079.899a3.716 3.716 0 0 0-1.37 1.177c-.075.128-.203.374-.107.535.096.16.471-.139.931-.738.237-.291.422-.62.546-.974Zm-13.493-3.67s-.128 0-.289.257a2.488 2.488 0 0 0-.332.599c.141-.057.271-.136.386-.236l.567-.545-.332-.075Z" fill="#fff" opacity=".4"/><path d="m410.12 296.583-3.21-6.613-4.59 7.897s3.884 5.35 6.42 3.113l1.38-4.397Z" fill="#EEC1BB"/><path d="m400.373 288.033-3.521 6.699 5.436 3.135 4.644-7.897-6.559-1.937Z" fill="#EEC1BB"/><path d="M399.838 228.638s1.07-3.617-1.07-3.67c-4.708-.118-5.746 9.961-.974 11.962 4.772 2.001 12.487 0 12.487 0 .382 2.117.493 4.275.332 6.42-.332 2.964 10.015 4.911 10.7 2.333.738-2.772 1.187-10.7-2.579-13.643-3.767-2.942-9.951-3.969-9.951-3.969s4.847-3.275 3.263-3.97c-3.563-1.562-7.575 3.756-7.575 3.756s3.68-4.034 1.145-4.858c-4.131-1.359-5.778 5.639-5.778 5.639ZM400.822 275.643l2.408 4.601s9.565-2.279 12.765-7.49l-4.548-3.349a16.299 16.299 0 0 1-10.625 6.238ZM397.698 275.322l-5.821 2.739s-.963-4.28.545-7.394l5.276-2.257a9.51 9.51 0 0 0 0 6.912Z" fill="#263238"/><path opacity=".2" d="m400.822 275.643 2.408 4.601s9.565-2.279 12.765-7.49l-4.548-3.349a16.299 16.299 0 0 1-10.625 6.238ZM397.698 275.322l-5.821 2.739s-.963-4.28.545-7.394l5.276-2.257a9.51 9.51 0 0 0 0 6.912Z" fill="#fff"/><path opacity=".2" d="M448.908 210.918v17.249c-.972.25-1.971.376-2.975.374a11.61 11.61 0 0 1-5.859-1.584 11.622 11.622 0 0 1-4.092-16.039h12.926Z" fill="#191919"/><path d="M451.98 222.469c4.538-4.538 4.538-11.896 0-16.434s-11.895-4.538-16.433 0-4.538 11.896 0 16.434 11.895 4.538 16.433 0Z" fill="#407BFF"/><path d="m446.393 214.246 3.852 2.14-1.316 2.29-3.916-2.29v4.355h-2.568v-4.28l-3.873 2.258-1.359-2.29 3.884-2.14-3.884-2.14 1.359-2.322 3.873 2.29v-4.28h2.568v4.355l3.916-2.322 1.316 2.322-3.852 2.054Z" fill="#fff"/><path d="M323.75 271.62H221.105v102.645H323.75V271.62Z" fill="#407BFF"/><path opacity=".7" d="M323.75 271.62H221.105v102.645H323.75V271.62Z" fill="#fff"/><path opacity=".7" d="M318.592 369.118v-92.341h-92.34v92.341h92.34Z" fill="#fff"/><path d="M308.053 369.15H297c-.086-.845-.203-1.819-.31-2.9a1.683 1.683 0 0 0 0-.246c0-.246-.054-.471-.086-.717-.032-.246 0-.256 0-.385-.096-.867-.203-1.798-.31-2.75 0-.31 0-.631-.097-.963-.053-.524-.107-1.07-.171-1.583-1.155-11.139-2.054-25.284 2.365-24.963 6.869.492 9.255 33.063 9.726 34.475l-.064.032Z" fill="#263238"/><path opacity=".2" d="M304.79 369.15h-7.769c-.096-.856-.214-1.819-.331-2.9a1.683 1.683 0 0 0 0-.246c0-.246-.054-.471-.086-.717-.032-.246 0-.257 0-.385-.118-1.166-.267-2.418-.407-3.713-.053-.524-.107-1.07-.171-1.583 2.311-6.634 4.644-11.888 4.644-11.888a97.993 97.993 0 0 1 4.12 21.432Z" fill="#191919"/><path d="M300.135 369.15H259.7c0-1.412-.075-2.814-.139-4.205-.065-1.391-.15-2.771-.236-4.12 0-.385-.053-.77-.085-1.155-.107-1.22-.204-2.418-.343-3.585 0-.278-.064-.556-.085-.824a77.39 77.39 0 0 0-.503-3.541c0-.279-.075-.546-.129-.813-.053-.268-.096-.535-.15-.803l-.149-.781a37.399 37.399 0 0 0-.76-3.157c-.096-.321-.203-.62-.289-.92-.353-1.07-.738-2.225-1.123-3.381a2.948 2.948 0 0 1 .932-3.25 2.97 2.97 0 0 1 1.058-.548 102.52 102.52 0 0 1 11.128-2.504 107.323 107.323 0 0 1 15.269-1.605c6.612-.054 14.22.684 14.22.684.043.036.08.08.107.129l.139.203c.121.246.224.5.31.76a.635.635 0 0 1 .065.203l.064.203c.018.077.043.153.075.225 0 .171.085.332.128.535l.096.385c0 .139.065.279.086.439.021.161.096.524.139.813.15.888.278 1.958.417 3.275 0 .395.075.845.129 1.348.053.503.107 1.07.171 1.669.784 8.09.748 16.238-.107 24.321Z" fill="#263238"/><path opacity=".1" d="M300.135 369.15H259.71a172.435 172.435 0 0 0-.385-8.325c0-.385-.053-.77-.085-1.155-.107-1.22-.204-2.418-.343-3.585 0-.278-.064-.556-.085-.824a77.39 77.39 0 0 0-.503-3.541c0-.279-.075-.546-.129-.813-.053-.268-.096-.535-.15-.803l-.149-.781a37.399 37.399 0 0 0-.76-3.157c-.096-.321-.203-.62-.289-.92-.353-1.07-.738-2.225-1.123-3.381a2.948 2.948 0 0 1 .932-3.25 2.97 2.97 0 0 1 1.058-.548 102.52 102.52 0 0 1 11.128-2.504 107.323 107.323 0 0 1 15.269-1.605c6.612-.054 14.22.684 14.22.684.264.311.454.677.556 1.07a.64.64 0 0 1 .065.204c.147.442.268.892.363 1.348 0 .139.065.278.086.439.193 1.005.396 2.332.567 4.087.064.792.171 1.798.289 3.017.785 8.098.75 16.253-.107 24.343Z" fill="#fff"/><path opacity=".2" d="M267.061 369.15h-7.351a172.435 172.435 0 0 0-.385-8.325c0-.385-.053-.77-.085-1.155-.107-1.22-.204-2.418-.343-3.585 0-.278-.064-.556-.085-.824a106.75 106.75 0 0 1 8.249 13.889Z" fill="#191919"/><path d="M277.023 332.149s-9.052-.727-11.299 3.938 2.086 11.588 2.086 11.588l6.538-4.89 13.482 4.89 3.456-4.687 2.632 1.424s.118-14.328-16.895-12.263Z" fill="#407BFF"/><path opacity=".2" d="M277.023 332.149s-9.052-.727-11.299 3.938 2.086 11.588 2.086 11.588l6.538-4.89 13.482 4.89 3.456-4.687 2.632 1.424s.118-14.328-16.895-12.263Z" fill="#fff"/><path d="M270.378 336.761s3.414 4.879 16.275 9.224c0 0 5.735-7.287-2.975-10.615 0 0-1.819-.567-2.204-3.445-.188-2.037.075-4.09.771-6.014.099-.306.206-.627.321-.963l-10.593-6.623s3.723 13.375-1.595 18.436Z" fill="#E4897B"/><path opacity=".2" d="M274.348 322.166s.567 7.576 7.126 9.759c-.188-2.037.075-4.09.771-6.014-3.863-2.033-7.897-3.745-7.897-3.745Z" fill="#191919"/><path d="m245.758 333.059-.899 12.337-6.516.257 2.193-13.504 5.222.91Z" fill="#E4897B"/><path d="M287.937 299.985a10.808 10.808 0 0 0-8.153-11.716 13.846 13.846 0 0 0-6.987-.182 17.406 17.406 0 0 0-13.482 16.596c-.289 8.667 1.744 19.752 14.241 18.746 20.309-1.626 14.381-23.444 14.381-23.444Z" fill="#263238"/><path d="M277.13 296.818c8.753-.824 12.005 3.595 13.482 12.551 1.862 11.182.107 19.421-11.053 18.04-15.141-1.872-16.938-29.232-2.429-30.591Z" fill="#E4897B"/><path d="M284.93 309.401a18.596 18.596 0 0 0 2.879 3.392 2.395 2.395 0 0 1-2.205 1.209l-.674-4.601Z" fill="#DE5753"/><path d="M279.505 309.23c.086.728-.235 1.348-.706 1.402-.471.053-.941-.482-1.07-1.199-.128-.717.236-1.337.717-1.391.482-.053.974.428 1.059 1.188Z" fill="#263238"/><path d="m278.296 308.053 1.488-.792s-.621 1.402-1.488.792ZM288.397 308c.086.716-.235 1.337-.706 1.401-.471.064-.931-.481-1.017-1.198-.085-.717.236-1.348.707-1.402.47-.053.941.482 1.016 1.199Z" fill="#263238"/><path d="m287.188 306.855 1.487-.792s-.62 1.401-1.487.792ZM275.183 305.207a.343.343 0 0 1-.204-.054.383.383 0 0 1-.107-.524 4.913 4.913 0 0 1 3.991-1.84.368.368 0 0 1 .34.241.373.373 0 0 1-.093.406.38.38 0 0 1-.268.102 4.214 4.214 0 0 0-3.349 1.508.377.377 0 0 1-.31.161ZM288.729 302.96a.31.31 0 0 1-.171 0 3.769 3.769 0 0 0-3.21-.385.381.381 0 0 1-.141.036.372.372 0 0 1-.352-.218.378.378 0 0 1-.018-.283.365.365 0 0 1 .19-.21 4.463 4.463 0 0 1 3.894.407.376.376 0 0 1 .15.503.388.388 0 0 1-.342.15Z" fill="#263238"/><path d="M268.966 312.44s3.413-7.576 2.279-13.065c0 0 16.671-8.699 19.164 8.817 0 0 .235-15.782-14.831-14.723-15.065 1.059-12.947 23.048-4.568 28.89 0 0-4.152-5.179-2.044-9.919Z" fill="#263238"/><path d="M270.571 314.163a3.874 3.874 0 0 0-4.462-3.125c-2.686.557-3.456 6.238 3.413 6.945.985.096 1.445-.899 1.049-3.82Z" fill="#E4897B"/><path d="M286.953 317.373a22.004 22.004 0 0 0-.963 2.996h-.546c-2.504-.214-3.595-1.145-4.045-2.14a3.218 3.218 0 0 1-.267-1.509 3.2 3.2 0 0 1 .15-.867 11.87 11.87 0 0 0 4.815 1.434c.524.075.856.086.856.086Z" fill="#263238"/><path d="m286.097 317.287-.3.878c-2.354-.204-3.991-.675-4.665-1.445a3.2 3.2 0 0 1 .15-.867 11.87 11.87 0 0 0 4.815 1.434Z" fill="#fff"/><path d="M285.444 320.326c-2.504-.214-3.595-1.145-4.045-2.14.95.091 1.875.356 2.729.781.569.305 1.029.78 1.316 1.359Z" fill="#DE5753"/><path d="M261.936 305.742s4.205-6.698-2.921-9.341c-7.126-2.643-14.071 6.537-9.791 12.893a9.85 9.85 0 0 0 11.118 4.034l1.594-7.586Z" fill="#263238"/><path d="m240.921 335.21-2.985-9.555 8.656-1.231s3.028 6.42-.973 10.614l-4.698.172Z" fill="#E4897B"/><path d="m239.252 318.657 6.677.62.663 5.136-8.656 1.242 1.316-6.998Z" fill="#E4897B"/><path d="M257.688 338.024c-4.804-.204-12.915 20.736-12.915 20.736l1.07-19.517-7.49.568s-6.42 31.244-4.012 34.347c2.985 3.884 10.7 5.489 24.963-13.718 0 0 3.156-7.971 2.686-14.295-.471-6.324-4.302-8.121-4.302-8.121Z" fill="#263238"/><path d="m236.641 342.732.888-4.719 8.699-.375-.203 4.013-9.384 1.081Z" fill="#407BFF"/><path opacity=".2" d="m236.641 342.732.888-4.719 8.699-.375-.203 4.013-9.384 1.081Z" fill="#fff"/><path d="M294.806 383.499a1.423 1.423 0 0 1-1.412-1.423v-1.156H251.45v1.156a1.43 1.43 0 0 1-.417 1.006 1.418 1.418 0 0 1-1.006.417 4.281 4.281 0 0 0-4.28 3.723 4.111 4.111 0 0 0 1.049 3.176 4.118 4.118 0 0 0 3.06 1.35h.171a1.42 1.42 0 0 1 1.318.877c.071.174.106.359.105.547v1.155h41.944v-1.155a1.423 1.423 0 0 1 .41-1.006 1.418 1.418 0 0 1 1.002-.418h.182a4.118 4.118 0 0 0 4.109-4.526 4.281 4.281 0 0 0-4.291-3.723Z" fill="#407BFF"/><path opacity=".2" d="M296.219 386.505a1.499 1.499 0 1 1-2.498.906 1.5 1.5 0 0 1 2.498-.906Z" fill="#191919"/><path opacity=".2" d="m294.539 386.715-.342.382 1.698 1.52.343-.382-1.699-1.52ZM250.08 389.052a1.502 1.502 0 0 1-1.596-.48 1.5 1.5 0 0 1 .451-2.274 1.502 1.502 0 0 1 2.14.892 1.497 1.497 0 0 1-.995 1.862Z" fill="#191919"/><path opacity=".2" d="m250.795 387.52-.149-.491-2.181.662.149.491 2.181-.662Z" fill="#191919"/><path d="M263.134 392.23a.924.924 0 0 1-.235 0 .72.72 0 0 1-.439-.407c-.224-.492.064-1.166.621-2.418.299-.663.92-2.044.76-2.354a4.696 4.696 0 0 0-2.076.086c-.182.513-.578 1.07-1.07 1.177a.788.788 0 0 1-.76-.353.826.826 0 0 1 0-.963 2.265 2.265 0 0 1 1.07-.685 1.458 1.458 0 0 0-.353-1.156c-.439-.471-2.14 0-3.371.91-.781.567-1.07 1.134-1.005 1.348.62 1.07 2.375.663 2.386.663l.246 1.006c-.107 0-2.525.578-3.52-1.166-.45-.771 0-1.776 1.284-2.686 1.284-.909 3.712-1.883 4.74-.77.396.434.624.996.642 1.583a5.504 5.504 0 0 1 2.14 0 1.012 1.012 0 0 1 .685.535c.17.452.17.95 0 1.402l.321-.695c1.626-3.531 2.139-4.42 2.846-4.334 1.123.128 1.123 2.226 1.07 2.889.368-.1.744-.168 1.123-.203a2.584 2.584 0 0 1 2.204.578c.164.164.292.361.375.577 1.188-.631 3.028-1.466 3.884-1.123a.937.937 0 0 1 .588.588 1.06 1.06 0 0 1-.16.856 11.54 11.54 0 0 0 1.99-.31c.058-.231.152-.451.278-.653.321-.513.921-1.005 1.477-.877a.84.84 0 0 1 .631.835 1.13 1.13 0 0 1-.438.962c-.141.11-.292.207-.45.289a57.86 57.86 0 0 0 9.159-.845l.161 1.07c-4.408.664-9.823 1.284-10.561.375l-.075-.097a8.935 8.935 0 0 1-2.921.278.674.674 0 0 1-.298-.147.67.67 0 0 1-.194-.27.96.96 0 0 1 .235-.909l.096-.15a9.613 9.613 0 0 0-3.53 1.412l-.889.514.118-1.017a.797.797 0 0 0-.214-.599 1.657 1.657 0 0 0-1.359-.267c-.469.036-.93.14-1.369.31-.182.781-.557 1.177-1.017 1.188a.762.762 0 0 1-.835-.685c0-.407.311-.845.931-1.209a5.758 5.758 0 0 0-.139-2.14 31.229 31.229 0 0 0-1.808 3.584c-1.605 3.221-2.247 4.473-2.975 4.473Z" fill="#fff" opacity=".4"/><path d="M309.84 129.962H207.195v102.645H309.84V129.962Z" fill="#407BFF"/><path opacity=".7" d="M309.84 129.962H207.195v102.645H309.84V129.962Z" fill="#fff"/><path opacity=".7" d="M304.683 227.461V135.12h-92.342v92.341h92.342Z" fill="#fff"/><path d="m314.088 205.526 4.28-6.206 4.141 7.308s-4.205 5.35-6.848 3.028l-1.573-4.13ZM325.291 196.302l1.423 7.49-4.152 2.836-4.141-7.308 6.87-3.018Z" fill="#E4897B"/><path d="m307.572 213.444 7.661-9.534 4.462 3.852-6.816 8.827-5.307-3.145Z" fill="#E4897B"/><path d="M280.896 194.622c2.911 1.434 15.986 25.06 17.12 25.06 1.541 0 14.103-11.909 14.103-11.909l5.286 6.548s-15.932 18.939-21.775 17.473c-5.35-1.359-20.265-20.801-20.265-20.801l5.531-16.371Z" fill="#263238"/><path opacity=".2" d="M317.426 214.321s-15.953 18.939-21.796 17.473c-2.257-.578-6.281-4.451-10.154-8.71-5.19-5.703-10.111-12.091-10.111-12.091l2.995-8.881 2.536-7.49c2.9 1.434 15.986 25.049 17.12 25.049 1.541 0 14.092-11.898 14.092-11.898l5.318 6.548Z" fill="#fff"/><path opacity=".2" d="M285.476 223.084c-5.19-5.703-10.111-12.091-10.111-12.091l2.995-8.881c.345.267.657.572.931.91 3.692 4.44 6.281 12.198 6.185 20.062Z" fill="#191919"/><path d="M279.27 226.187c0 .428-.054.846-.075 1.274h-43.314c1.456-12.327 2.066-25.381 2.066-25.381h.845c.952 0 2.675-.117 4.879-.171 1.862 0 4.087-.086 6.506-.096 8.057 0 18.19.353 24.331 2.022a12.68 12.68 0 0 1 3.96 1.659 2.955 2.955 0 0 1 1.444 2.14c.171 2.428-.15 9.715-.642 18.553Z" fill="#263238"/><path d="M279.27 226.187c-.075.418-.15.835-.225 1.274h-42.8a241.04 241.04 0 0 0 1.851-14.403c.343-3.573.6-7.254.739-11.021.16-4.547.149-9.18-.107-13.824 0 0 3.327-.214 7.49-.139.877 0 1.787 0 2.707.086.92.085 1.615.085 2.439.139l.771.064a142.868 142.868 0 0 1 16.745 2.322c.674.15 1.338.321 1.99.492a77.53 77.53 0 0 1 9.031 3.092c.139.631 2.579 11.952-.631 31.918Z" fill="#407BFF"/><path opacity=".7" d="M279.27 226.187c-.075.418-.15.835-.225 1.274h-42.8a241.04 241.04 0 0 0 1.851-14.403c.343-3.573.6-7.254.739-11.021.16-4.547.149-9.18-.107-13.824 0 0 3.327-.214 7.49-.139.877 0 1.787 0 2.707.086.92.085 1.615.085 2.439.139l.771.064a142.868 142.868 0 0 1 16.745 2.322c.674.15 1.338.321 1.99.492a77.53 77.53 0 0 1 9.031 3.092c.139.631 2.579 11.952-.631 31.918Z" fill="#fff"/><path d="M259.764 170.13c-.278 5.511-1.68 15.419-6.26 18.04 0 0 9.042 7.126 11.77 7.105 1.916 0 4.676-3.146 4.676-3.146-5.542-2.825-4.28-7.147-2.236-10.989l-7.95-11.01Z" fill="#E4897B"/><path opacity=".2" d="m263.006 174.635 4.687 6.505a18.21 18.21 0 0 0-1.263 2.793c-2.14-.867-4.655-4.077-4.28-6.484a8.134 8.134 0 0 1 .856-2.814Z" fill="#191919"/><path d="M279.858 159.045c.899 2.857.407 8.742-3.584 6.826-3.991-1.915 2.044-11.738 3.584-6.826Z" fill="#263238"/><path d="M259.25 162.908c-.438 7.35-1.07 11.641 2.14 15.793 4.879 6.259 14.317 3.927 16.949-3.21 2.375-6.42 2.696-17.324-4.119-21.036a10.165 10.165 0 0 0-14.97 8.453Z" fill="#E4897B"/><path d="M264.408 158.916v-8.217s-8.742-.642-8.357 3.83c-4.836 2.397-2.547 9.93 3.959 13.622 3.563-2.847 3.146-9.716 3.146-9.716.385.171.813.321 1.252.481Z" fill="#263238"/><path d="M255.73 168.653a6.924 6.924 0 0 0 2.942 4.441c2.044 1.348 3.831-.31 3.906-2.632.064-2.14-.92-5.35-3.274-5.725a3.21 3.21 0 0 0-3.574 3.916Z" fill="#E4897B"/><path d="M270.111 166.192c-.075.6.182 1.07.567 1.156.385.086.77-.407.845-.995.075-.589-.192-1.07-.578-1.156-.385-.085-.759.396-.834.995ZM276.841 166.92c-.064.599.193 1.07.578 1.156.385.085.76-.396.834-.996.075-.599-.181-1.069-.577-1.155-.396-.086-.76.428-.835.995Z" fill="#263238"/><path d="M274.669 167.006a20.38 20.38 0 0 0 2.301 5.221 3.554 3.554 0 0 1-2.9.161l.599-5.382Z" fill="#DE5753"/><path d="M268.292 163.785a.338.338 0 0 0 .342-.096 2.81 2.81 0 0 1 2.386-.91.364.364 0 0 0 .418-.289.366.366 0 0 0-.279-.406 3.526 3.526 0 0 0-3.028 1.123.339.339 0 0 0-.104.246.341.341 0 0 0 .104.246.247.247 0 0 0 .161.086ZM280.03 164.962a.435.435 0 0 0 .203 0 .353.353 0 0 0 .214-.449 3.438 3.438 0 0 0-2.268-2.247.351.351 0 0 0-.434.251.354.354 0 0 0 .252.433 2.68 2.68 0 0 1 1.787 1.798.374.374 0 0 0 .1.133.389.389 0 0 0 .146.081ZM256.051 154.529s-4.687-4.28 10.604-4.526c15.29-.246 18.19 8.197 11.278 10.486l-.386-1.38a9.494 9.494 0 0 1-7.811.738l1.07-.738s-10.368 1.519-14.755-4.58ZM273.813 174.303c-.68.896-1.295 1.84-1.84 2.825l-.557-.193c-2.525-.941-3.392-2.204-3.584-3.328a3.362 3.362 0 0 1 .15-1.637 3.23 3.23 0 0 1 .395-.856 12.674 12.674 0 0 0 4.58 2.857c.524.225.856.332.856.332Z" fill="#263238"/><path d="m272.957 173.971-.567.824c-2.375-.888-3.927-1.83-4.409-2.825.09-.303.223-.591.396-.856a12.674 12.674 0 0 0 4.58 2.857Z" fill="#fff"/><path d="M271.416 176.935c-2.525-.941-3.392-2.204-3.584-3.328a8.736 8.736 0 0 1 2.6 1.595c.5.462.844 1.067.984 1.733Z" fill="#DE5753"/><path d="M265.264 195.286s-2.14 2.001-4.719 3.937c-3.017-2.022-10.037-7.276-9.181-11.256.589-1.07 3.735-1.487 3.735-1.487s2.771 4.729 10.165 8.806ZM265.264 195.286a21.285 21.285 0 0 1 3.627 4.932c2.547-1.252 2.247-8.881 1.477-9.812a8.428 8.428 0 0 0-3.949-1.562 6.981 6.981 0 0 1-1.155 6.442Z" fill="#407BFF"/><g opacity=".5" fill="#fff"><path d="M265.264 195.286s-2.14 2.001-4.719 3.937c-3.017-2.022-10.037-7.276-9.181-11.256.589-1.07 3.735-1.487 3.735-1.487s2.771 4.729 10.165 8.806ZM265.264 195.286a21.285 21.285 0 0 1 3.627 4.932c2.547-1.252 2.247-8.881 1.477-9.812a8.428 8.428 0 0 0-3.949-1.562 6.981 6.981 0 0 1-1.155 6.442Z"/></g><path d="M251.354 187.978v.321c0 1.316-.279 6.42-1.177 13.471-.578 4.483-1.423 9.758-2.675 15.312a128.771 128.771 0 0 1-2.74 10.336h-10.154c.054-.728.118-1.488.182-2.258s.139-1.798.214-2.718c.203-2.814.407-5.756.578-8.667v-.085c0-.642.085-1.306.118-1.958.074-1.466.16-2.9.235-4.28 0-.707.075-1.381.107-2.066 0-.909.086-1.797.128-2.642v-.867c0-.696.065-1.37.086-2.033.021-.663.064-1.359.096-2.012v-.749c0-.492 0-.973.064-1.433.065-.461 0-.728 0-1.07 0-.525 0-1.07.054-1.498 0-.728.064-1.402.086-2.001v-.471c.064-1.669.096-2.622.096-2.622a47.187 47.187 0 0 1 9.823-.385c1.583.064 3.177.171 4.879.375Z" fill="#263238"/><path opacity=".2" d="M251.354 187.978v.321c0 1.316-.279 6.42-1.177 13.471-.578 4.483-1.423 9.758-2.675 15.312a128.771 128.771 0 0 1-2.74 10.336h-10.154c.054-.728.118-1.488.182-2.258s.139-1.798.214-2.718c.203-2.814.407-5.756.578-8.667v-.085c0-.642.085-1.306.118-1.958.074-1.466.16-2.9.235-4.28 0-.707.075-1.381.107-2.066 0-.909.086-1.797.128-2.642v-.867c0-.696.065-1.37.086-2.033.021-.663.064-1.359.096-2.012v-.749c0-.492 0-.973.064-1.433.065-.461 0-.728 0-1.07 0-.525 0-1.07.054-1.498 0-.728 0-1.402.086-2.001v-.471c.064-1.669.096-2.622.096-2.622a47.187 47.187 0 0 1 9.823-.385c1.583.064 3.177.171 4.879.375Z" fill="#fff"/><path opacity=".2" d="M251.364 187.967a168.882 168.882 0 0 1-3.852 29.115l-5.211-20.78 5.511-.524-5.511-3.21 4.334-5.008c1.434.097 3.017.214 4.729.407Z" fill="#fff"/><path d="M280.34 227.461h-4.194c0-.963 0-1.926-.065-2.911 0-1.402-.096-2.75-.149-4.034a161.765 161.765 0 0 0-1.466-16.724c-1.498-10.111-3.467-12.423-3.638-12.604l3.563 1.219 5.457 1.884 1.006.342c.727 7.597.331 19.988-.514 32.828Z" fill="#263238"/><path opacity=".2" d="M280.34 227.461h-4.194c0-.963 0-1.926-.065-2.911 0-1.402-.096-2.75-.149-4.034a161.765 161.765 0 0 0-1.466-16.724c-1.498-10.111-3.467-12.423-3.638-12.604l3.563 1.219 5.457 1.884 1.006.342c.727 7.597.331 19.988-.514 32.828Z" fill="#fff"/><path opacity=".2" d="m274.701 199.801 4.077 2.557s-1.07 12.016-2.804 18.19c-1.07-24.61-4.857-29.05-5.104-29.318l3.564 1.21a24.06 24.06 0 0 1 4.857 6.312l-4.59 1.049Z" fill="#fff"/><path opacity=".2" d="M237.947 205.729a21.208 21.208 0 0 1-2.365 8.068c.171-2.857.321-5.703.471-8.411a4.458 4.458 0 0 1 1.894.343Z" fill="#191919"/><path d="M239.776 196.195a30.075 30.075 0 0 1-1.829 9.545s-14.884 13.31-14.477 16.553c.42 1.767.989 3.496 1.701 5.168h-11.043a16.548 16.548 0 0 1-.984-6.003c.824-7.64 19.26-33.01 23.647-33.48 0 0 3.189 2.589 2.985 8.217Z" fill="#263238"/><path opacity=".2" d="M239.776 196.195a30.075 30.075 0 0 1-1.829 9.545s-14.884 13.31-14.477 16.553c.42 1.767.989 3.496 1.701 5.168h-11.043a16.548 16.548 0 0 1-.984-6.003c.824-7.64 19.26-33.01 23.647-33.48 0 0 3.189 2.589 2.985 8.217Z" fill="#fff"/><path d="M280.896 241.82a1.419 1.419 0 0 1-1.009-.414 1.4 1.4 0 0 1-.414-1.009v-1.156H237.54v1.156a1.43 1.43 0 0 1-.104.544 1.4 1.4 0 0 1-.765.77 1.408 1.408 0 0 1-.543.109 4.28 4.28 0 0 0-4.28 3.724 4.12 4.12 0 0 0 1.053 3.172c.387.426.858.766 1.384 1a4.15 4.15 0 0 0 1.671.354h.182c.376.003.735.154 1 .42.264.267.413.627.413 1.003v1.155h41.922v-1.155a1.42 1.42 0 0 1 1.423-1.423h.172a4.119 4.119 0 0 0 4.108-4.526 4.276 4.276 0 0 0-4.28-3.724Z" fill="#407BFF"/><path opacity=".2" d="M282.298 244.859a1.47 1.47 0 0 1 .431 1.633 1.47 1.47 0 0 1-.313.507 1.499 1.499 0 0 1-2.226-1.99 1.48 1.48 0 0 1 2.108-.15Z" fill="#191919"/><path opacity=".2" d="m280.628 245.036-.343.383 1.699 1.519.342-.382-1.698-1.52ZM236.16 247.395a1.51 1.51 0 0 1-1.691-.418 1.49 1.49 0 0 1-.35-1.152 1.505 1.505 0 0 1 .612-1.038 1.499 1.499 0 1 1 1.429 2.608Z" fill="#191919"/><path opacity=".2" d="m236.872 245.872-.149-.491-2.181.662.149.491 2.181-.662Z" fill="#191919"/><path d="M244.356 250.091a.771.771 0 0 1-.492-.171c-.268-.193-.814-.61.663-4.216l.107-.246a27.26 27.26 0 0 1-3.456 1.477l-.342-.963a26.002 26.002 0 0 0 4.526-2.14c1.155-2.333 1.701-2.269 1.904-2.237a.698.698 0 0 1 .567.685c.097.77-.642 1.552-1.669 2.247a20.046 20.046 0 0 0-1.594 4.408 16.867 16.867 0 0 0 2.14-1.883 13.898 13.898 0 0 1 3.21-2.632 1.653 1.653 0 0 1 1.541 0c.207.208.358.466.439.748.08.283.087.582.021.868.556 0 2.001.107 5.821.117a3.284 3.284 0 0 1 1.23-3.381 1.611 1.611 0 0 1 1.84 0 1.725 1.725 0 0 1 .782 2.001 4.013 4.013 0 0 1-1.948 2.14l.3.097a3.108 3.108 0 0 0 2.579-.193 2.151 2.151 0 0 0 .855-1.402 1.006 1.006 0 0 1 1.07-.856 2.138 2.138 0 0 1 1.916 1.177 71.628 71.628 0 0 1 8.945-.353v1.07a69.438 69.438 0 0 0-8.924.353 1.173 1.173 0 0 1-.631.878.877.877 0 0 1-1.07-.439.686.686 0 0 1-.064-.738c.075-.161.171-.343.706-.514a.957.957 0 0 0-.278-.193 1.068 1.068 0 0 0-.706-.149 2.89 2.89 0 0 1-1.252 2.065 4.074 4.074 0 0 1-3.414.331 2.79 2.79 0 0 1-1.391-.791c-7.008 0-7.105-.14-7.308-.418a1.073 1.073 0 0 1-.096-.738v-.77a1.706 1.706 0 0 0-.514.149 13.976 13.976 0 0 0-2.867 2.419c-1.402 1.241-2.408 2.193-3.146 2.193Zm15.483-6.591a.655.655 0 0 0-.364.128 2.265 2.265 0 0 0-.824 2.076c.02.137.06.27.118.396a3.095 3.095 0 0 0 1.776-1.637.674.674 0 0 0-.353-.845.66.66 0 0 0-.353-.118Z" fill="#fff" opacity=".4"/><path d="M199.181 271.62H96.535v102.645h102.646V271.62Z" fill="#407BFF"/><path opacity=".7" d="M199.181 271.62H96.535v102.645h102.646V271.62Z" fill="#fff"/><path opacity=".7" d="M194.023 369.118v-92.341h-92.341v92.341h92.341Z" fill="#fff"/><path d="M191.359 343.737a91.332 91.332 0 0 0-9.341-10.432 9.415 9.415 0 0 0-13.525 13.075l.128.139c2.729 3.071 5.757 6.196 8.56 9.181 1.381 1.509 2.782 2.975 3.949 4.376.577.685 1.145 1.349 1.487 1.798.053.058.103.119.15.182a.977.977 0 0 1 0 .171 17.407 17.407 0 0 1-.46 2.482c-.279 1.413-.707 2.889-1.156 4.409h12.84v-21.71a46.548 46.548 0 0 0-2.632-3.671Z" fill="#E9B376"/><path d="M166.813 324.21c8.71.631 20.084 12.219 20.084 12.219.77 3.467-3.788 15.398-9.78 20.084 0 0-6.259.653-10.7-6.42-4.911-7.789-8.849-26.568.396-25.883Z" fill="#407BFF"/><path d="M182.2 350.446a23.124 23.124 0 0 1-5.083 6.035 10.251 10.251 0 0 1-5.136-1.177 14.032 14.032 0 0 1-5.607-5.275c-4.868-7.725-8.806-26.504.428-25.851 8.721.631 20.095 12.23 20.095 12.23.535 2.375-1.455 8.753-4.697 14.038Z" fill="#fff" opacity=".6"/><path opacity=".2" d="M182.2 350.446a23.124 23.124 0 0 1-5.083 6.035 10.251 10.251 0 0 1-5.136-1.177c-2.365-5.136-3.927-11.353-3.274-16.831 0 0 9.384 2.857 13.493 11.973Z" fill="#191919"/><path d="M183.238 369.15h-67.143c.289-2.547.567-5.2.824-7.907.182-1.937.353-3.906.481-5.907l.097-1.38v-.246c.064-.942.107-1.873.149-2.825.065-1.177.118-2.343.15-3.531.187-4.904.123-9.815-.192-14.712a12.102 12.102 0 0 1 3.121-9.077 12.105 12.105 0 0 1 8.745-3.956 162.063 162.063 0 0 1 35.642 4.077c4.087.963 8.121 3.852 8.667 8.025 1.883 14.573 7.458 25.059 9.459 37.439Z" fill="#407BFF"/><path opacity=".2" d="M130.54 342.154s-3.06 14.102-13.643 19.057c.418-4.484.749-9.16.899-13.91a246.155 246.155 0 0 1 12.744-5.147Z" fill="#191919"/><path d="M159.248 325.002a7.488 7.488 0 0 0-3.146-3.863 7.069 7.069 0 0 1 .493-4.697l-16.8-7.865c.664 5.982 1.177 10.7-1.348 13.236 3.21 2.547 8.999 7.148 15.9 7.854 6.902.706 5.714-2.087 4.901-4.665Z" fill="#EBB376"/><path opacity=".2" d="m156.38 316.966-13-2.482c3.542 4.932 9.555 7.393 12.626 5.981a7.15 7.15 0 0 1 .374-3.499Z" fill="#191919"/><path d="m154.765 329.699-2.536-2.739-4.077 1.423s2.151 2.6 6.613 1.316Z" fill="#407BFF"/><path opacity=".5" d="m154.765 329.699-2.536-2.739-4.077 1.423s2.151 2.6 6.613 1.316Z" fill="#fff"/><path d="M140.17 318.068s4.751 7.586 12.07 8.892a9.804 9.804 0 0 0-5.896 6.184s-8.817-3.991-9.277-13.984a3.583 3.583 0 0 1 3.103-1.092ZM154.765 329.699l3.595-2.461 3.948 1.744s-3.552 3.103-7.543.717Z" fill="#407BFF"/><path opacity=".5" d="m154.765 329.699 3.595-2.461 3.948 1.744s-3.552 3.103-7.543.717Z" fill="#fff"/><path d="M156.102 321.139s2.44 3.681 2.258 6.099c3.317 1.412 4.28 6.677 4.28 6.677s1.562-7.126-3.328-11.77a5.873 5.873 0 0 0-3.21-1.006Z" fill="#407BFF"/><path opacity=".7" d="M140.17 318.068s4.751 7.586 12.07 8.892a9.804 9.804 0 0 0-5.896 6.184s-8.817-3.991-9.277-13.984a3.583 3.583 0 0 1 3.103-1.092ZM156.102 321.139s2.44 3.681 2.258 6.099c3.317 1.412 4.28 6.677 4.28 6.677s1.562-7.126-3.328-11.77a5.873 5.873 0 0 0-3.21-1.006Z" fill="#fff"/><path d="M154.455 287.894s3.744.845 4.986 3.21c1.241 2.365 2.878 11.203.374 12.134-2.504.931-9.63-1.626-9.94-4.697-.31-3.071 4.58-10.647 4.58-10.647Z" fill="#263238"/><path d="M137.538 299.268c1.07 7.811 2.033 13.097 7.169 16.232 10.186 6.228 15.697 1.744 17.12-6.163 1.284-7.115-.749-18.704-9.224-21.454-8.474-2.749-16.178 3.574-15.065 11.385Z" fill="#EBB376"/><path opacity=".2" d="M149.928 299.953a3.898 3.898 0 0 0-2.985 0c.986.193 2 .193 2.985 0ZM149.886 300.67a3.212 3.212 0 0 0-2.611.695c.91-.044 1.8-.281 2.611-.695ZM157.558 292.838a35.467 35.467 0 0 0-7.49-.225c4.183.278 7.49.225 7.49.225ZM158.606 293.662s-5.703-.129-8.474.748a67.76 67.76 0 0 0 8.474-.748Z" fill="#191919"/><path d="M152.368 300.178c0 .695.428 1.23.877 1.198.45-.032.792-.61.749-1.294-.042-.685-.428-1.231-.877-1.199-.449.032-.792.61-.749 1.295ZM159.484 299.975c0 .684.438 1.219.888 1.187.449-.032.781-.61.749-1.295-.032-.684-.439-1.219-.889-1.198-.449.022-.802.61-.748 1.306ZM148.591 298.423a.695.695 0 0 1-.193-.064.42.42 0 0 1-.171-.261.41.41 0 0 1 .064-.306 4.084 4.084 0 0 1 3.21-1.873.403.403 0 0 1 .284.12.394.394 0 0 1 .112.287.389.389 0 0 1-.12.284.39.39 0 0 1-.286.112 3.22 3.22 0 0 0-2.515 1.519.408.408 0 0 1-.385.182ZM162.126 297.942a.406.406 0 0 1-.342-.161 3.214 3.214 0 0 0-2.557-1.402.395.395 0 0 1-.418-.385.419.419 0 0 1 .104-.294.4.4 0 0 1 .282-.134 3.996 3.996 0 0 1 3.21 1.734.405.405 0 0 1-.097.567.363.363 0 0 1-.182.075ZM160.404 308.941s-2.889-.61-10.968-.46c.995 2.407 2.793 4.355 6.934 4.28a3.76 3.76 0 0 0 3.743-2.295 3.765 3.765 0 0 0 .291-1.525Z" fill="#263238"/><path d="M154.412 310.856a7.65 7.65 0 0 1 4.537 1.07 4.413 4.413 0 0 1-2.579.781 7.382 7.382 0 0 1-4.516-1.07 4.406 4.406 0 0 1 2.558-.781Z" fill="#A02724"/><path d="M160.04 308.877a1.679 1.679 0 0 1-1.241 1.23 43.205 43.205 0 0 1-7.169-.47 2.285 2.285 0 0 1-1.841-1.167c3.423-.129 6.85.007 10.251.407Z" fill="#fff"/><path d="M152.047 284.684c-2.504-1.07-13.589.674-16.745 5.628a14.73 14.73 0 0 0-.107 15.783 52.45 52.45 0 0 0 7.04 1.851c3.499.621 3.841-9.298 1.798-11.824 0 0-.171-.139-.482-.342-1.22-.92-3.21-2.696-3.124-3.563.085-.867 3.98-4.162 6.313-3.938 2.332.225 5.05 1.338 6.538 1.359a9.72 9.72 0 0 0 2.375-.214s-1.102-3.648-3.606-4.74Z" fill="#263238"/><path d="M134.82 307.903a8 8 0 0 0 5.211 3.21c2.793.428 3.873-2.14 2.846-4.612-.931-2.214-3.499-5.114-6.174-4.419a3.648 3.648 0 0 0-2.529 2.397 3.643 3.643 0 0 0 .646 3.424Z" fill="#EBB376"/><path d="M145.135 303.88s.107 3.692.717 4.58c.61.888 2.953-1.937 3.937-2.665.985-.727 6.806 1.07 6.806 1.07a3.604 3.604 0 0 1-.097.76 49.144 49.144 0 0 1-6.591-.064c-.685-.225-3.082 2.76-.706 5.425 2.375 2.664 4.697 2.964 5.692 2.664.995-.3.557-1.969.557-1.969l1.787-.053s-.15 1.551.674 2.033c.824.481 2.76-3.157 3.21-5.243.449-2.087-.546-2.911-3.328-2.536l-.086-1.156s3.638-1.07 3.991-.727c.889.738 1.07 4.472.439 6.676-.631 2.205-2.557 6.527-7.426 6.42-4.868-.107-8.881-1.84-11.331-4.515-2.45-2.675 0-6.955 0-6.955l1.755-3.745Z" fill="#263238"/><path d="m157.151 300.67.267 5.789a6.609 6.609 0 0 0 2.044 0 .765.765 0 0 0 .559-.545.763.763 0 0 0-.216-.75 13.497 13.497 0 0 1-2.654-4.494Z" fill="#D58745"/><path d="m129.395 341.127-4.066 6.184a326.073 326.073 0 0 0-3.948 6.217 78.488 78.488 0 0 0-3.36 5.971c-.46.92-.824 1.808-1.07 2.418-.128.299-.203.535-.246.524-.043-.011 0-.289-.332-1.273a2.687 2.687 0 0 0-.16-.407l-.107-.246-.161-.332a7.057 7.057 0 0 0-.385-.663 6.374 6.374 0 0 0-.663-.845 4.17 4.17 0 0 0-.546-.525 2.738 2.738 0 0 0-.995-.62c-.225-.064 0 .107.342.246.908.386 1.845.697 2.804.931 2.204.546 4.654 1.07 7.137 1.562 4.964.974 10.165 1.83 15.279 2.932h.107a4.75 4.75 0 0 1-.064 9.298 106.975 106.975 0 0 1-16.307 2.001 77.36 77.36 0 0 1-8.56-.118 38 38 0 0 1-4.933-.706 16.644 16.644 0 0 1-3.349-1.134 11.63 11.63 0 0 1-2.653-1.701 10.78 10.78 0 0 1-1.851-2.119 11.907 11.907 0 0 1-.482-.835l-.214-.449-.16-.353a14.313 14.313 0 0 1-.321-.877 14.345 14.345 0 0 1-.632-5.201c.067-1.13.22-2.253.46-3.359.37-1.716.871-3.401 1.498-5.04a66.66 66.66 0 0 1 3.692-8.186c1.316-2.546 2.75-4.954 4.216-7.319a108.47 108.47 0 0 1 2.29-3.488 98.756 98.756 0 0 1 2.482-3.445 9.414 9.414 0 0 1 12.526-1.54 9.412 9.412 0 0 1 2.807 12.304l-.075.193Z" fill="#E9B376"/><path d="M126.057 320.069c-10.015 2.953-22.074 18.672-22.074 18.672.278 5.585 11.299 15.226 18.372 15.6 0 0 6.997-6.484 9.737-14.241 2.814-7.972-1.616-18.929-6.035-20.031Z" fill="#407BFF"/><path d="M126.057 320.069c-10.015 2.953-22.074 18.672-22.074 18.672.278 5.585 11.299 15.226 18.372 15.6 0 0 6.997-6.484 9.737-14.241 2.814-7.972-1.616-18.929-6.035-20.031Z" fill="#fff" opacity=".6"/><path d="m138.715 363.297-2.14 4.986c-.289 5.703 7.115 4.805 7.115 4.805l3.724 1.005a2.864 2.864 0 0 0 3.263-1.797l1.552-3.478a2.994 2.994 0 0 0-1.199-4.012l-3.06-1.391a5.842 5.842 0 0 0-2.857-.525l-6.398.407Z" fill="#EBB376"/><path d="M170.836 383.499a1.436 1.436 0 0 1-1.423-1.423v-1.156h-41.922v1.156c0 .375-.149.736-.414 1.002a1.42 1.42 0 0 1-.999.421 4.277 4.277 0 0 0-4.28 3.723 4.136 4.136 0 0 0 4.109 4.526h.182a1.408 1.408 0 0 1 1.002.418 1.406 1.406 0 0 1 .41 1.006v1.155h41.923v-1.155a1.424 1.424 0 0 1 1.423-1.424h.171a4.118 4.118 0 0 0 4.109-4.526 4.278 4.278 0 0 0-4.291-3.723Z" fill="#407BFF"/><path opacity=".2" d="M172.27 386.505a1.498 1.498 0 0 1-1.99 2.237 1.5 1.5 0 0 1-.08-2.075 1.498 1.498 0 0 1 2.07-.162Z" fill="#191919"/><path opacity=".2" d="m170.552 386.702-.343.382 1.698 1.52.343-.382-1.698-1.52ZM126.099 389.052a1.5 1.5 0 0 1-1.144-2.754 1.497 1.497 0 0 1 2.14.892 1.498 1.498 0 0 1-.11 1.138 1.486 1.486 0 0 1-.886.724Z" fill="#191919"/><path opacity=".2" d="m126.823 387.533-.15-.492-2.18.662.149.492 2.181-.662Z" fill="#191919"/><path d="M147.521 391.021a.66.66 0 0 1-.428-.161c-.471-.385-.449-1.551-.268-2.407-.374.481-.759.781-1.23.663-.792-.203-.717-1.07-.674-1.508.01-.143.01-.286 0-.428h-.064c-.482.074-1.413 1.07-2.033 1.797-.931 1.07-1.424 1.594-1.991 1.562a.724.724 0 0 1-.545-.31 1.2 1.2 0 0 1-.15-.909 3.397 3.397 0 0 1-2.012-.354 3.222 3.222 0 0 0-.834-.299 2.523 2.523 0 0 1-.482.738.69.69 0 0 1-.813.161.867.867 0 0 1-.503-.728 1.071 1.071 0 0 1 .524-.963c.173-.103.361-.179.557-.225a3.676 3.676 0 0 0 .139-2.043.47.47 0 0 0-.492-.364c-1.306 0-3.028 2.996-3.809 4.879l-.953-.385c.236-.567 2.344-5.521 4.762-5.521a1.473 1.473 0 0 1 1.444.995c.24.81.24 1.672 0 2.482.332.076.652.195.953.353a2.3 2.3 0 0 0 1.904.118c.252-.59.564-1.153.931-1.68.128-.16.492-.61.942-.439a.674.674 0 0 1 .385.771 2.887 2.887 0 0 1-1.445 2.14c-.038.094-.07.19-.096.289.268-.257.599-.632.845-.91.888-.984 1.809-2.001 2.654-2.14a1.074 1.074 0 0 1 .941.225 1.502 1.502 0 0 1 .279 1.305v.225c.192-.235.438-.631.61-.899.524-.824.984-1.541 1.615-1.583a.873.873 0 0 1 .739.353c.289.412.436.908.417 1.412a31.25 31.25 0 0 0 5.446-.086c.385-.096.567-.395.813-.834.247-.439.418-.738.867-.835a1.077 1.077 0 0 1 .899.257c.717.535.749 1.07.62 1.434a1.07 1.07 0 0 1 .76 0c2.066.155 4.14.155 6.206 0v1.07c-.941 0-5.714.267-6.58 0-.139 0-.503.289-.642.417-.139.129-.535.503-.92.31a.737.737 0 0 1-.311-.791c.046-.342.162-.67.343-.963.054-.087.098-.181.128-.279 0 0 0-.085-.268-.267h-.064c0 .075-.128.203-.182.3a2.317 2.317 0 0 1-1.465 1.326c-1.925.23-3.868.27-5.8.118a4.706 4.706 0 0 1-1.252 2.632.768.768 0 0 1-.417-.021Zm.481-2.878c-.182.418-.273.87-.267 1.326.202-.414.349-.853.439-1.305l-.172-.021Zm-.074-1.07h.363c0-.204-.043-.404-.128-.589a3.745 3.745 0 0 0-.449.578l.214.011Z" fill="#fff" opacity=".4"/><path d="M185.271 129.962H82.625v102.645h102.646V129.962Z" fill="#407BFF"/><path opacity=".7" d="M185.271 129.962H82.625v102.645h102.646V129.962Z" fill="#fff"/><path opacity=".7" d="M180.113 227.461V135.12h-92.34v92.341h92.34Z" fill="#fff"/><path d="M149.094 200.807c1.337 1.22 2.846 2.611 4.28 3.841a97.654 97.654 0 0 0 4.504 3.627 47.63 47.63 0 0 0 4.548 3.061 14.71 14.71 0 0 0 3.905 1.68h.14a3.365 3.365 0 0 0-.471 0c-.278.052-.545.15-.792.289-.385.246-.407.363-.332.32.39-.403.702-.874.92-1.39a31.622 31.622 0 0 0 1.841-5.104c1.07-3.724 1.915-7.769 2.728-11.706v-.096a2.718 2.718 0 0 1 5.35.31 67.075 67.075 0 0 1 0 13.032 33.885 33.885 0 0 1-1.391 6.913 14.472 14.472 0 0 1-2.033 4.066 8.28 8.28 0 0 1-2.685 2.322 7.092 7.092 0 0 1-2.269.759 8.056 8.056 0 0 1-1.241.086h-.642a21.204 21.204 0 0 1-7.832-2.258 45.662 45.662 0 0 1-6.024-3.52 62.694 62.694 0 0 1-5.35-4.023c-1.691-1.445-3.285-2.814-4.922-4.494a5.452 5.452 0 0 1-1.519-3.78c0-1.409.545-2.762 1.521-3.778a5.46 5.46 0 0 1 7.552-.307l.214.15Z" fill="#EBC0BB"/><path d="M139.164 195.585c8.763-1.583 12.177 3.435 22.47 12.166a18.62 18.62 0 0 1-8.271 13.739s-21.443-13.996-14.199-25.905Z" fill="#407BFF"/><path opacity=".2" d="M139.571 207.505c3.713 6.827 11.684 12.53 13.439 13.728-.621-3.114-2.579-9.705-8.367-13.91a3.744 3.744 0 0 0-5.072.182Z" fill="#191919"/><path d="M140.523 160.147s7.843 19.624 0 36.722c-7.843 17.099-29.896 6.827-32.1 2.729-2.204-4.098 2.932-12.444 2.932-20.084 0-7.64-2.483-11.984-.471-18.083 4.291-13.001 29.639-1.284 29.639-1.284Z" fill="#263238"/><path d="M150.346 227.461h-37.161c-.075-.792-.15-1.584-.214-2.354a219.649 219.649 0 0 0-1.317-11.011 168.597 168.597 0 0 0-3.413-17.697c19.014-9.181 36.894-.76 36.894-.76 4.537 6.591 5.446 19.998 5.211 31.822Z" fill="#263238"/><path opacity=".1" d="M150.346 227.461h-37.161c-.075-.792-.15-1.584-.214-2.354a219.649 219.649 0 0 0-1.317-11.011 168.597 168.597 0 0 0-3.413-17.697c19.014-9.181 36.894-.76 36.894-.76 4.537 6.591 5.446 19.998 5.211 31.822Z" fill="#fff"/><path opacity=".2" d="M111.665 214.086c.471 3.317.931 7.019 1.306 11.021a27.206 27.206 0 0 0 .995-18.811l-2.301 7.79Z" fill="#191919"/><path d="M126.26 189.711c-10.935 0-12.305 8.999-12.305 8.999l5.115-2.205 14.98 10.059 3.691-10.155 4.633.867s-6.602-7.554-16.114-7.565Z" fill="#407BFF"/><path d="m133.611 205.954-14.103-12.284c3.435-3.52 1.68-13.172.257-18.447l10.7 8.56c-.717 4.088-.546 8.453 5.436 9.855-.011.032-2.301 12.284-2.29 12.316Z" fill="#EEC1BB"/><path opacity=".2" d="m124.12 178.754 6.334 5.072c-.19.958-.287 1.933-.289 2.91-2.268-.331-5.542-2.792-5.949-5.136a7.74 7.74 0 0 1-.096-2.846Z" fill="#191919"/><path d="M116.983 162.64c-.214 8.656-.481 12.305 3.413 17.313 5.853 7.49 16.35 6.42 19.1-1.83 2.472-7.49 2.407-20.33-5.575-24.942a11.097 11.097 0 0 0-16.938 9.459Z" fill="#EEC1BB"/><path d="M125.425 158.114c-5.863 4.943 2.14 13.781-7.233 11.363-9.373-2.418-2.664-14.905 3.585-16.735 6.248-1.829 3.648 5.372 3.648 5.372ZM129.866 166.802c0 .728.289 1.37.738 1.434.45.064.878-.481.92-1.209.043-.728-.278-1.359-.738-1.423-.46-.064-.867.471-.92 1.198ZM138.479 168.118c0 .728.279 1.37.739 1.423.46.054.866-.47.92-1.198.053-.728-.289-1.359-.738-1.423-.45-.064-.878.471-.921 1.198Z" fill="#263238"/><path d="m139.186 166.92 1.722-.268s-.963 1.252-1.722.268Z" fill="#263238"/><path d="M135.997 168.974a21.08 21.08 0 0 0 2.14 4.976 2.883 2.883 0 0 1-2.536.139l.396-5.115Z" fill="#D4827D"/><path d="M131.428 176.218a6.33 6.33 0 0 0 1.177.268c.026.003.053 0 .078-.007a.198.198 0 0 0 .117-.099.236.236 0 0 0-.03-.236.237.237 0 0 0-.144-.086 6.022 6.022 0 0 1-4.365-2.868.224.224 0 0 0-.048-.066.201.201 0 0 0-.23-.03.203.203 0 0 0-.107.119.193.193 0 0 0 .021.159 6.33 6.33 0 0 0 3.531 2.846Z" fill="#263238"/><path d="M114.49 170.451a5.977 5.977 0 0 0 2.878 3.852c1.83.931 3.146-1.07 2.975-3.467-.161-2.14-1.295-5.157-3.285-5.072-1.99.086-3.157 2.526-2.568 4.687Z" fill="#EEC1BB"/><path d="M128.304 162.512a.392.392 0 0 0 .321-.065 3.124 3.124 0 0 1 2.91-.46.37.37 0 0 0 .445-.085.378.378 0 0 0 .079-.139.47.47 0 0 0-.246-.568 3.92 3.92 0 0 0-3.691.535.442.442 0 0 0-.075.6.427.427 0 0 0 .257.182ZM141.24 164.48a.353.353 0 0 0 .3 0 .423.423 0 0 0 .19-.259.417.417 0 0 0-.051-.318 4.455 4.455 0 0 0-3.21-2.322.382.382 0 0 0-.395.227.459.459 0 0 0 .363.629 3.535 3.535 0 0 1 2.503 1.862.47.47 0 0 0 .3.181ZM130.54 165.615l1.712-.268s-.91 1.241-1.712.268Z" fill="#263238"/><path d="M130.305 154.786s-4.901 10.625-13.375 10.112c-8.475-.514-3.97-12.198 7.928-14.317 11.899-2.119 18.875 8.646 18.864 11.139a4.177 4.177 0 0 1-2.514 3.552s-2.376-8.431-10.903-10.486Z" fill="#263238"/><path d="M111.836 210.116c-1.68 3.285-3.434 6.709-5.039 10.004-.792 1.659-1.573 3.317-2.205 4.88-.31.77-.567 1.54-.749 2.14-.085.267-.128.524-.149.438-.022-.085 0-.16-.139-.62a4.135 4.135 0 0 0-.45-.953 3.96 3.96 0 0 0-.513-.642 2.165 2.165 0 0 0-.332-.288c-.813-.568-.899-.396-.813-.396.222.073.452.123.684.149.767.094 1.54.13 2.312.107 1.701 0 3.552-.149 5.35-.331 3.702-.353 7.49-.856 11.331-1.263h.064a2.726 2.726 0 0 1 2.937 1.991 2.724 2.724 0 0 1-1.514 3.209 79.985 79.985 0 0 1-11.299 4.109 51.475 51.475 0 0 1-6.099 1.37 26.138 26.138 0 0 1-3.499.321 13.117 13.117 0 0 1-2.204-.161 7.42 7.42 0 0 1-3.488-1.466 7.048 7.048 0 0 1-.6-.535 6.536 6.536 0 0 1-.738-.931 6.667 6.667 0 0 1-.727-1.626 8.02 8.02 0 0 1-.3-2.054c-.007-.822.061-1.642.203-2.451.209-1.176.495-2.338.856-3.477a61.338 61.338 0 0 1 2.14-5.896 104.55 104.55 0 0 1 5.35-10.818 5.46 5.46 0 0 1 9.63 5.147v.043Z" fill="#EBC0BB"/><path d="M110.424 195.607c-5.874.898-9.095 5.478-13.91 17.269 5.553 9.556 13.814 10.861 13.814 10.861s8.164-14.477.096-28.13Z" fill="#407BFF"/><path opacity=".6" d="M133.814 209.592a.68.68 0 0 0 .423.632.68.68 0 0 0 .746-.148.69.69 0 0 0 .149-.746.681.681 0 0 0-.633-.423.684.684 0 0 0-.685.685ZM135.184 219.682c0 .181.072.355.2.484a.688.688 0 0 0 .969 0 .688.688 0 0 0 0-.969.688.688 0 0 0-.969 0 .688.688 0 0 0-.2.485Z" fill="#fff"/><path d="m170.686 194.943-.62-7.554 7.854 2.985s.149 6.763-3.339 6.699l-3.895-2.13Z" fill="#EEC1BB"/><path d="m173.426 180.68 5.874 4.858-1.38 4.836-7.854-2.985 3.36-6.709ZM121.584 223.341l8.87-.717-2.054 5.896s-6.42 2.14-7.383-1.241l.567-3.938ZM135.184 227.461l-4.73 2.685-2.022-1.626 2.022-5.896 4.73 4.837Z" fill="#EEC1BB"/><path d="M156.327 241.82a1.419 1.419 0 0 1-1.009-.414 1.403 1.403 0 0 1-.414-1.009v-1.156h-41.923v1.156a1.411 1.411 0 0 1-1.412 1.423 4.281 4.281 0 0 0-4.28 3.724 4.113 4.113 0 0 0 1.049 3.175 4.119 4.119 0 0 0 3.06 1.351h.182a1.422 1.422 0 0 1 1.412 1.423v1.155h41.923v-1.155a1.423 1.423 0 0 1 1.423-1.423h.171a4.119 4.119 0 0 0 4.109-4.526 4.28 4.28 0 0 0-4.291-3.724Z" fill="#407BFF"/><path opacity=".2" d="M157.729 244.859a1.485 1.485 0 0 1 .519 1.045 1.472 1.472 0 0 1-.402 1.095 1.483 1.483 0 0 1-1.045.509 1.503 1.503 0 0 1-1.095-.392 1.499 1.499 0 0 1 1.991-2.225l.032-.032Z" fill="#191919"/><path opacity=".2" d="m156.052 245.034-.342.383 1.698 1.519.343-.382-1.699-1.52ZM111.59 247.395a1.494 1.494 0 0 1-1.596-.48 1.492 1.492 0 0 1-.165-1.658 1.504 1.504 0 0 1 1.471-.785 1.501 1.501 0 0 1 1.285 1.061 1.497 1.497 0 0 1-.995 1.862Z" fill="#191919"/><path opacity=".2" d="m112.309 245.868-.149-.492-2.181.662.149.492 2.181-.662Z" fill="#191919"/><path d="M138.683 250.123a1.278 1.278 0 0 1-.407-.064.897.897 0 0 1-.311-.196.904.904 0 0 1-.203-.307c-.267-.685.214-2.012.653-2.996a24.262 24.262 0 0 1-4.184-.064 5.913 5.913 0 0 1-.984-.214 8.075 8.075 0 0 1-4.954.364c-.75.405-1.526.763-2.322 1.07-1.337.513-4.515 1.615-5.286.856-.385-.386-.364-1.156-.128-2.044h-4.344v-1.07h4.697a11.5 11.5 0 0 1 1.423-2.622c1.252-1.637 2.226-1.423 2.686-1.155.327.173.583.455.723.797.141.342.158.722.047 1.075a4.674 4.674 0 0 1-3.852 2.932h-.299a3.065 3.065 0 0 0-.214 1.273 16.729 16.729 0 0 0 5.66-1.669 1.356 1.356 0 0 1-.546-1.765c.385-.706 1.562-1.07 2.975-.3a.915.915 0 0 1 .556.878 1.475 1.475 0 0 1-.588.941c.84.068 1.685 0 2.503-.203a2.24 2.24 0 0 1-.727-1.819.855.855 0 0 1 .62-.813 2.581 2.581 0 0 1 2.419.931 1.217 1.217 0 0 1 0 1.519c1.608.154 3.228.154 4.836 0l.942-.096-.428.845a8.537 8.537 0 0 0-1.07 2.878h.107c1.07-.556 2.311-4.611 2.76-6.142.375-1.241.418-1.423.867-1.423h.396l.096.396c.064.268 0 .632-.353 1.659-.282.84-.489 1.702-.621 2.578.386 0 1.07-.128 1.745-.224a50.996 50.996 0 0 1 6.676-.642v1.07c-2.187.07-4.367.281-6.527.631-.708.123-1.422.208-2.14.257a.704.704 0 0 1-.46-.161 5.742 5.742 0 0 1-1.99 2.943c-.143.058-.295.09-.449.096Zm-10.7-5.5a.604.604 0 0 0-.525.193c0 .096.065.342.493.589.07.048.145.087.224.117a3.3 3.3 0 0 0 .813-.62 2.31 2.31 0 0 0-.995-.279h-.01Zm-3.67-2.14a1.168 1.168 0 0 0-.675.375 7.807 7.807 0 0 0-1.658 2.6 3.66 3.66 0 0 0 2.771-2.14.566.566 0 0 0-.289-.717.44.44 0 0 0-.139-.064l-.01-.054Zm7.992 1.434a1.245 1.245 0 0 0 .867 1.199c.131-.084.246-.189.343-.311 0-.085.096-.171 0-.331a1.789 1.789 0 0 0-1.199-.514l-.011-.043Z" fill="#fff" opacity=".4"/><path d="M358.718 190.214h29.96a6.197 6.197 0 0 1 6.195 6.195v17.505a6.198 6.198 0 0 1-1.815 4.377 6.185 6.185 0 0 1-4.38 1.808h-5.864l4.922 9.737-9.095-9.737h-19.923a6.199 6.199 0 0 1-4.381-1.808 6.191 6.191 0 0 1-1.815-4.377v-17.505a6.196 6.196 0 0 1 6.196-6.195Z" fill="#407BFF"/><path opacity=".2" d="M358.718 190.214h29.96a6.197 6.197 0 0 1 6.195 6.195v17.505a6.198 6.198 0 0 1-1.815 4.377 6.185 6.185 0 0 1-4.38 1.808h-5.864l4.922 9.737-9.095-9.737h-19.923a6.199 6.199 0 0 1-4.381-1.808 6.191 6.191 0 0 1-1.815-4.377v-17.505a6.196 6.196 0 0 1 6.196-6.195Z" fill="#fff"/><path d="M364.795 207.773a1.926 1.926 0 1 0 0-3.853 1.926 1.926 0 0 0 0 3.853ZM373.676 207.773a1.926 1.926 0 1 0 0-3.853 1.926 1.926 0 0 0 0 3.853ZM384.483 205.847c0 .381-.113.753-.324 1.07a1.935 1.935 0 0 1-1.978.819 1.932 1.932 0 0 1-1.513-1.514 1.924 1.924 0 0 1 1.889-2.301 1.926 1.926 0 0 1 1.926 1.926Z" fill="#fff"/><path d="M206.799 262.15h-29.96a6.196 6.196 0 0 0-6.195 6.195v17.505a6.193 6.193 0 0 0 6.195 6.196h5.874l-4.922 9.726 9.084-9.726h19.892a6.196 6.196 0 0 0 6.195-6.196v-17.548a6.193 6.193 0 0 0-6.163-6.152Z" fill="#407BFF"/><path opacity=".2" d="M206.799 262.15h-29.96a6.196 6.196 0 0 0-6.195 6.195v17.505a6.193 6.193 0 0 0 6.195 6.196h5.874l-4.922 9.726 9.084-9.726h19.892a6.196 6.196 0 0 0 6.195-6.196v-17.548a6.193 6.193 0 0 0-6.163-6.152Z" fill="#fff"/><path d="M200.721 279.666a1.926 1.926 0 1 0 0-3.851 1.926 1.926 0 0 0 0 3.851ZM191.83 279.666a1.926 1.926 0 1 0 0-3.853 1.926 1.926 0 0 0 0 3.853ZM182.949 279.666a1.926 1.926 0 1 0 0-3.853 1.926 1.926 0 0 0 0 3.853Z" fill="#fff"/><defs><linearGradient id="a" x1="-1.605" y1="317.79" x2="269.112" y2="513.913" gradientUnits="userSpaceOnUse"><stop stop-color="#E6EFFE"/><stop offset="1" stop-color="#F5F7FF"/></linearGradient></defs></svg>