<svg width="844" height="501" fill="none" xmlns="http://www.w3.org/2000/svg"><path fill-rule="evenodd" clip-rule="evenodd" d="M818.103 242.898c8.121 46.57 41.407 95.876 6.285 138.256-35.224 42.502-112.797 70.46-189.088 82.321-70.149 10.906-137.299-25.244-209.106-20.413-81.236 5.466-153.308 69.162-227.514 49.789-71.703-18.719-45.103-87.962-79.755-130.006C87.875 325.172 15.701 301.094 6.121 259.22c-9.816-42.902 30.501-83.717 60.831-123.538 32.466-42.625 51.374-98.035 122.572-117.254 72.467-19.56 152.912 10.178 228.586 22.467 57.204 9.29 104.974 28.64 160.613 40.737 66.785 14.521 152.92 5.953 200.002 37.671 46.978 31.649 31.964 81.081 39.378 123.595Z" fill="#F5F7FF"/><path d="M383.783 363.194h-14.978v.199h14.978v-.199ZM314.644 368.668h-6.934v.199h6.934v-.199ZM248.857 365.915h-15.449v.199h15.449v-.199ZM109.048 365.811H74.582v.2h34.466v-.2ZM67.48 365.811h-5.052v.2h5.052v-.2ZM235.818 361.087h-74.757v.199h74.757v-.199Z" fill="#E6E6E6"/><path d="M218.246 109.797H56.851v115.015h161.395V109.797Z" fill="#FAFAFA"/><path d="M221.231 109.797H58.247v115.015h162.984V109.797Z" fill="#F5F5F5"/><path d="M217.049 220.112V114.489H62.429v105.623h154.62Z" fill="#FAFAFA"/><path d="m90.582 220.112 24.531-105.623h32.159l-24.531 105.623H90.582ZM127.944 220.112l24.539-105.623h14.523l-24.538 105.623h-14.524Z" fill="#fff"/><path d="M217.049 220.112V114.489h-.535v105.623h.535Z" fill="#FAFAFA"/><path d="M53.714 109.605v45.582h12.058s21.634-14.133 26.59-43.204a4.835 4.835 0 0 0-4.788-5.658h-30.58a3.28 3.28 0 0 0-3.28 3.28ZM53.714 238.881v-80.015h12.058s24.475 47.122 27.308 80.015H53.714Z" fill="#E0E0E0"/><path d="M65.421 155.187H54.153c-.665 0-1.205.539-1.205 1.205v1.269c0 .665.54 1.205 1.205 1.205h11.268c.665 0 1.205-.54 1.205-1.205v-1.269c0-.666-.54-1.205-1.205-1.205Z" fill="#F5F5F5"/><path d="M224.662 109.605v45.582H212.58s-21.666-14.133-26.589-43.204a4.842 4.842 0 0 1 4.788-5.658h30.611a3.286 3.286 0 0 1 3.272 3.28ZM224.662 238.881v-80.015H212.58s-24.467 47.122-27.308 80.015h39.39Z" fill="#E0E0E0"/><path d="M212.931 158.858h11.268c.666 0 1.205-.54 1.205-1.205v-1.269c0-.666-.539-1.205-1.205-1.205h-11.268c-.665 0-1.205.539-1.205 1.205v1.269c0 .665.54 1.205 1.205 1.205Z" fill="#F5F5F5"/><path d="M221.015 253.421h-26.517v102.734h26.517V253.421Z" fill="#FAFAFA"/><path d="M213.937 356.155h7.078v-11.866h-14.5l7.422 11.866Z" fill="#F4F8FF"/><path d="M94.149 253.421H67.63v102.734H94.15V253.421Z" fill="#E0E0E0"/><path d="M221.015 253.421H87.972v98.648h133.043v-98.648Z" fill="#FAFAFA"/><path d="M127.944 235.976c0 9.576 9.225 17.445 20.509 17.445h10.182c11.276 0 20.501-7.853 20.501-17.445h-51.192Z" fill="#EBEBEB"/><path d="M122.039 214.055h19.152s-3.327 8.778-3.327 13.949c0 5.171 14.571 25.417-6.249 25.417s-6.248-20.254-6.248-25.417-3.328-13.949-3.328-13.949Z" fill="#E0E0E0"/><path d="M215.525 259.43H93.463v24.873h122.062V259.43Z" fill="#EBEBEB"/><path d="M95.05 356.155h-7.078v-11.866h14.508l-7.43 11.866ZM150.743 271.862a3.752 3.752 0 0 0 6.403 2.653 3.75 3.75 0 1 0-6.403-2.653Z" fill="#FAFAFA"/><path d="M215.525 290.312H93.463v24.874h122.062v-24.874Z" fill="#EBEBEB"/><path d="M150.743 302.745a3.752 3.752 0 0 0 4.482 3.679 3.752 3.752 0 0 0-.731-7.43 3.751 3.751 0 0 0-3.751 3.751Z" fill="#FAFAFA"/><path d="M215.525 321.187H93.463v24.873h122.062v-24.873Z" fill="#EBEBEB"/><path d="M154.494 337.378a3.75 3.75 0 1 0 0-7.5 3.75 3.75 0 0 0 0 7.5Z" fill="#FAFAFA"/><path d="M305.164 108.408h-59.235v42.166h59.235v-42.166Z" fill="#E0E0E0"/><path d="M310 108.408h-60.704v42.166H310v-42.166Z" fill="#F5F5F5"/><path d="M306.13 146.704v-34.426h-52.963v34.426h52.963Z" fill="#fff"/><path d="M296.809 136.673v-14.372h-34.322v14.372h34.322Z" fill="#F5F5F5"/><path d="M353.22 129.491h-36.054v37.81h36.054v-37.81Z" fill="#E0E0E0"/><path d="M358.071 129.491h-37.529v37.81h37.529v-37.81Z" fill="#F5F5F5"/><path d="M354.201 163.43v-30.068h-29.789v30.068h29.789Z" fill="#fff"/><path d="M333.732 148.396a5.013 5.013 0 0 1 5.004-5.012h1.133a5.016 5.016 0 0 1 5.004 5.012 5.005 5.005 0 0 1-5.004 5.003h-1.093a4.987 4.987 0 0 1-3.564-1.451 4.997 4.997 0 0 1-1.48-3.552Z" fill="#F5F5F5"/><path d="M409 180.156H296.49v22.001h-17.309v22.001h-17.308v22.001h-17.309v22.001h-17.309v21.993h-17.308v22h-17.309v22.001H175.33v22.001H409V180.156Z" fill="#FAFAFA"/><path d="M272.207 334.154H173.55v6.6h98.657v-6.6ZM289.515 312.154h-98.656v6.599h98.656v-6.599ZM306.824 290.153h-98.657v6.599h98.657v-6.599ZM324.133 268.152h-98.657v6.599h98.657v-6.599ZM341.441 246.159h-98.657v6.599h98.657v-6.599ZM358.75 224.158h-98.657v6.599h98.657v-6.599ZM376.059 202.157h-98.657v6.6h98.657v-6.6ZM393.367 180.156H294.71v6.6h98.657v-6.6Z" fill="#EBEBEB"/><path d="M391.691 180.156v22.001h-17.309v22.001h-17.308v22.001h-17.309v22.001h-17.308v21.993h-17.309v22h-17.309v22.001h-17.308v22.001H409V180.156h-17.309Z" fill="#fff"/><path d="M209.5 392.193c85.452 0 154.724-4.045 154.724-9.033 0-4.989-69.272-9.034-154.724-9.034-85.452 0-154.724 4.045-154.724 9.034 0 4.988 69.272 9.033 154.724 9.033Z" fill="#F5F5F5"/><path d="M301.39 180.276c1.117 3.743 6.878 10.749 7.333 15.848.455 5.099-9.368 13.255-9.368 13.255s-7.342-24.546-2.745-27.411c4.596-2.865 4.78-1.692 4.78-1.692Z" fill="#263238"/><path d="M281.216 206.794c-1.739 1.452-3.447 2.673-5.227 3.926a69.227 69.227 0 0 1-5.482 3.463 62.065 62.065 0 0 1-5.785 3.024c-1.006.455-2.003.902-3.041 1.293-.51.208-1.029.407-1.556.583l-1.596.558a10.563 10.563 0 0 1-4.197.304 24.074 24.074 0 0 1-3.48-.671 45.99 45.99 0 0 1-6.232-2.218 83.185 83.185 0 0 1-11.324-6.025l1.493-2.777c1.883.798 3.814 1.596 5.729 2.29s3.847 1.429 5.778 2.027a48.449 48.449 0 0 0 5.745 1.5 18.65 18.65 0 0 0 2.706.327 5.625 5.625 0 0 0 2.011-.207c1.82-.697 3.6-1.496 5.33-2.394a56.764 56.764 0 0 0 2.626-1.444c.861-.511 1.739-1.006 2.593-1.533a109.688 109.688 0 0 0 5.051-3.343 96.793 96.793 0 0 0 4.788-3.567l4.07 4.884Z" fill="#E58A7B"/><path d="M285.43 198.295c-1.979-1.548-10.167 3.519-12.649 5.634l1.812 10.956s11.77-4.931 12.473-8.299c.742-3.519-.16-7.11-1.636-8.291Z" fill="#407BFF"/><path opacity=".2" d="M285.43 198.295c-1.979-1.548-10.167 3.519-12.649 5.634l1.812 10.956s11.77-4.931 12.473-8.299c.742-3.519-.16-7.11-1.636-8.291Z" fill="#191919"/><path d="m312.969 231.452-24.85 4.844c-12.84-34.769-10.047-35.91-10.047-35.91a49.906 49.906 0 0 1 5.586-2.634l.335-.127c1.596-.583 1.915-.671 4.038-1.293 3.655-.87 7.062-1.596 11.284-2.195l.798-.111c.798-.096 1.524-.176 2.258-.248.495-.056.99-.088 1.461-.119l1.596-.088c2.729-.136 4.684-.096 4.684-.096-.758 21.714.471 27.946 2.857 37.977Z" fill="#407BFF"/><path opacity=".2" d="m312.969 231.452-24.85 4.844c-12.84-34.769-10.047-35.91-10.047-35.91a49.906 49.906 0 0 1 5.586-2.634l.335-.127c1.596-.583 1.915-.671 4.038-1.293 3.655-.87 7.062-1.596 11.284-2.195l.798-.111c.798-.096 1.524-.176 2.258-.248.495-.056.99-.088 1.461-.119l1.596-.088c2.729-.136 4.684-.096 4.684-.096-.758 21.714.471 27.946 2.857 37.977Z" fill="#191919"/><path d="M293.506 182.774c-1.596 2.641 4.189 3.862 7.613 1.157 2.737-2.171 2.09-7.182-.256-8.347-2.346-1.165-7.357 7.19-7.357 7.19Z" fill="#407BFF"/><path opacity=".4" d="M293.506 182.774c-1.596 2.641 4.189 3.862 7.613 1.157 2.737-2.171 2.09-7.182-.256-8.347-2.346-1.165-7.357 7.19-7.357 7.19Z" fill="#191919"/><path d="m317.693 375.363-6.217.463-2.274-14.308 6.217-.463 2.274 14.308ZM361.663 355.365l-5.275 3.32-9.393-11.14 5.275-3.328 9.393 11.148Z" fill="#E58A7B"/><path d="m309.202 361.518 1.261 7.948 6.129-1.03-1.165-7.373-6.225.455ZM352.278 344.225l-5.283 3.32 3.895 4.612 5.394-3.184-4.006-4.748Z" fill="#CF6F64"/><path d="M288.502 236.296s-.088 49.332 3.942 67.909c4.198 19.328 16.543 63.298 16.543 63.298l8.953-1.157s-6.998-44.417-9.983-63.625c-3.248-20.931-1.253-69.968-1.253-69.968l-18.202 3.543Z" fill="#407BFF"/><path opacity=".7" d="M288.502 236.296s-.088 49.332 3.942 67.909c4.198 19.328 16.543 63.298 16.543 63.298l8.953-1.157s-6.998-44.417-9.983-63.625c-3.248-20.931-1.253-69.968-1.253-69.968l-18.202 3.543Z" fill="#191919"/><path opacity=".5" d="m306.146 254.618-4.389-4.373c.167 18.952 1.229 28.313 4.876 38.511-.575-10.781-.623-23.533-.487-34.138Z" fill="#191919"/><path d="M294.678 235.019s13.383 40.77 20.022 64.255c7.007 24.778 33.867 52.181 33.867 52.181l7.709-4.453s-18.354-26.015-25.105-49.133c-13.726-46.93-8.084-56.873-18.21-66.417l-18.283 3.567Z" fill="#407BFF"/><path opacity=".7" d="M294.678 235.019s13.383 40.77 20.022 64.255c7.007 24.778 33.867 52.181 33.867 52.181l7.709-4.453s-18.354-26.015-25.105-49.133c-13.726-46.93-8.084-56.873-18.21-66.417l-18.283 3.567Z" fill="#191919"/><path d="M284.161 168.378c3.559 1.189 6.791 10.023 6.927 13.502.135 3.479-10.311 8.275-10.311 8.275s-4.604-11.172-3.319-18.354c.558-3.12 6.703-3.423 6.703-3.423Z" fill="#263238"/><path d="m235.315 208.549-4.221-4.596-1.381 5.761s3.001 2.65 5.427 1.74l.175-2.905Z" fill="#E58A7B"/><path d="m226.817 202.636-2.953 2.346 5.849 4.732 1.381-5.761-4.277-1.317Z" fill="#E58A7B"/><path d="m354.736 357.496 4.932-4.972a.502.502 0 0 1 .654-.048l4.493 3.336a1.004 1.004 0 0 1 .38.726 1.01 1.01 0 0 1-.292.766c-1.756 1.7-2.682 2.434-4.852 4.621-1.333 1.348-3.144 3.447-4.988 5.306-1.843 1.86-3.782.128-3.192-.798 2.689-4.205 2.211-5.777 2.394-7.916.028-.386.195-.749.471-1.021ZM311.061 374.932h7.007a.527.527 0 0 1 .519.431l1.101 5.538a.946.946 0 0 1-.533 1.023.936.936 0 0 1-.401.086c-2.45-.04-3.631-.183-6.711-.183-1.891 0-5.801.191-8.419.191-2.617 0-2.897-2.585-1.819-2.817 4.788-1.053 6.663-2.497 8.235-3.886a1.597 1.597 0 0 1 1.021-.383Z" fill="#263238"/><path d="m310.918 206.059-3.831 2.283 4.421 16.622c-.965-5.035-.534-10.566-.59-18.905Z" fill="#407BFF" style="mix-blend-mode:multiply" opacity=".27"/><path d="M289.148 180.108c2.722 2.275 6.672 5.586 11.324 1.716 3.99-3.335 6.783-12.09-.375-12.409-3.743-.167-10.949 10.693-10.949 10.693Z" fill="#263238"/><path d="M295.724 181.665c0 3.766.582 10.557 3.591 12.488 0 0-.271 3.879-7.022 5.187-7.414 1.445-4.262-2.992-4.262-2.992 3.863-1.756 3.192-4.74 1.915-7.422l5.778-7.261Z" fill="#E58A7B"/><path d="m293.37 184.625-3.416 4.301c.3.622.545 1.268.734 1.932 1.501-.527 3.296-2.634 3.145-4.286a5.458 5.458 0 0 0-.463-1.947Z" fill="#CF6F64"/><path d="M296.083 173.014c.798 6.137 1.285 8.714-1.173 12.425-3.695 5.586-11.403 5.227-14.029-.543-2.394-5.195-3.288-14.364 2.171-17.915a8.44 8.44 0 0 1 8.199-.621 8.44 8.44 0 0 1 4.832 6.654Z" fill="#E58A7B"/><path d="M285.422 162.265c-4.15 2.945 4.173 3.815 4.181 8.084 0 1.763 2.897 7.357 7.015 7.038l3.99-7.086c4.197-6.783-5.722-14.763-15.186-8.036Z" fill="#263238"/><path d="M285.422 162.265c-7.302-.383-10.486 5.427-9.648 10.645a47.565 47.565 0 0 1 15.593-1.236c10.007 1.021-5.945-9.409-5.945-9.409Z" fill="#263238"/><path d="M298.078 178.305a4.512 4.512 0 0 1-1.045 3.288c-1.03 1.205-2.394.494-2.873-.934-.407-1.293-.359-3.471 1.029-4.157a2.037 2.037 0 0 1 1.932.12 2.043 2.043 0 0 1 .957 1.683Z" fill="#E58A7B"/><path d="M287.217 176.501c.096.495-.087.942-.407 1.006-.319.064-.662-.287-.758-.798-.096-.511.088-.95.407-1.013.319-.064.663.311.758.805ZM281.639 177.587c.096.495-.088.949-.407 1.013-.319.064-.662-.287-.758-.798-.096-.511.088-.949.407-1.005.319-.056.662.287.758.79Z" fill="#263238"/><path d="m281.033 176.805-1.253-.104s.79.806 1.253.104Z" fill="#263238"/><path d="M283.283 178.153a13.666 13.666 0 0 1-1.149 3.488 2.168 2.168 0 0 0 1.827 0l-.678-3.488Z" fill="#DF5753"/><path d="M286.044 183.237a.146.146 0 0 1-.144-.12.137.137 0 0 1 .002-.057.136.136 0 0 1 .023-.052.13.13 0 0 1 .042-.039.142.142 0 0 1 .053-.02 3.99 3.99 0 0 0 2.889-2.154.14.14 0 0 1 .032-.048.14.14 0 0 1 .103-.043.147.147 0 0 1 .136.202 4.204 4.204 0 0 1-3.104 2.331h-.032ZM288.502 174.379a.3.3 0 0 1-.199-.072 2.355 2.355 0 0 0-2.043-.607.31.31 0 0 1-.344-.464.314.314 0 0 1 .192-.142 2.967 2.967 0 0 1 2.594.742.298.298 0 0 1 0 .415.293.293 0 0 1-.2.128ZM278.551 175.488a.264.264 0 0 1-.112 0 .3.3 0 0 1-.184-.277.3.3 0 0 1 .025-.114 2.919 2.919 0 0 1 2.018-1.78.288.288 0 0 1 .344.24.297.297 0 0 1-.043.221.297.297 0 0 1-.189.122 2.391 2.391 0 0 0-1.596 1.428.305.305 0 0 1-.263.16Z" fill="#263238"/><path d="M352.885 360.393a.864.864 0 0 1-.391-.107.86.86 0 0 1-.296-.276.507.507 0 0 1-.087-.495c.279-.75 2.481-1.229 2.729-1.285a.146.146 0 0 1 .085.01c.027.011.05.03.066.054a.134.134 0 0 1 0 .159c-.43.711-1.276 1.9-2.066 1.94h-.04Zm1.668-1.796c-.87.224-2.019.623-2.163 1.022a.204.204 0 0 0-.009.115.205.205 0 0 0 .057.1.54.54 0 0 0 .479.263c.423-.024 1.021-.574 1.636-1.5Z" fill="#407BFF"/><path d="M354.193 358.597c-.798 0-1.795-.199-2.09-.63a.518.518 0 0 1 .056-.647.795.795 0 0 1 .582-.303h.064c.894 0 2.123 1.205 2.17 1.253.02.018.033.041.041.066a.148.148 0 0 1-.039.143.153.153 0 0 1-.065.038 2.853 2.853 0 0 1-.719.08Zm-1.388-1.285h-.048a.484.484 0 0 0-.367.192c-.112.151-.08.239-.04.295.239.367 1.46.575 2.21.487a3.525 3.525 0 0 0-1.755-.974ZM308.771 376.025a2.39 2.39 0 0 1-1.524-.383.796.796 0 0 1-.303-.71.46.46 0 0 1 .223-.399c.734-.431 3.304.846 3.591.99a.15.15 0 0 1 .044.232.151.151 0 0 1-.076.047c-.643.135-1.298.21-1.955.223Zm-1.181-1.292a.52.52 0 0 0-.271.056.155.155 0 0 0-.064.063.158.158 0 0 0-.016.088.554.554 0 0 0 .2.479c.399.343 1.428.399 2.785.176a8.336 8.336 0 0 0-2.634-.862Z" fill="#407BFF"/><path d="M310.694 375.786h-.056c-.798-.343-2.338-1.7-2.226-2.394 0-.16.144-.367.543-.407h.119c1.389 0 1.748 2.538 1.764 2.649a.163.163 0 0 1-.056.144.155.155 0 0 1-.088.008Zm-1.596-2.522h-.087c-.256 0-.272.12-.272.152-.064.423.99 1.484 1.788 1.955-.16-.622-.567-2.091-1.461-2.091l.032-.016Z" fill="#407BFF"/><path d="m286.611 175.719-1.253-.111s.79.814 1.253.111Z" fill="#263238"/><path d="M292.093 204.647c-13.35 2.976-9.225-5.099-8.427-6.879l.335-.128c1.596-.582 1.916-.67 4.038-1.292 3.704-1 7.475-1.734 11.284-2.195l.798-.111a52.462 52.462 0 0 1 2.258-.248c.495-.056.99-.088 1.461-.12l1.596-.095c.271 1.245.933 7.9-13.343 11.068Z" fill="#E58A7B"/><path d="m313.048 229.92 1.556 2.011c.12.151-.047.367-.335.422l-26.062 5.076c-.224.048-.431 0-.471-.168l-.663-2.178c0-.152.128-.32.368-.367l25.168-4.9a.453.453 0 0 1 .439.104Z" fill="#26395A"/><path d="m310.216 233.391.678-.128c.136 0 .223-.111.199-.199l-.877-2.825c0-.088-.16-.128-.296-.104l-.67.128c-.136 0-.223.119-.199.199l.877 2.833c.024.08.16.128.288.096Z" fill="#407BFF"/><path d="m294.95 242.807-5.195-1.931.798 4.94s3.766 1.356 5.69-.383l-1.293-2.626ZM284.807 242.185l-1.237 3.24 6.983.391-.798-4.94-4.948 1.309Z" fill="#E58A7B"/><path d="m290.146 237.301.678-.128c.128 0 .223-.111.192-.199l-.878-2.825c0-.088-.152-.128-.287-.104l-.679.128c-.135 0-.223.12-.191.199l.877 2.833c.024.08.152.128.288.096ZM300.185 235.338l.67-.128c.136 0 .224-.111.2-.199l-.878-2.825c0-.088-.16-.128-.295-.104l-.671.128c-.135 0-.223.12-.199.199l.878 2.833a.252.252 0 0 0 .295.096ZM297.344 190.985c.566-.215 1.277 1.78 1.101 2.035-.407.583-7.86 2.618-8.195 1.476a4.982 4.982 0 0 1 .279-1.819c.215-.383 1.867.319 6.815-1.692Z" fill="#407BFF"/><path d="M296.083 191.033c.287-.662 1.109-1.724 1.828-1.117.718.606 1.021 1.915.55 2.131-.471.215-2.873.095-2.378-1.014Z" fill="#407BFF"/><path d="M297.607 191.376c.495-.527 1.596-1.253 2.099-.439.503.814.319 2.147-.192 2.187-.51.04-2.745-.878-1.907-1.748Z" fill="#407BFF"/><path d="M297.879 191.257a2.211 2.211 0 0 1 1.109-2.131c.909-.591 1.795-.974 2.146-1.596.152.583.181 1.192.088 1.787-.183.854-3.016 1.509-2.825 2.251l-.518-.311Z" fill="#407BFF"/><path d="M297.759 191.217a2.211 2.211 0 0 1-.224-2.394c.431-.99.974-1.788.942-2.49.443.408.799.902 1.045 1.452.304.798-1.715 2.897-1.149 3.424l-.614.008ZM353.26 347.106a.095.095 0 0 1-.046-.014.092.092 0 0 1-.034-.034c-.184-.255-18.426-26.286-25.113-49.157a335.254 335.254 0 0 1-10.039-44.752c-1.38-8.522-2.218-13.669-4.963-17.891a.101.101 0 0 1-.029-.072.1.1 0 0 1 .029-.071.101.101 0 0 1 .135 0c2.777 4.261 3.615 9.424 4.996 17.971a336.023 336.023 0 0 0 10.054 44.688c6.68 22.838 24.906 48.837 25.09 49.1a.12.12 0 0 1 .023.068.116.116 0 0 1-.023.068.11.11 0 0 1-.024.061.101.101 0 0 1-.056.035Z" fill="#407BFF"/><path opacity=".4" d="M353.26 347.106a.095.095 0 0 1-.046-.014.092.092 0 0 1-.034-.034c-.184-.255-18.426-26.286-25.113-49.157a335.254 335.254 0 0 1-10.039-44.752c-1.38-8.522-2.218-13.669-4.963-17.891a.101.101 0 0 1-.029-.072.1.1 0 0 1 .029-.071.101.101 0 0 1 .135 0c2.777 4.261 3.615 9.424 4.996 17.971a336.023 336.023 0 0 0 10.054 44.688c6.68 22.838 24.906 48.837 25.09 49.1a.12.12 0 0 1 .023.068.116.116 0 0 1-.023.068.11.11 0 0 1-.024.061.101.101 0 0 1-.056.035Z" fill="#191919"/><path d="m319.544 366.314-12.193 1.58-.798-3.4 12.696-2.689.295 4.509ZM356.923 346.731l-8.994 5.195-3.032-2.594 9.839-6.655 2.187 4.054Z" fill="#407BFF"/><path d="M314.716 201.926c.431 2.218.679 4.309.918 6.472.239 2.162.327 4.301.391 6.463.064 2.18.016 4.361-.144 6.536a57.123 57.123 0 0 1-.335 3.288 24.033 24.033 0 0 1-.239 1.644l-.295 1.691a10.645 10.645 0 0 1-1.764 3.823 23.774 23.774 0 0 1-2.266 2.721 45.2 45.2 0 0 1-4.948 4.389 82.565 82.565 0 0 1-10.741 7.014l-1.708-2.649a256.961 256.961 0 0 0 4.788-3.91 87.297 87.297 0 0 0 4.573-4.086 50.055 50.055 0 0 0 4.078-4.301c.584-.7 1.118-1.442 1.596-2.219a5.614 5.614 0 0 0 .798-1.859c.259-1.937.411-3.887.454-5.841v-2.993c0-.997-.04-2.011-.087-3.016-.096-2.011-.28-3.99-.495-6.033a112.978 112.978 0 0 0-.798-5.953l6.224-1.181Z" fill="#E58A7B"/><path d="M313.751 195.143c3.407 2.761 2.593 10.964 2.593 10.964l-11.491 3.783s.527-9.456 1.101-12.856c.671-4.046 4.437-4.612 7.797-1.891Z" fill="#407BFF"/><path opacity=".2" d="M313.751 195.143c3.407 2.761 2.593 10.964 2.593 10.964l-11.491 3.783s.527-9.456 1.101-12.856c.671-4.046 4.437-4.612 7.797-1.891Z" fill="#191919"/><path d="M161.947 229.377a8.78 8.78 0 0 0-8.554-6.807h-63.84a8.779 8.779 0 0 0-8.778 8.778v141.9a8.778 8.778 0 0 0 8.778 8.778h202.692a8.776 8.776 0 0 0 8.778-8.778V254.051a8.779 8.779 0 0 0-8.778-8.778H181.921a20.493 20.493 0 0 1-19.974-15.896Z" fill="#407BFF"/><path opacity=".6" d="M161.947 229.377a8.78 8.78 0 0 0-8.554-6.807h-63.84a8.779 8.779 0 0 0-8.778 8.778v141.9a8.778 8.778 0 0 0 8.778 8.778h202.692a8.776 8.776 0 0 0 8.778-8.778V254.051a8.779 8.779 0 0 0-8.778-8.778H181.921a20.493 20.493 0 0 1-19.974-15.896Z" fill="#191919"/><path opacity=".22" d="m139.412 185.184 5.689 18.425a9.265 9.265 0 0 0 11.579 6.113l18.418-5.69-35.686-18.848Z" fill="#407BFF"/><path d="m139.412 185.184-65.835 20.341a9.246 9.246 0 0 0-6.121 11.571l37.586 121.679a9.268 9.268 0 0 0 4.523 5.455 9.251 9.251 0 0 0 7.056.657l84.261-26.03a9.246 9.246 0 0 0 6.112-11.571l-31.92-103.254-35.662-18.848Z" fill="#407BFF"/><path opacity=".8" d="m139.412 185.184-65.835 20.341a9.246 9.246 0 0 0-6.121 11.571l37.586 121.679a9.268 9.268 0 0 0 4.523 5.455 9.251 9.251 0 0 0 7.056.657l84.261-26.03a9.246 9.246 0 0 0 6.112-11.571l-31.92-103.254-35.662-18.848Z" fill="#fff"/><path d="M174.835 313.542 120.06 330.46a4.057 4.057 0 0 1-5.059-2.666 4.053 4.053 0 0 1 2.673-5.051l54.775-16.926a4.056 4.056 0 0 1 5.059 2.674 4.053 4.053 0 0 1-2.673 5.051ZM115.887 214.255 86.919 223.2a4.06 4.06 0 0 1-5.06-2.665 4.06 4.06 0 0 1 2.674-5.059l28.968-8.946a4.044 4.044 0 0 1 5.059 2.665 4.063 4.063 0 0 1-2.673 5.06ZM139.523 223.743l-47.88 14.787a4.056 4.056 0 0 1-5.035-2.673 4.047 4.047 0 0 1 2.665-5.052l47.88-14.787a4.06 4.06 0 0 1 5.06 2.666 4.07 4.07 0 0 1-2.69 5.059ZM166.256 232.274 96.384 253.82a4.046 4.046 0 0 1-5.052-2.666 4.062 4.062 0 0 1 2.666-5.059l69.872-21.546a4.056 4.056 0 0 1 5.052 2.665 4.055 4.055 0 0 1-2.666 5.06ZM170.989 247.595l-40.619 12.553a4.053 4.053 0 0 1-5.051-2.673 4.056 4.056 0 0 1 2.665-5.052l40.619-12.552a4.07 4.07 0 0 1 5.059 2.673 4.053 4.053 0 0 1-2.673 5.051ZM111.745 265.901l-10.621 3.28a4.054 4.054 0 0 1-5.06-2.665 4.054 4.054 0 0 1 2.674-5.059l10.621-3.28a4.06 4.06 0 0 1 5.059 2.665 4.067 4.067 0 0 1-2.673 5.059ZM175.729 262.925l-69.873 21.586a4.052 4.052 0 0 1-5.052-2.674 4.045 4.045 0 0 1 2.666-5.051l69.873-21.586a4.054 4.054 0 0 1 5.051 2.666 4.055 4.055 0 0 1-2.665 5.059ZM153.496 286.578l-42.908 13.254a4.049 4.049 0 0 1-5.051-2.665 4.06 4.06 0 0 1 2.665-5.059l42.908-13.255a4.065 4.065 0 0 1 5.06 2.673 4.044 4.044 0 0 1-2.674 5.052ZM180.461 278.254l-11.452 3.536a4.06 4.06 0 0 1-5.059-2.674 4.053 4.053 0 0 1 2.673-5.051l11.452-3.535a4.046 4.046 0 0 1 5.051 2.665 4.055 4.055 0 0 1-2.665 5.059ZM185.193 293.592l-69.857 21.546a4.056 4.056 0 0 1-5.059-2.673 4.048 4.048 0 0 1 2.673-5.052l69.865-21.586a4.073 4.073 0 0 1 5.059 2.674 4.062 4.062 0 0 1-.281 3.104 4.048 4.048 0 0 1-2.4 1.987Z" fill="#407BFF" opacity=".28"/><path d="m186.693 139.426 20.892 46.556a5.039 5.039 0 0 1-2.522 6.639l-88.626 39.78a5.024 5.024 0 0 1-6.639-2.521l-20.9-46.556a5.028 5.028 0 0 1 2.522-6.647l88.626-39.78a5.043 5.043 0 0 1 6.647 2.529Z" fill="#407BFF"/><path opacity=".3" d="m186.693 139.426 20.892 46.556a5.039 5.039 0 0 1-2.522 6.639l-88.626 39.78a5.024 5.024 0 0 1-6.639-2.521l-20.9-46.556a5.028 5.028 0 0 1 2.522-6.647l88.626-39.78a5.043 5.043 0 0 1 6.647 2.529Z" fill="#191919"/><path d="m172.726 137.126-2.833 1.27.327.729 2.832-1.271-.326-.728ZM165.927 140.172l-8.832 3.962.326.728 8.832-3.962-.326-.728ZM88.82 188.016l-.728.327 2.418 5.387.728-.327-2.418-5.387Z" fill="#407BFF"/><path opacity=".6" d="m183.725 136.729-22.855 44.768a20.473 20.473 0 0 1-23.382 10.494L88.85 179.31a5.097 5.097 0 0 1 2.57-2.633l88.626-39.78a5.03 5.03 0 0 1 3.679-.168Z" fill="#407BFF"/><path d="m215.142 194.026-68.772 4.245a9.25 9.25 0 0 0-8.202 6.224 9.24 9.24 0 0 0-.488 3.583l7.844 127.106a9.27 9.27 0 0 0 .919 3.5 9.267 9.267 0 0 0 8.905 5.182l88.019-5.434a9.23 9.23 0 0 0 8.185-6.228 9.22 9.22 0 0 0 .481-3.58l-6.623-107.865-30.268-26.733Z" fill="#407BFF"/><path opacity=".8" d="m215.142 194.026-68.772 4.245a9.25 9.25 0 0 0-8.202 6.224 9.24 9.24 0 0 0-.488 3.583l7.844 127.106a9.27 9.27 0 0 0 .919 3.5 9.267 9.267 0 0 0 8.905 5.182l88.019-5.434a9.23 9.23 0 0 0 8.185-6.228 9.22 9.22 0 0 0 .481-3.58l-6.623-107.865-30.268-26.733Z" fill="#fff"/><path d="m219.3 327.108-57.225 3.535a4.054 4.054 0 0 1-4.277-3.79 4.062 4.062 0 0 1 3.782-4.286l57.225-3.527a4.052 4.052 0 0 1 4.285 3.783 4.056 4.056 0 0 1-3.79 4.285ZM185.432 216.729l-30.268 1.851a4.063 4.063 0 0 1-4.285-3.783 4.064 4.064 0 0 1 3.79-4.285l30.269-1.867a4.045 4.045 0 0 1 4.277 3.782 4.053 4.053 0 0 1-3.783 4.302ZM206.164 231.524l-50.01 3.08a4.048 4.048 0 0 1-4.286-3.783 4.053 4.053 0 0 1 3.791-4.285l50.003-3.08a4.043 4.043 0 0 1 4.285 3.782 4.056 4.056 0 0 1-3.783 4.286ZM230.128 246.119l-72.985 4.501a4.066 4.066 0 0 1-4.301-3.791 4.049 4.049 0 0 1 3.783-4.277l72.993-4.509a4.056 4.056 0 0 1 4.277 3.791 4.057 4.057 0 0 1-3.767 4.285ZM231.118 262.127l-42.43 2.617a4.05 4.05 0 0 1-4.285-3.782 4.044 4.044 0 0 1 3.782-4.285l42.43-2.618a4.048 4.048 0 0 1 4.285 3.783 4.057 4.057 0 0 1-3.782 4.285ZM169.225 265.941l-11.1.687a4.047 4.047 0 0 1-4.278-3.783 4.056 4.056 0 0 1 3.783-4.285l11.1-.687a4.061 4.061 0 0 1 4.285 3.791 4.05 4.05 0 0 1-3.79 4.277ZM232.107 278.135l-72.993 4.5a4.055 4.055 0 0 1-4.285-3.782 4.061 4.061 0 0 1 3.791-4.285l72.985-4.501a4.056 4.056 0 0 1 4.285 3.79 4.047 4.047 0 0 1-3.783 4.278ZM204.928 295.882l-44.824 2.769a4.056 4.056 0 0 1-4.285-3.79 4.05 4.05 0 0 1 3.79-4.277l44.824-2.77a4.055 4.055 0 0 1 4.277 3.791 4.036 4.036 0 0 1-3.782 4.277ZM233.089 294.151l-11.97.734a4.049 4.049 0 0 1-4.277-3.783 4.042 4.042 0 0 1 3.782-4.285l11.97-.734a4.044 4.044 0 0 1 4.285 3.782 4.06 4.06 0 0 1-3.79 4.286ZM234.078 310.158l-72.985 4.501a4.053 4.053 0 0 1-4.285-3.782 4.056 4.056 0 0 1 3.783-4.286l72.993-4.5a4.045 4.045 0 0 1 4.277 3.782 4.044 4.044 0 0 1-3.783 4.285ZM215.142 194.026l1.189 19.247a9.256 9.256 0 0 0 9.807 8.675l19.272-1.189-30.268-26.733Z" fill="#407BFF" opacity=".22"/><path opacity=".5" d="M192.622 242.041a6.92 6.92 0 0 0-.578-2.678 6.917 6.917 0 0 0-1.575-2.242 6.919 6.919 0 0 0-5.029-1.887h-63.919c-4.844 0-9.576 3.934-10.486 8.778L85.81 373.248c-.942 4.844 2.218 8.778 7.062 8.778h202.692c4.844 0 9.536-3.926 10.486-8.778l20.804-106.533c.942-4.851-2.219-8.778-7.062-8.778H209.5c-9.576 0-16.55-6.591-16.878-15.896Z" fill="#407BFF"/></svg>